<svg width="594" height="343" viewBox="0 0 594 343" fill="none" xmlns="http://www.w3.org/2000/svg">
<g clip-path="url(#clip0_263_744)">
<path d="M317.579 279.321H132.993C132.357 279.321 131.84 278.806 131.84 278.173V1.14726C131.84 0.514545 132.357 0 132.993 0H317.579C318.215 0 318.733 0.514545 318.733 1.14726V278.173C318.733 278.806 318.215 279.321 317.579 279.321ZM132.993 1.14726V278.173H317.58L317.579 1.14726H132.993Z" fill="#0060FF"/>
<path d="M317.284 31.8398H131.84V33.2871H317.284V31.8398Z" fill="#0060FF"/>
<path d="M263.678 54.9961H155.02V56.4434H263.678V54.9961Z" fill="#0060FF"/>
<path d="M263.678 83.9414H155.02V85.3887H263.678V83.9414Z" fill="#0060FF"/>
<path d="M237.6 111.439H155.02V112.887H237.6V111.439Z" fill="#0060FF"/>
<path d="M485.388 56.4434H299.853C285.476 56.4434 273.82 68.0828 273.82 82.4408V315.556C273.82 329.914 285.476 341.553 299.853 341.553H485.388C499.765 341.553 511.42 329.914 511.42 315.556V82.4408C511.42 68.0828 499.765 56.4434 485.388 56.4434Z" fill="white"/>
<path d="M484.554 341.553H299.237C284.423 341.553 272.371 329.515 272.371 314.718V81.8308C272.371 67.0341 284.423 54.9961 299.237 54.9961H484.554C499.368 54.9961 511.42 67.0341 511.42 81.8308V314.718C511.42 329.515 499.368 341.553 484.554 341.553ZM299.237 56.7212C285.375 56.7212 274.098 67.9854 274.098 81.8308V314.718C274.098 328.564 285.375 339.828 299.237 339.828H484.554C498.416 339.828 509.693 328.564 509.693 314.718V81.8308C509.693 67.9854 498.416 56.7212 484.554 56.7212H299.237Z" fill="#0060FF"/>
<path d="M475.265 68.0215H308.528C294.161 68.0215 282.514 79.6934 282.514 94.0914V305.352C282.514 319.75 294.161 331.422 308.528 331.422H475.265C489.633 331.422 501.28 319.75 501.28 305.352V94.0914C501.28 79.6934 489.633 68.0215 475.265 68.0215Z" fill="white"/>
<path d="M474.435 331.422H307.909C293.107 331.422 281.064 319.352 281.064 304.515V93.4811C281.064 78.6446 293.107 66.5742 307.909 66.5742H474.435C489.237 66.5742 501.279 78.6446 501.279 93.4811V304.515C501.279 319.352 489.237 331.422 474.435 331.422ZM307.908 68.3039C294.058 68.3039 282.79 79.5983 282.79 93.4811V304.515C282.79 318.398 294.058 329.693 307.908 329.693H474.435C488.285 329.693 499.553 318.398 499.553 304.515V93.4811C499.553 79.5983 488.285 68.3039 474.435 68.3039H307.908Z" fill="#0060FF"/>
<path d="M428.771 43.418H356.469C349.23 43.418 343.361 49.3024 343.361 56.5612V69.3507C343.361 76.6095 349.23 82.4939 356.469 82.4939H428.771C436.01 82.4939 441.878 76.6095 441.878 69.3507V56.5612C441.878 49.3024 436.01 43.418 428.771 43.418Z" fill="white"/>
<path d="M427.948 82.4939H355.843C348.161 82.4939 341.912 76.2536 341.912 68.5833V55.8813C341.912 48.2111 348.161 41.9707 355.843 41.9707H427.948C435.629 41.9707 441.878 48.2111 441.878 55.8813V68.5833C441.878 76.2536 435.629 82.4939 427.948 82.4939ZM355.843 43.6857C349.108 43.6857 343.63 49.1566 343.63 55.8813V68.5833C343.63 75.308 349.108 80.7789 355.843 80.7789H427.948C434.682 80.7789 440.161 75.308 440.161 68.5833V55.8813C440.161 49.1566 434.682 43.6857 427.948 43.6857H355.843Z" fill="#0060FF"/>
<path d="M469.007 267.742H316.234C311.221 267.742 307.143 263.621 307.143 258.556V249.43C307.143 244.365 311.221 240.244 316.234 240.244H469.007C474.02 240.244 478.099 244.365 478.099 249.43V258.556C478.099 263.621 474.02 267.742 469.007 267.742ZM316.234 241.985C312.171 241.985 308.865 245.325 308.865 249.43V258.556C308.865 262.661 312.171 266.001 316.234 266.001H469.007C473.07 266.001 476.376 262.661 476.376 258.556V249.43C476.376 245.325 473.07 241.985 469.007 241.985H316.234Z" fill="#0060FF"/>
<path d="M469.007 306.818H316.234C311.221 306.818 307.143 302.697 307.143 297.632V288.506C307.143 283.441 311.221 279.32 316.234 279.32H469.007C474.02 279.32 478.099 283.441 478.099 288.506V297.632C478.099 302.697 474.02 306.818 469.007 306.818ZM316.234 281.061C312.171 281.061 308.865 284.401 308.865 288.506V297.632C308.865 301.738 312.171 305.078 316.234 305.078H469.007C473.07 305.078 476.376 301.738 476.376 297.632V288.506C476.376 284.401 473.07 281.061 469.007 281.061H316.234Z" fill="#0060FF"/>
<path d="M176.424 240.487C169.873 241.434 164.676 242.181 160.107 242.844C155.504 243.513 152.954 243.711 150.36 242.371C148.091 241.199 148.129 239.426 145.243 236.454C142.868 234.007 140.738 232.854 138.908 231.721C133.054 228.093 129.022 223.939 125.263 220.36C119.321 214.704 118.901 213.07 116.248 212.786C111.833 212.313 106.021 216.088 105.77 220.597C105.675 222.303 106.403 223.614 106.988 224.62C109.669 229.231 111.932 234.072 114.786 238.584C119.518 246.065 119.255 246.904 124.776 255.388C125.608 256.667 126.763 258.518 128.431 260.832C130.267 263.381 132.931 266.822 134.278 268.169C141.266 275.151 153.746 271.754 154.746 271.482C156.397 271.035 157.95 270.37 157.95 270.37C158.453 270.154 158.861 269.96 159.132 269.826C159.132 269.826 157.914 275.979 159.376 277.873H244.845C244.845 277.873 242.708 258.111 224.433 247.519C224.433 247.519 202.26 233.377 177.406 240.004L176.424 240.487H176.424Z" fill="#0060FF"/>
<path d="M246.293 279.32H159.787L159.644 279.133C158.396 277.51 158.854 273.438 159.149 271.559C159.026 271.614 158.903 271.669 158.78 271.722C158.713 271.75 157.152 272.416 155.503 272.864C153.196 273.494 141.357 276.277 134.508 269.403C133.17 268.059 130.519 264.637 128.592 261.951C127.206 260.019 126.152 258.377 125.382 257.177C125.215 256.917 125.059 256.673 124.913 256.448C121.909 251.812 120.578 249.382 119.29 247.033C118.194 245.031 117.06 242.962 114.888 239.512C113.2 236.832 111.697 233.999 110.243 231.258C109.221 229.333 108.165 227.342 107.057 225.427C106.502 224.47 105.665 223.023 105.771 221.107C105.881 219.125 106.983 217.147 108.876 215.539C111.196 213.566 114.236 212.513 116.809 212.79C118.784 213.002 119.679 213.944 121.84 216.218C122.897 217.331 124.212 218.715 126.131 220.55C126.588 220.986 127.048 221.431 127.515 221.882C130.846 225.101 134.622 228.749 139.742 231.936C139.971 232.079 140.205 232.222 140.443 232.367C142.139 233.404 144.062 234.579 146.188 236.779C147.501 238.137 148.232 239.263 148.819 240.168C149.555 241.3 150.04 242.048 151.198 242.649C153.655 243.924 156.09 243.747 160.687 243.077C163.48 242.67 166.507 242.231 169.933 241.735L176.981 240.713L177.987 240.227C190.977 236.748 203.213 239.007 211.19 241.514C219.664 244.178 225.27 247.685 225.534 247.852C235.108 253.428 240.226 261.537 242.834 267.358C245.66 273.666 246.214 278.585 246.237 278.791L246.293 279.32L246.293 279.32ZM160.277 278.365H245.214C244.991 276.928 244.197 272.724 241.949 267.716C239.397 262.032 234.393 254.114 225.046 248.672L225.029 248.662C224.973 248.626 219.401 245.092 210.877 242.417C203.035 239.955 191.02 237.738 178.279 241.137L177.268 241.636L170.07 242.68C166.644 243.176 163.617 243.615 160.824 244.022C156.021 244.722 153.462 244.899 150.759 243.496C149.378 242.78 148.778 241.857 148.019 240.688C147.424 239.772 146.75 238.734 145.502 237.443C143.461 235.33 141.593 234.189 139.946 233.182C139.705 233.035 139.469 232.891 139.238 232.747C134.032 229.507 130.217 225.821 126.852 222.569C126.386 222.119 125.927 221.676 125.472 221.241C123.536 219.39 122.156 217.937 121.148 216.876C119.043 214.66 118.333 213.914 116.707 213.739C114.421 213.493 111.589 214.485 109.493 216.267C107.802 217.704 106.819 219.442 106.724 221.16C106.64 222.666 107.224 223.811 107.882 224.948C108.999 226.878 110.06 228.877 111.086 230.81C112.531 233.535 114.026 236.353 115.695 239.002C117.883 242.477 119.024 244.56 120.127 246.573C121.465 249.015 122.728 251.321 125.713 255.928C125.86 256.155 126.017 256.4 126.185 256.661C126.949 257.852 127.995 259.483 129.367 261.394C131.272 264.049 133.881 267.421 135.184 268.728C141.66 275.228 153.035 272.547 155.249 271.944C156.838 271.511 158.34 270.871 158.403 270.844C158.794 270.676 159.185 270.495 159.566 270.307L160.433 269.877L160.246 270.827C159.931 272.426 159.355 276.761 160.276 278.365H160.277Z" fill="white"/>
<path d="M246.294 279.32H217.572L217.535 278.981C217.082 274.85 217.118 268.704 219.859 262.882C220.753 260.981 221.979 258.378 224.608 257.011C227.688 255.41 230.734 256.477 232.198 256.989C241.541 260.26 245.736 276.96 246.184 278.853L246.294 279.32ZM218.261 278.56H245.324C244.505 275.312 240.379 260.659 231.944 257.706C230.582 257.229 227.747 256.238 224.963 257.685C222.563 258.932 221.401 261.401 220.552 263.204C217.961 268.71 217.858 274.533 218.261 278.56L218.261 278.56Z" fill="white"/>
<path d="M225.474 256.164C225.439 256.125 221.885 252.204 214.42 249.612L214.655 248.928C222.31 251.586 225.863 255.515 226.01 255.681L225.474 256.164H225.474Z" fill="white"/>
<path d="M162.076 263.401C162.036 263.935 161.957 264.461 161.881 264.987C161.795 265.511 161.708 266.034 161.603 266.554C161.502 267.074 161.388 267.591 161.27 268.108C161.15 268.624 161.023 269.138 160.889 269.651L160.1 269.346C160.399 268.882 160.716 268.46 161.066 268.046C161.413 267.633 161.79 267.241 162.2 266.879C162.611 266.518 163.063 266.192 163.555 265.928C164.05 265.675 164.605 265.478 165.162 265.498C164.636 265.656 164.192 265.933 163.791 266.255C163.387 266.574 163.029 266.942 162.685 267.321C162.344 267.703 162.021 268.101 161.714 268.51C161.409 268.918 161.107 269.343 160.842 269.759L159.367 272.084L160.054 269.455C160.188 268.942 160.327 268.431 160.475 267.922C160.625 267.413 160.778 266.904 160.944 266.399C161.107 265.893 161.288 265.392 161.469 264.89C161.661 264.391 161.849 263.891 162.076 263.4L162.076 263.401Z" fill="white"/>
<path d="M170.093 193.223C168.122 196.911 166.458 199.627 165.248 201.498C163.915 203.561 162.26 206.062 161.262 209.922C161.208 210.132 161.166 210.322 161.13 210.503C160.291 214.674 161.302 218.122 162.099 220.726C162.099 220.726 165.221 230.934 173.97 238.493C184.529 247.616 202.726 250.075 221.453 244.578C221.453 244.578 233.647 227.701 233.244 222.266C232.84 216.832 231.144 200.525 229.69 198.578C228.237 196.631 208.613 174.969 199.165 178.377C195.552 179.68 190.119 180.788 187.587 181.727C184.043 183.042 180.925 184.221 177.362 186.652C173.997 188.947 171.622 191.412 170.094 193.223L170.093 193.223Z" fill="white"/>
<path d="M202.712 248.929C191.343 248.929 181.208 245.788 174.224 239.754C165.412 232.141 162.158 221.747 162.126 221.643C161.381 219.204 160.254 215.519 161.139 211.115C161.184 210.888 161.229 210.694 161.278 210.503C162.278 206.637 163.928 204.085 165.254 202.035L165.353 201.881C166.977 199.368 168.612 196.576 170.212 193.583L170.236 193.539L170.268 193.501C172.439 190.927 174.934 188.672 177.682 186.797C181.391 184.267 184.64 183.062 188.08 181.786C189.296 181.335 191.161 180.847 193.137 180.33C195.335 179.754 197.827 179.101 199.743 178.411C203.909 176.907 210.252 179.678 218.594 186.642C224.999 191.988 230.355 198.024 231.02 198.914C232.724 201.196 234.446 219.707 234.692 223.018C235.106 228.601 223.236 245.1 222.731 245.8L222.635 245.932L222.479 245.978C215.728 247.96 209.03 248.929 202.712 248.929L202.712 248.929ZM171.027 194.081C169.422 197.08 167.782 199.88 166.152 202.402L166.052 202.556C164.764 204.548 163.16 207.028 162.2 210.744C162.154 210.92 162.115 211.093 162.072 211.304C161.235 215.47 162.276 218.875 163.037 221.362C163.068 221.463 166.248 231.602 174.845 239.029C185.438 248.181 203.515 250.505 222.055 245.105C223.194 243.51 234.113 228.077 233.742 223.089C233.212 215.952 231.501 201.153 230.258 199.488C229.605 198.614 224.326 192.67 217.985 187.377C210.034 180.739 203.837 177.95 200.064 179.311C198.109 180.016 195.595 180.675 193.377 181.255C191.425 181.766 189.581 182.249 188.41 182.684C185.026 183.939 181.83 185.124 178.217 187.589C175.554 189.405 173.135 191.589 171.027 194.081V194.081Z" fill="#0060FF"/>
<path d="M177.164 170.143C175.563 170.943 168.958 174.467 167.174 181.618C166.76 183.278 166.032 186.195 167.418 188.943C169.139 192.357 173.037 193.36 179.6 195.047C182.981 195.917 186.296 196.769 190.808 196.512C196.561 196.185 201.418 194.217 201.773 194.071C205.178 192.661 205.569 191.799 206.889 192.117C210.395 192.963 213.008 200.343 212.494 206.523C212.373 207.965 212.025 210.036 212.494 210.186C213.24 210.424 214.401 205.254 217.61 204.57C219.342 204.2 221.07 205.265 221.996 206.279C223.685 208.127 223.905 211.117 222.727 212.871C220.589 216.056 214.612 214.023 213.712 216.289C213.117 217.787 215.569 219.074 217.61 222.882C219.655 226.696 219.818 230.297 220.047 235.334C220.406 243.256 218.725 245.47 220.29 246.81C222.933 249.073 230.646 245.263 235.397 240.706C241.113 235.223 242.528 228.403 243.681 223.126C246.049 212.286 244.188 203.471 243.437 200.419C242.622 197.105 239.985 187.858 232.229 179.176C228.76 175.293 222.518 168.306 215.417 167.945C214.399 167.893 212.56 167.937 209.813 167.457C204.802 166.58 204.061 165.235 201.285 165.015C196.895 164.667 195.459 167.772 190.077 169.654C187.317 170.62 183.104 171.409 177.164 170.143L177.164 170.143Z" fill="#01213A"/>
<path d="M172.404 234.152C173.536 234.166 174.653 234.126 175.763 234.02C176.871 233.912 177.972 233.748 179.058 233.52C180.146 233.297 181.221 233.013 182.284 232.684C183.346 232.353 184.394 231.973 185.443 231.562C184.507 232.178 183.49 232.678 182.438 233.093C181.913 233.304 181.375 233.482 180.832 233.648C180.287 233.807 179.735 233.944 179.179 234.064C178.62 234.171 178.059 234.27 177.493 234.335C176.927 234.395 176.359 234.445 175.789 234.453C174.652 234.478 173.509 234.396 172.404 234.151L172.404 234.152Z" fill="#0060FF"/>
<path d="M89.1363 215.27C89.3112 215.519 90.0206 216.441 90.8094 217.394C91.5076 218.238 92.8626 219.827 93.4386 220.345C95.6902 222.371 100.519 221.078 102.76 220.345L104.673 219.873C104.673 219.873 105.011 215.584 109.921 213.125C109.921 213.125 111.999 211.649 116.104 212.043C116.875 210.055 118.479 205.077 116.104 201.343C112.065 194.992 98.5757 195.48 92.4826 201.933C88.6132 206.03 87.4338 212.843 89.1363 215.27V215.27Z" fill="white"/>
<path d="M97.642 222.879C96.0868 222.879 94.6704 222.544 93.6716 221.643C93.0585 221.09 91.6709 219.459 90.9477 218.582C90.1239 217.583 89.3975 216.635 89.2224 216.384C87.3579 213.72 88.6077 206.501 92.6711 202.187C96.1596 198.483 102.433 196.363 108.28 196.915C112.514 197.314 115.774 198.997 117.461 201.655C119.853 205.427 118.514 210.377 117.502 212.992L117.373 213.327L117.013 213.292C113.09 212.913 111.061 214.297 111.041 214.311L110.98 214.347C106.276 216.709 105.901 220.809 105.898 220.85L105.871 221.187L103.611 221.747C101.776 222.348 99.5994 222.879 97.642 222.879ZM106.407 197.768C101.386 197.768 96.3134 199.698 93.3656 202.828C89.415 207.022 88.5048 213.707 90.0029 215.849C90.1705 216.088 90.8752 217.007 91.683 217.987C92.3412 218.785 93.7373 220.43 94.311 220.948C96.3324 222.771 100.829 221.669 103.329 220.849L103.363 220.839L104.997 220.435C105.189 219.313 106.132 215.74 110.522 213.523C110.819 213.325 112.9 212.045 116.74 212.325C117.666 209.806 118.735 205.432 116.656 202.155C115.152 199.785 112.066 198.216 108.19 197.851C107.599 197.795 107.003 197.768 106.406 197.768L106.407 197.768Z" fill="#0060FF"/>
<path d="M95.2948 163.234L68.815 170.206C67.6163 170.522 66.9005 171.769 67.2162 172.992L78.3717 216.211C78.6875 217.434 79.9152 218.17 81.1139 217.854L107.594 210.883C108.792 210.567 109.508 209.32 109.192 208.096L98.037 164.878C97.7212 163.655 96.4935 162.919 95.2948 163.234Z" fill="#FE0000"/>
<path d="M115.649 210.36C117.409 209.753 118.776 202.581 114.605 197.673C112.583 195.292 109.938 194.125 107.38 193.444C105.536 192.953 102.577 191.85 101.695 192.974C100.86 194.038 101.996 196.897 103.827 198.378C105.01 199.334 105.867 199.218 107.143 200.609C107.859 201.389 108.351 202.256 108.683 202.841C109.227 203.799 109.575 204.412 109.749 205.19C110.131 206.899 108.731 207.601 109.133 209.039C109.416 210.051 110.283 210.599 110.46 210.711C111.779 211.546 114.058 211.551 115.649 210.36V210.36Z" fill="white"/>
<path d="M113.548 212.748C112.559 212.748 111.63 212.5 110.957 212.076C110.164 211.576 109.606 210.87 109.386 210.087C109.139 209.204 109.437 208.532 109.701 207.94C109.96 207.359 110.183 206.858 110.015 206.111C109.851 205.38 109.518 204.795 108.967 203.827C108.639 203.252 108.144 202.382 107.442 201.621C106.73 200.846 106.159 200.568 105.555 200.273C105.095 200.048 104.62 199.815 104.076 199.377C102.145 197.821 100.688 194.588 101.803 193.173C102.774 191.94 105.149 192.626 107.244 193.231C107.569 193.325 107.879 193.414 108.163 193.49C111.515 194.379 114.029 195.849 115.85 197.984C118.818 201.465 119.276 206.157 118.413 209.262C118.047 210.581 117.474 211.454 116.794 211.734C115.816 212.443 114.645 212.748 113.548 212.748H113.548ZM103.559 193.429C103.101 193.429 102.739 193.518 102.556 193.751C101.922 194.556 102.913 197.224 104.678 198.646C105.139 199.018 105.547 199.217 105.978 199.428C106.635 199.749 107.314 200.081 108.148 200.986C108.921 201.827 109.449 202.752 109.797 203.364C110.372 204.373 110.751 205.039 110.946 205.906C111.181 206.954 110.844 207.711 110.574 208.319C110.336 208.853 110.148 209.276 110.305 209.836C110.461 210.393 110.875 210.907 111.469 211.281C112.628 212.012 114.742 212.085 116.274 210.942L116.334 210.897L116.405 210.873C116.72 210.765 117.179 210.148 117.494 209.013C118.088 206.873 118.257 202.269 115.121 198.591C113.407 196.58 111.117 195.249 107.915 194.399C107.625 194.322 107.308 194.231 106.977 194.135C105.935 193.834 104.53 193.429 103.558 193.429H103.559Z" fill="#0060FF"/>
<path d="M517.47 94.0723H263.424C254.763 94.0723 247.742 101.141 247.742 109.86V204.196C247.742 212.915 254.763 219.984 263.424 219.984H517.47C526.131 219.984 533.152 212.915 533.152 204.196V109.86C533.152 101.141 526.131 94.0723 517.47 94.0723Z" fill="white"/>
<path d="M516.709 219.984H262.735C253.669 219.984 246.293 212.561 246.293 203.438V109.171C246.293 100.047 253.669 92.625 262.735 92.625H516.709C525.776 92.625 533.152 100.047 533.152 109.171V203.438C533.152 212.561 525.776 219.984 516.709 219.984ZM262.735 94.1639C254.512 94.1639 247.823 100.896 247.823 109.17V203.438C247.823 211.713 254.512 218.444 262.735 218.444H516.709C524.932 218.444 531.622 211.713 531.622 203.438V109.17C531.622 100.896 524.932 94.1639 516.709 94.1639H262.735Z" fill="#0060FF"/>
<path d="M344.809 214.195C334.164 214.195 323.836 211.115 314.942 205.288C310.967 202.687 307.33 199.569 304.132 196.021C294.862 185.742 289.756 172.408 289.756 158.476C289.756 143.593 295.482 129.6 305.88 119.076C316.279 108.552 330.104 102.756 344.809 102.756C359.514 102.756 373.34 108.552 383.738 119.076C394.136 129.6 399.863 143.593 399.863 158.476C399.863 173.36 394.137 187.351 383.738 197.875C373.34 208.399 359.514 214.195 344.809 214.195ZM344.809 104.49C315.397 104.49 291.469 128.708 291.469 158.476C291.469 171.974 296.416 184.893 305.398 194.852C308.496 198.291 312.021 201.312 315.872 203.832C324.489 209.477 334.495 212.461 344.809 212.461C374.221 212.461 398.15 188.243 398.15 158.476C398.15 128.709 374.221 104.49 344.809 104.49V104.49Z" fill="#0060FF"/>
<path d="M344.808 206.958C335.498 206.958 326.434 204.351 318.595 199.418C314.551 196.876 310.898 193.759 307.739 190.154C299.879 181.191 295.551 169.683 295.551 157.753C295.551 144.609 300.675 132.251 309.978 122.957C319.282 113.663 331.651 108.545 344.808 108.545C357.966 108.545 370.336 113.663 379.64 122.957C388.944 132.251 394.068 144.608 394.068 157.753C394.068 170.897 388.944 183.253 379.64 192.546C370.336 201.84 357.966 206.958 344.808 206.958H344.808ZM344.808 110.266C318.598 110.266 297.273 131.568 297.273 157.753C297.273 169.266 301.45 180.371 309.035 189.02C312.084 192.5 315.609 195.508 319.513 197.962C327.077 202.722 335.823 205.238 344.808 205.238C371.02 205.238 392.345 183.936 392.345 157.753C392.345 131.57 371.02 110.266 344.808 110.266V110.266Z" fill="#0060FF"/>
<path d="M315.835 204.335L253.01 282.497C250.611 285.48 246.174 285.986 243.149 283.621C240.123 281.255 239.611 276.878 242.009 273.894L305.117 195.381C308.279 198.8 311.881 201.814 315.834 204.335H315.835Z" fill="white"/>
<path d="M246.849 286.558C245.149 286.558 243.437 286.006 242.005 284.867C238.629 282.182 238.06 277.243 240.736 273.858L303.911 193.934L304.588 194.678C307.681 198.079 311.199 201.068 315.043 203.561L315.834 204.074L252.98 283.595C251.439 285.542 249.155 286.558 246.849 286.558L246.849 286.558ZM304.008 196.572L242.076 274.923C239.986 277.568 240.43 281.425 243.067 283.523C245.703 285.618 249.549 285.172 251.64 282.529L313.329 204.483C309.944 202.204 306.815 199.548 304.008 196.572H304.008Z" fill="#0060FF"/>
<path d="M303.826 172.224L302.795 170.201L358.92 142.037C359.609 141.69 360.434 141.79 361.02 142.289L388.273 165.513L386.784 167.233L359.724 144.174L303.826 172.224Z" fill="#FE0000"/>
<path d="M410.881 188.144C410.437 188.144 409.992 187.991 409.634 187.682L398.414 177.959L399.912 176.209L410.863 185.699L459.094 137.49L460.712 139.129L412.23 187.588C411.86 187.958 411.371 188.144 410.881 188.144L410.881 188.144Z" fill="#FE0000"/>
<path d="M470.496 149.068C470.062 149.068 469.634 148.913 469.295 148.615L448.279 130.149C447.732 129.668 447.534 128.916 447.775 128.233C448.016 127.551 448.645 127.083 449.377 127.042L469.251 125.915C470.246 125.859 471.1 126.61 471.157 127.59L472.3 147.184C472.342 147.906 471.943 148.575 471.283 148.89C471.031 149.01 470.762 149.068 470.496 149.068L470.496 149.068ZM450.748 129.255L469.913 146.095L468.871 128.227L450.747 129.255H450.748Z" fill="#FE0000"/>
<path d="M86.2024 301.029C75.3833 301.029 65.2052 300.407 57.5425 299.277C53.78 298.722 50.8141 298.072 48.7271 297.345C47.0893 296.774 44.9121 295.817 44.9121 294.105V286.557H46.8116V294.09C46.8591 294.203 47.758 295.921 58.3836 297.426C65.8913 298.49 75.7708 299.076 86.2024 299.076C96.6339 299.076 106.513 298.49 114.021 297.426C124.647 295.921 125.546 294.203 125.593 294.089V286.557H127.493V294.105C127.493 295.817 125.315 296.774 123.678 297.345C121.591 298.072 118.625 298.722 114.862 299.277C107.2 300.407 97.0214 301.029 86.2024 301.029Z" fill="#0060FF"/>
<path d="M86.2024 295.24C75.3833 295.24 65.2052 294.618 57.5425 293.488C53.78 292.933 50.8141 292.283 48.7271 291.556C47.0893 290.985 44.9121 290.028 44.9121 288.315V280.768H46.8116V288.301C46.8591 288.414 47.758 290.131 58.3836 291.637C65.8913 292.701 75.7708 293.287 86.2024 293.287C96.6339 293.287 106.513 292.701 114.021 291.637C124.647 290.131 125.546 288.414 125.593 288.3V280.768H127.493V288.315C127.493 290.028 125.315 290.985 123.678 291.556C121.591 292.283 118.625 292.933 114.862 293.488C107.2 294.618 97.0214 295.24 86.2024 295.24Z" fill="#0060FF"/>
<path d="M86.2024 286.557C75.3833 286.557 65.2052 285.934 57.5425 284.804C53.78 284.25 50.8141 283.6 48.7271 282.872C47.0893 282.301 44.9121 281.344 44.9121 279.632V272.084H46.8116V279.617C46.8591 279.73 47.758 281.448 58.3836 282.954C65.8913 284.017 75.7708 284.603 86.2024 284.603C96.6339 284.603 106.513 284.017 114.021 282.954C124.647 281.448 125.546 279.73 125.593 279.617V272.084H127.493V279.632C127.493 281.344 125.315 282.301 123.678 282.872C121.591 283.6 118.625 284.25 114.862 284.804C107.2 285.934 97.0214 286.557 86.2024 286.557Z" fill="#0060FF"/>
<path d="M86.2024 280.767C75.3833 280.767 65.2052 280.145 57.5425 279.015C53.78 278.461 50.8141 277.811 48.7271 277.083C47.0893 276.512 44.9121 275.555 44.9121 273.843V266.295H46.8116V273.828C46.8591 273.941 47.758 275.659 58.3836 277.164C65.8913 278.228 75.7708 278.814 86.2024 278.814C96.6339 278.814 106.513 278.228 114.021 277.164C124.647 275.659 125.546 273.941 125.593 273.828V266.295H127.493V273.843C127.493 275.555 125.315 276.512 123.678 277.083C121.591 277.811 118.625 278.461 114.862 279.015C107.2 280.145 97.0214 280.767 86.2024 280.767Z" fill="#0060FF"/>
<path d="M86.2024 272.084C75.3833 272.084 65.2052 271.499 57.5425 270.436C53.78 269.914 50.8141 269.303 48.7271 268.618C47.0893 268.082 44.9121 267.182 44.9121 265.571C44.9121 263.961 47.0893 263.061 48.7271 262.524C50.8141 261.84 53.78 261.228 57.5425 260.706C65.2052 259.644 75.3833 259.059 86.2024 259.059C97.0214 259.059 107.2 259.644 114.862 260.706C118.625 261.228 121.591 261.84 123.678 262.524C125.315 263.061 127.493 263.961 127.493 265.571C127.493 267.182 125.315 268.082 123.678 268.619C121.591 269.303 118.625 269.914 114.862 270.436C107.2 271.499 97.0214 272.084 86.2024 272.084ZM46.8186 265.571C46.9229 265.762 48.0818 267.323 58.3836 268.696C65.8913 269.696 75.7708 270.247 86.2024 270.247C96.6339 270.247 106.513 269.696 114.021 268.696C124.323 267.323 125.482 265.762 125.586 265.571C125.482 265.38 124.323 263.82 114.021 262.447C106.513 261.447 96.6337 260.896 86.2024 260.896C75.771 260.896 65.8913 261.447 58.3836 262.447C48.0818 263.82 46.9229 265.38 46.8186 265.571Z" fill="#0060FF"/>
<path d="M183.271 338.658C168.971 338.658 155.52 337.837 145.396 336.347C140.436 335.616 136.53 334.762 133.786 333.807C130.481 332.656 128.941 331.388 128.941 329.816V319.844H130.858V329.816C130.858 330.484 133.518 332.61 145.667 334.399C155.704 335.877 169.059 336.691 183.271 336.691C197.483 336.691 210.837 335.877 220.874 334.399C233.023 332.61 235.684 330.485 235.684 329.816V319.844H237.6V329.816C237.6 331.388 236.061 332.656 232.755 333.807C230.011 334.762 226.105 335.616 221.146 336.347C211.022 337.837 197.571 338.658 183.271 338.658Z" fill="#0060FF"/>
<path d="M183.271 329.975C168.971 329.975 155.52 329.153 145.396 327.663C140.436 326.933 136.53 326.078 133.786 325.123C130.481 323.972 128.941 322.704 128.941 321.132V311.16H130.858V321.132C130.858 321.801 133.518 323.927 145.667 325.715C155.704 327.193 169.059 328.007 183.271 328.007C197.483 328.007 210.837 327.193 220.874 325.715C233.023 323.927 235.684 321.801 235.684 321.132V311.16H237.6V321.132C237.6 322.704 236.061 323.972 232.755 325.123C230.012 326.078 226.105 326.933 221.146 327.663C211.022 329.153 197.571 329.975 183.271 329.975Z" fill="#0060FF"/>
<path d="M183.271 319.844C168.971 319.844 155.52 319.023 145.396 317.532C140.436 316.802 136.53 315.947 133.786 314.992C130.481 313.841 128.941 312.573 128.941 311.002V301.029H130.858V311.002C130.858 311.67 133.518 313.796 145.667 315.585C155.704 317.062 169.059 317.876 183.271 317.876C197.483 317.876 210.837 317.062 220.874 315.585C233.023 313.796 235.684 311.67 235.684 311.002V301.029H237.6V311.002C237.6 312.573 236.061 313.842 232.755 314.992C230.012 315.947 226.105 316.802 221.146 317.532C211.022 319.023 197.571 319.844 183.271 319.844Z" fill="#0060FF"/>
<path d="M183.271 309.713C168.971 309.713 155.52 308.892 145.396 307.401C140.436 306.671 136.53 305.816 133.786 304.861C130.481 303.71 128.941 302.442 128.941 300.871V290.898H130.858V300.871C130.858 301.539 133.518 303.665 145.667 305.454C155.704 306.932 169.059 307.745 183.271 307.745C197.483 307.745 210.837 306.931 220.874 305.454C233.023 303.665 235.684 301.539 235.684 300.871V290.898H237.6V300.871C237.6 302.442 236.061 303.711 232.755 304.861C230.012 305.816 226.105 306.671 221.146 307.401C211.022 308.892 197.571 309.713 183.271 309.713Z" fill="#0060FF"/>
<path d="M183.271 299.582C168.971 299.582 155.52 298.776 145.396 297.312C140.436 296.595 136.53 295.755 133.786 294.817C130.481 293.687 128.941 292.442 128.941 290.898C128.941 289.355 130.481 288.109 133.786 286.98C136.53 286.042 140.436 285.202 145.396 284.485C155.52 283.021 168.971 282.215 183.271 282.215C197.571 282.215 211.022 283.021 221.146 284.485C226.105 285.202 230.012 286.042 232.755 286.98C236.061 288.11 237.6 289.355 237.6 290.898C237.6 292.442 236.061 293.687 232.755 294.817C230.012 295.755 226.105 296.595 221.146 297.312C211.022 298.776 197.571 299.582 183.271 299.582ZM183.271 284.147C169.059 284.147 155.704 284.946 145.667 286.397C133.518 288.154 130.858 290.242 130.858 290.898C130.858 291.555 133.518 293.642 145.667 295.399C155.704 296.85 169.059 297.65 183.271 297.65C197.483 297.65 210.837 296.85 220.874 295.399C233.023 293.642 235.684 291.555 235.684 290.898C235.684 290.242 233.023 288.154 220.874 286.397C210.837 284.946 197.483 284.147 183.271 284.147Z" fill="#0060FF"/>
<path d="M76.7166 150.17C76.9441 150.89 76.5882 151.667 75.9259 151.897C75.2636 152.128 74.5358 151.729 74.3084 151.009L71.0589 140.73C70.8315 140.011 71.1874 139.234 71.8497 139.003C72.512 138.772 73.2398 139.172 73.4672 139.891L76.7166 150.17Z" fill="#FE0000"/>
<path d="M61.7182 158.338C62.3364 158.766 62.4831 159.577 62.0442 160.14C61.6053 160.703 60.7402 160.814 60.122 160.386L51.2861 154.271C50.6679 153.843 50.5212 153.033 50.9601 152.47C51.399 151.906 52.2641 151.796 52.8823 152.223L61.7182 158.338Z" fill="#FE0000"/>
<path d="M55.065 175.123C55.7919 175.071 56.4362 175.508 56.4973 176.094C56.5583 176.681 56.0135 177.204 55.2867 177.257L44.8998 178.009C44.173 178.062 43.5286 177.625 43.4676 177.038C43.4065 176.452 43.9513 175.929 44.6781 175.876L55.065 175.123Z" fill="#FE0000"/>
<path d="M340.462 31.8398C338.864 31.8398 337.564 30.5414 337.564 28.9452C337.564 27.3491 338.864 26.0508 340.462 26.0508C342.06 26.0508 343.36 27.3492 343.36 28.9452C343.36 30.5412 342.06 31.8398 340.462 31.8398ZM340.462 26.7455C339.248 26.7455 338.26 27.7324 338.26 28.9452C338.26 30.158 339.248 31.1451 340.462 31.1451C341.676 31.1451 342.664 30.1582 342.664 28.9452C342.664 27.7322 341.676 26.7455 340.462 26.7455Z" fill="#FE0000"/>
<path d="M533.151 230.113C531.554 230.113 530.254 228.815 530.254 227.219C530.254 225.623 531.554 224.324 533.151 224.324C534.749 224.324 536.049 225.623 536.049 227.219C536.049 228.815 534.749 230.113 533.151 230.113ZM533.151 225.019C531.937 225.019 530.949 226.006 530.949 227.219C530.949 228.432 531.937 229.418 533.151 229.418C534.366 229.418 535.354 228.432 535.354 227.219C535.354 226.006 534.366 225.019 533.151 225.019Z" fill="#FE0000"/>
<path d="M70.9894 250.375C69.3918 250.375 68.0918 249.077 68.0918 247.481C68.0918 245.885 69.3916 244.586 70.9894 244.586C72.5873 244.586 73.8869 245.885 73.8869 247.481C73.8869 249.077 72.5871 250.375 70.9894 250.375ZM70.9894 245.281C69.7752 245.281 68.7873 246.268 68.7873 247.481C68.7873 248.694 69.7752 249.68 70.9894 249.68C72.2037 249.68 73.1915 248.693 73.1915 247.481C73.1915 246.268 72.2036 245.281 70.9894 245.281Z" fill="#FE0000"/>
<path d="M532.422 246.697C532.822 243.882 533.477 243.882 533.877 246.697C534.277 249.513 536.911 252.143 539.729 252.543C542.547 252.942 542.547 253.596 539.729 253.996C536.911 254.396 534.277 257.026 533.877 259.842C533.477 262.657 532.822 262.657 532.422 259.842C532.022 257.026 529.389 254.396 526.571 253.996C523.752 253.596 523.752 252.942 526.571 252.543C529.389 252.143 532.022 249.513 532.422 246.697Z" fill="#FE0000"/>
<path d="M86.1995 81.711C86.5997 78.8958 87.2544 78.8958 87.6546 81.711C88.0548 84.5263 90.6879 87.1566 93.5061 87.5564C96.3243 87.9561 96.3243 88.6102 93.5061 89.0099C90.6879 89.4097 88.0548 92.0401 87.6546 94.8553C87.2544 97.6705 86.5997 97.6705 86.1995 94.8553C85.7994 92.0401 83.1662 89.4097 80.348 89.0099C77.5298 88.6102 77.5298 87.9561 80.348 87.5564C83.1662 87.1566 85.7994 84.5263 86.1995 81.711Z" fill="#FE0000"/>
<path d="M594 340.105H0V343H594V340.105Z" fill="#0060FF"/>
</g>
<defs>
<clipPath id="clip0_263_744">
<rect width="594" height="343" fill="white"/>
</clipPath>
</defs>
</svg>
