<svg width="98" height="19" viewBox="0 0 98 19" fill="none" xmlns="http://www.w3.org/2000/svg">
<g id="Cash money">
<path d="M6.72879 13.8515C5.89041 13.8515 5.10221 13.6847 4.36419 13.351C3.62618 13.0114 2.97673 12.5437 2.41583 11.9478C1.86085 11.352 1.42394 10.6638 1.10512 9.88327C0.792201 9.09677 0.635742 8.25664 0.635742 7.36289C0.635742 6.46318 0.792201 5.62306 1.10512 4.84252C1.42394 4.05602 1.86085 3.36783 2.41583 2.77795C2.97673 2.18212 3.62618 1.71737 4.36419 1.3837C5.10221 1.04408 5.89041 0.874266 6.72879 0.874266C7.73249 0.874266 8.65649 1.10962 9.50078 1.58033C10.3451 2.04508 11.0447 2.66773 11.5997 3.44827L9.66904 4.49395C9.3207 4.05899 8.88675 3.71043 8.36719 3.44827C7.85353 3.1861 7.3074 3.05502 6.72879 3.05502C6.18561 3.05502 5.67491 3.16822 5.19667 3.39464C4.71844 3.6151 4.29925 3.92493 3.9391 4.32414C3.57895 4.71739 3.2985 5.17618 3.09776 5.70052C2.89702 6.21889 2.79665 6.77302 2.79665 7.36289C2.79665 7.95872 2.89702 8.51583 3.09776 9.0342C3.3044 9.55258 3.5878 10.0114 3.94795 10.4106C4.3081 10.8038 4.72434 11.1137 5.19667 11.3401C5.67491 11.5605 6.18561 11.6708 6.72879 11.6708C7.3192 11.6708 7.86829 11.5397 8.37604 11.2775C8.8897 11.0094 9.3207 10.6578 9.66904 10.2229L11.5997 11.2775C11.0447 12.0521 10.3451 12.6747 9.50078 13.1455C8.65649 13.6162 7.73249 13.8515 6.72879 13.8515Z" fill="#01213A"/>
<path d="M19.4815 4.68164H21.6425V13.6191H19.4815L19.3841 12.5109C19.1421 12.9101 18.8203 13.2348 18.4188 13.4851C18.0232 13.7294 17.5539 13.8515 17.0107 13.8515C16.3553 13.8515 15.7413 13.7264 15.1686 13.4761C14.5959 13.2259 14.0911 12.8803 13.6542 12.4394C13.2232 11.9985 12.8837 11.489 12.6357 10.9111C12.3937 10.3331 12.2726 9.71345 12.2726 9.05208C12.2726 8.41454 12.3878 7.81572 12.618 7.25564C12.8542 6.69556 13.1819 6.204 13.601 5.78095C14.0202 5.35791 14.5044 5.02722 15.0535 4.78889C15.6025 4.55056 16.193 4.43139 16.8247 4.43139C17.4092 4.43139 17.9317 4.56247 18.3922 4.82464C18.8587 5.08681 19.2542 5.42047 19.579 5.82564L19.4815 4.68164ZM16.9575 11.7512C17.4181 11.7512 17.8254 11.635 18.1797 11.4026C18.5339 11.1703 18.8114 10.8575 19.0122 10.4642C19.2129 10.065 19.3133 9.62706 19.3133 9.15039C19.3133 8.66777 19.2129 8.22983 19.0122 7.83658C18.8114 7.43737 18.531 7.12158 18.1708 6.8892C17.8166 6.65683 17.4122 6.54064 16.9575 6.54064C16.5029 6.54064 16.0867 6.65981 15.7088 6.89814C15.3369 7.13052 15.0387 7.44333 14.8143 7.83658C14.5959 8.22983 14.4867 8.66777 14.4867 9.15039C14.4867 9.63302 14.5988 10.071 14.8232 10.4642C15.0476 10.8575 15.3457 11.1703 15.7177 11.4026C16.0955 11.635 16.5088 11.7512 16.9575 11.7512Z" fill="#01213A"/>
<path d="M26.0198 13.78C25.5592 13.7502 25.1135 13.6579 24.6825 13.503C24.2574 13.3421 23.8795 13.1246 23.5489 12.8505C23.2183 12.5764 22.9644 12.2487 22.7873 11.8674L24.6116 11.0809C24.6825 11.2001 24.7976 11.3282 24.957 11.4652C25.1164 11.5963 25.3054 11.7065 25.5238 11.7959C25.7482 11.8853 25.9932 11.93 26.2589 11.93C26.4832 11.93 26.6958 11.9002 26.8965 11.8406C27.1032 11.775 27.2685 11.6767 27.3925 11.5456C27.5224 11.4146 27.5873 11.2447 27.5873 11.0362C27.5873 10.8157 27.5106 10.6459 27.357 10.5268C27.2094 10.4016 27.0205 10.3093 26.7902 10.2497C26.5659 10.1842 26.3474 10.1246 26.1349 10.071C25.574 9.95775 25.0515 9.78197 24.5673 9.54364C24.0891 9.30531 23.7024 8.99845 23.4072 8.62308C23.1179 8.24174 22.9732 7.78295 22.9732 7.2467C22.9732 6.65683 23.1267 6.14739 23.4338 5.71839C23.7467 5.28939 24.1511 4.9587 24.6471 4.72633C25.1489 4.49395 25.6891 4.37777 26.2677 4.37777C26.9703 4.37777 27.6139 4.52672 28.1984 4.82464C28.7888 5.1166 29.2552 5.5307 29.5977 6.06695L27.8884 7.08583C27.8058 6.94283 27.6906 6.81175 27.543 6.69258C27.3954 6.56745 27.2272 6.46616 27.0382 6.3887C26.8493 6.30529 26.6515 6.25762 26.4449 6.2457C26.1792 6.23379 25.9371 6.25762 25.7187 6.3172C25.5002 6.37679 25.3231 6.47808 25.1873 6.62108C25.0574 6.76408 24.9924 6.95475 24.9924 7.19308C24.9924 7.4195 25.081 7.58931 25.2581 7.70252C25.4353 7.80977 25.6478 7.89318 25.8958 7.95277C26.1497 8.01235 26.3917 8.07789 26.622 8.14939C27.1415 8.32218 27.6286 8.5337 28.0833 8.78395C28.5438 9.0342 28.9128 9.34106 29.1903 9.70452C29.4678 10.068 29.6006 10.5029 29.5888 11.0094C29.5888 11.5873 29.4176 12.0938 29.0751 12.5288C28.7327 12.9578 28.2899 13.2855 27.7467 13.5119C27.2094 13.7383 26.6338 13.8277 26.0198 13.78Z" fill="#01213A"/>
<path d="M39.2167 7.97064V13.6191H37.0558V8.54264C37.0558 8.1911 36.9702 7.87233 36.799 7.58633C36.6278 7.29437 36.3975 7.06497 36.1082 6.89814C35.8248 6.72535 35.5089 6.63895 35.1606 6.63895C34.8122 6.63895 34.4934 6.72535 34.2041 6.89814C33.9207 7.06497 33.6934 7.29437 33.5222 7.58633C33.3569 7.87233 33.2742 8.1911 33.2742 8.54264V13.6191H31.1133L31.1045 0.212891H33.2654L33.2742 5.47708C33.5753 5.15533 33.9355 4.9021 34.3547 4.71739C34.7739 4.52672 35.2255 4.43139 35.7097 4.43139C36.3532 4.43139 36.9407 4.59227 37.472 4.91402C38.0034 5.22981 38.4256 5.65583 38.7385 6.19208C39.0573 6.72237 39.2167 7.31522 39.2167 7.97064Z" fill="#01213A"/>
<path d="M45.2363 13.6191L47.6452 1.10664H49.4341L52.4541 9.12358L55.474 1.10664H57.263L59.6718 13.6191H57.4667L55.9788 5.87927L53.1891 13.3331H51.7101L48.9204 5.87927L47.4415 13.6191H45.2363Z" fill="#01213A"/>
<path d="M64.7524 13.8515C63.9376 13.8515 63.1937 13.64 62.5206 13.217C61.8535 12.7939 61.3191 12.2279 60.9177 11.5188C60.5221 10.8038 60.3243 10.0143 60.3243 9.15039C60.3243 8.49497 60.4394 7.88424 60.6697 7.3182C60.9 6.7462 61.2158 6.2457 61.6173 5.8167C62.0247 5.38175 62.497 5.04212 63.0343 4.79783C63.5716 4.55354 64.1443 4.43139 64.7524 4.43139C65.5672 4.43139 66.3081 4.64291 66.9753 5.06595C67.6484 5.489 68.1827 6.05802 68.5783 6.77302C68.9797 7.48802 69.1805 8.28047 69.1805 9.15039C69.1805 9.79985 69.0653 10.4076 68.8351 10.9736C68.6048 11.5397 68.286 12.0402 67.8786 12.4751C67.4771 12.9041 67.0078 13.2408 66.4705 13.4851C65.9391 13.7294 65.3664 13.8515 64.7524 13.8515ZM64.7524 11.6708C65.1834 11.6708 65.5701 11.5546 65.9126 11.3222C66.255 11.0898 66.5236 10.783 66.7185 10.4016C66.9192 10.0203 67.0196 9.60322 67.0196 9.15039C67.0196 8.68564 66.9162 8.2626 66.7096 7.88127C66.5089 7.49397 66.2343 7.18712 65.886 6.9607C65.5435 6.72833 65.1657 6.61214 64.7524 6.61214C64.3273 6.61214 63.9435 6.72833 63.6011 6.9607C63.2586 7.19308 62.9871 7.50291 62.7863 7.8902C62.5856 8.27749 62.4852 8.69756 62.4852 9.15039C62.4852 9.6211 62.5885 10.0471 62.7952 10.4285C63.0018 10.8098 63.2764 11.1137 63.6188 11.3401C63.9671 11.5605 64.345 11.6708 64.7524 11.6708Z" fill="#01213A"/>
<path d="M78.6717 7.97064V13.6191H76.5108V8.54264C76.5108 8.1911 76.4252 7.87233 76.2539 7.58633C76.0827 7.29437 75.8525 7.06497 75.5632 6.89814C75.2798 6.72535 74.9639 6.63895 74.6155 6.63895C74.2672 6.63895 73.9484 6.72535 73.6591 6.89814C73.3757 7.06497 73.1484 7.29437 72.9771 7.58633C72.8118 7.87233 72.7292 8.1911 72.7292 8.54264V13.6191H70.5683L70.5594 4.68164H72.7203L72.7292 5.47708C73.0303 5.15533 73.3904 4.9021 73.8096 4.71739C74.2288 4.52672 74.6805 4.43139 75.1646 4.43139C75.8082 4.43139 76.3956 4.59227 76.927 4.91402C77.4584 5.22981 77.8805 5.65583 78.1934 6.19208C78.5123 6.72237 78.6717 7.31522 78.6717 7.97064Z" fill="#01213A"/>
<path d="M84.1599 13.8515C83.3451 13.8515 82.6012 13.64 81.9281 13.217C81.2609 12.7939 80.7266 12.2249 80.3251 11.5099C79.9296 10.7949 79.7318 10.0054 79.7318 9.14145C79.7318 8.492 79.8469 7.88424 80.0772 7.3182C80.3074 6.7462 80.6233 6.2457 81.0248 5.8167C81.4322 5.38175 81.9045 5.04212 82.4418 4.79783C82.979 4.55354 83.5518 4.43139 84.1599 4.43139C84.8507 4.43139 85.4824 4.58035 86.0551 4.87827C86.6337 5.17022 87.1237 5.57241 87.5252 6.08483C87.9267 6.59725 88.219 7.18116 88.402 7.83658C88.585 8.49199 88.6263 9.1772 88.526 9.8922H82.0521C82.1348 10.2259 82.2706 10.5268 82.4595 10.7949C82.6484 11.0571 82.8875 11.2686 83.1768 11.4295C83.4661 11.5844 83.7938 11.6648 84.1599 11.6708C84.5377 11.6767 84.8802 11.5873 85.1872 11.4026C85.5001 11.212 85.7599 10.9558 85.9665 10.634L88.1717 11.1524C87.8116 11.9448 87.2743 12.5943 86.5599 13.1008C85.8455 13.6013 85.0455 13.8515 84.1599 13.8515ZM81.9813 8.25664H86.3385C86.2735 7.89914 86.1348 7.57739 85.9223 7.29139C85.7156 6.99943 85.4588 6.76706 85.1518 6.59427C84.8448 6.42147 84.5141 6.33508 84.1599 6.33508C83.8056 6.33508 83.4779 6.42147 83.1768 6.59427C82.8757 6.7611 82.6189 6.9905 82.4063 7.28245C82.1997 7.56845 82.058 7.89318 81.9813 8.25664Z" fill="#01213A"/>
<path d="M95.4887 4.68164H97.7825L92.9381 18.0879H90.6444L92.2474 13.6191L89.0591 4.68164H91.4237L93.3278 10.634L95.4887 4.68164Z" fill="#01213A"/>
</g>
</svg>
