<svg width="481" height="319" viewBox="0 0 481 319" fill="none" xmlns="http://www.w3.org/2000/svg">
<g clip-path="url(#clip0_61_4806)">
<path d="M481 316.637H0V319H481V316.637Z" fill="#0060FF"/>
<path d="M351.115 33.082H86.4771C75.6935 33.082 66.8706 41.9998 66.8706 52.8993V262.557C66.8706 273.457 75.6935 282.375 86.4771 282.375H351.115C361.899 282.375 370.722 273.457 370.722 262.557V52.8995C370.722 42 361.899 33.0822 351.115 33.0822L351.115 33.082ZM361.345 254.044C361.345 264.943 352.522 273.861 341.738 273.861H94.4223C83.6388 273.861 74.8159 264.943 74.8159 254.044V61.1709C74.8159 50.2714 83.6388 41.3536 94.4223 41.3536H341.738C352.522 41.3536 361.345 50.2714 361.345 61.1709V254.044V254.044Z" fill="white"/>
<path d="M350.317 282.374H86.1029C74.8515 282.374 65.6975 273.126 65.6975 261.758V52.517C65.6975 41.149 74.8513 31.9004 86.1029 31.9004H350.317C361.568 31.9004 370.722 41.149 370.722 52.517V261.758C370.722 273.126 361.568 282.374 350.317 282.374ZM86.1029 33.5781C75.7669 33.5781 67.358 42.0741 67.358 52.517V261.758C67.358 272.201 75.7669 280.697 86.1029 280.697H350.317C360.653 280.697 369.061 272.201 369.061 261.758V52.517C369.061 42.0739 360.653 33.5781 350.317 33.5781H86.1029ZM340.955 273.878H94.0354C82.784 273.878 73.6302 264.629 73.6302 253.261V60.7718C73.6302 49.4038 82.784 40.1552 94.0354 40.1552H340.955C352.206 40.1552 361.36 49.4038 361.36 60.7718V253.261C361.36 264.629 352.206 273.878 340.955 273.878ZM94.0354 41.8328C83.6995 41.8328 75.2907 50.3289 75.2907 60.7718V253.261C75.2907 263.704 83.6995 272.2 94.0354 272.2H340.955C351.291 272.2 359.7 263.704 359.7 253.261V60.7718C359.7 50.3287 351.291 41.8328 340.955 41.8328H94.0354Z" fill="#0060FF"/>
<path d="M341.749 41.3516H94.6704C83.8524 41.3516 75.0828 50.1883 75.0828 61.0889V253.185C75.0828 264.085 83.8524 272.922 94.6704 272.922H341.749C352.567 272.922 361.336 264.085 361.336 253.185V61.0889C361.336 50.1883 352.567 41.3516 341.749 41.3516Z" fill="white"/>
<path d="M340.953 272.922H94.2934C83.0538 272.922 73.9097 263.711 73.9097 252.39V60.7009C73.9097 49.3801 83.0538 40.1699 94.2934 40.1699H340.953C352.192 40.1699 361.336 49.3801 361.336 60.7009V252.391C361.336 263.712 352.192 272.922 340.953 272.922V272.922ZM94.2934 41.8406C83.9684 41.8406 75.5684 50.3014 75.5684 60.7009V252.391C75.5684 262.79 83.9684 271.251 94.2934 271.251H340.953C351.278 271.251 359.678 262.79 359.678 252.391V60.7009C359.678 50.3012 351.278 41.8406 340.953 41.8406H94.2934Z" fill="#0060FF"/>
<path d="M341.749 41.3516H94.6704C83.8524 41.3516 75.0828 50.1883 75.0828 61.0889V253.185C75.0828 264.085 83.8524 272.922 94.6704 272.922H341.749C352.567 272.922 361.336 264.085 361.336 253.185V61.0889C361.336 50.1883 352.567 41.3516 341.749 41.3516Z" fill="white"/>
<path d="M340.953 272.922H94.2934C83.0538 272.922 73.9097 263.711 73.9097 252.39V60.7009C73.9097 49.3801 83.0538 40.1699 94.2934 40.1699H340.953C352.192 40.1699 361.336 49.3801 361.336 60.7009V252.391C361.336 263.712 352.192 272.922 340.953 272.922V272.922ZM94.2934 41.8406C83.9684 41.8406 75.5684 50.3014 75.5684 60.7009V252.391C75.5684 262.79 83.9684 271.251 94.2934 271.251H340.953C351.278 271.251 359.678 262.79 359.678 252.391V60.7009C359.678 50.3012 351.278 41.8406 340.953 41.8406H94.2934Z" fill="#0060FF"/>
<path d="M232.127 62.6191H97.534C95.5013 62.6191 93.8535 64.2881 93.8535 66.3468V102.606C93.8535 104.665 95.5013 106.334 97.534 106.334H232.127C234.159 106.334 235.807 104.665 235.807 102.606V66.3468C235.807 64.2881 234.159 62.6191 232.127 62.6191Z" fill="white"/>
<path d="M231.306 106.334H97.1817C94.6997 106.334 92.6804 104.305 92.6804 101.811V65.9607C92.6804 63.4666 94.6997 61.4375 97.1817 61.4375H231.306C233.788 61.4375 235.807 63.4666 235.807 65.9607V101.811C235.807 104.305 233.788 106.334 231.306 106.334H231.306ZM97.1817 63.1128C95.6189 63.1128 94.3476 64.3903 94.3476 65.9607V101.811C94.3476 103.381 95.6189 104.659 97.1817 104.659H231.306C232.869 104.659 234.14 103.381 234.14 101.811V65.9607C234.14 64.3903 232.869 63.1128 231.306 63.1128H97.1817Z" fill="#0060FF"/>
<path d="M232.642 119.33H162.716C161.616 119.33 160.724 120.279 160.724 121.45V136.114C160.724 137.285 161.616 138.234 162.716 138.234H232.642C233.742 138.234 234.634 137.285 234.634 136.114V121.45C234.634 120.279 233.742 119.33 232.642 119.33Z" fill="white"/>
<path d="M231.831 138.234H162.355C160.809 138.234 159.551 136.925 159.551 135.316V121.066C159.551 119.457 160.809 118.148 162.355 118.148H231.831C233.377 118.148 234.634 119.457 234.634 121.066V135.316C234.634 136.925 233.377 138.234 231.831 138.234ZM162.355 119.865C161.718 119.865 161.2 120.404 161.2 121.066V135.316C161.2 135.978 161.718 136.517 162.355 136.517H231.831C232.467 136.517 232.985 135.978 232.985 135.316V121.066C232.985 120.404 232.467 119.865 231.831 119.865H162.355Z" fill="#0060FF"/>
<path d="M260.444 281.193V301.982C260.444 303.544 258.597 304.823 256.34 304.823H168.348C166.091 304.823 164.244 303.544 164.244 301.982V281.193H260.444Z" fill="white"/>
<path d="M255.534 304.823H167.981C165.228 304.823 163.071 303.228 163.071 301.193V280.012H260.444V301.193C260.444 303.228 258.287 304.823 255.534 304.823ZM164.724 281.715V301.192C164.724 302.104 166.061 303.12 167.981 303.12H255.534C257.453 303.12 258.791 302.104 258.791 301.192V281.715H164.724H164.724Z" fill="#0060FF"/>
<path d="M144.649 119.33H95.8505C94.7476 119.33 93.8535 120.279 93.8535 121.45V136.114C93.8535 137.285 94.7476 138.234 95.8505 138.234H144.649C145.752 138.234 146.646 137.285 146.646 136.114V121.45C146.646 120.279 145.752 119.33 144.649 119.33Z" fill="white"/>
<path d="M143.843 138.234H95.4839C93.938 138.234 92.6804 136.925 92.6804 135.316V121.066C92.6804 119.457 93.938 118.148 95.4839 118.148H143.843C145.389 118.148 146.646 119.457 146.646 121.066V135.316C146.646 136.925 145.389 138.234 143.843 138.234ZM95.4839 119.865C94.8474 119.865 94.3295 120.404 94.3295 121.066V135.316C94.3295 135.978 94.8474 136.517 95.4839 136.517H143.843C144.479 136.517 144.997 135.978 144.997 135.316V121.066C144.997 120.404 144.479 119.865 143.843 119.865H95.4839Z" fill="#0060FF"/>
<path d="M128.598 90.181C128.598 89.2275 128.273 88.4243 127.622 87.7713C126.972 87.1184 125.876 86.5275 124.333 85.9991C122.186 85.3255 120.621 84.447 119.638 83.3641C118.656 82.2811 118.164 80.9054 118.164 79.2366C118.164 77.5371 118.645 76.143 119.608 75.0547C120.571 73.9665 121.894 73.319 123.578 73.1116V69.707H125.831V73.1272C127.524 73.3657 128.842 74.0963 129.785 75.3191C130.727 76.5421 131.199 78.216 131.199 80.3405H128.416C128.416 78.8746 128.078 77.7101 127.403 76.847C126.728 75.9841 125.815 75.5524 124.666 75.5524C123.466 75.5524 122.549 75.8718 121.914 76.5101C121.279 77.1487 120.962 78.0388 120.962 79.181C120.962 80.2401 121.296 81.0837 121.967 81.7119C122.637 82.34 123.741 82.911 125.279 83.425C126.816 83.939 128.016 84.5042 128.878 85.1206C129.739 85.7374 130.374 86.4552 130.783 87.2738C131.191 88.0925 131.395 89.0514 131.395 90.1497C131.395 91.9013 130.883 93.3109 129.86 94.3782C128.837 95.4457 127.403 96.0777 125.558 96.2748V99.2441H123.32V96.2748C121.445 96.0983 119.976 95.412 118.913 94.215C117.849 93.0179 117.317 91.3936 117.317 89.3413H120.115C120.115 90.7819 120.482 91.8909 121.218 92.6681C121.954 93.4453 122.997 93.8341 124.349 93.8341C125.669 93.8341 126.707 93.5078 127.464 92.8548C128.219 92.2019 128.598 91.3105 128.598 90.181Z" fill="#FE0000"/>
<path d="M208.876 231.571C208.463 231.571 208.048 231.452 207.683 231.205L141.661 186.464L124.94 198.823L123.183 196.385L140.371 183.68C141.098 183.143 142.089 183.122 142.837 183.629L208.7 228.261L293.287 118.148L295.639 120.002L210.579 230.732C210.159 231.28 209.521 231.57 208.876 231.57V231.571Z" fill="#0060FF"/>
<path d="M311.925 133.507C311.45 133.507 310.975 133.368 310.558 133.09L274.467 108.951C273.625 108.388 273.204 107.374 273.394 106.368C273.584 105.362 274.345 104.579 275.333 104.373L305.262 98.1151C305.912 97.9792 306.575 98.1085 307.13 98.4793C307.684 98.85 308.063 99.4176 308.197 100.078L314.358 130.474C314.561 131.477 314.153 132.496 313.319 133.071C312.897 133.361 312.411 133.507 311.925 133.507V133.507ZM277.116 107.094L311.192 129.884L305.374 101.186L277.116 107.094Z" fill="#0060FF"/>
<path d="M410.61 195.958C410.61 196.7 410.011 197.307 409.279 197.307H332.164C331.433 197.307 330.834 196.7 330.834 195.958V131.819C330.834 131.447 331.132 131.145 331.499 131.145H409.279C410.011 131.145 410.61 131.752 410.61 132.494V195.958Z" fill="white"/>
<path d="M408.618 197.307H331.653C330.554 197.307 329.661 196.401 329.661 195.288V131.309C329.661 130.567 330.257 129.963 330.989 129.963H408.618C409.716 129.963 410.61 130.869 410.61 131.982V195.288C410.61 196.401 409.716 197.307 408.618 197.307ZM330.989 131.309V195.288C330.989 195.659 331.287 195.961 331.653 195.961H408.618C408.984 195.961 409.282 195.659 409.282 195.288V131.982C409.282 131.611 408.984 131.309 408.618 131.309H330.989Z" fill="#FE0000"/>
<path d="M403.405 191.401H338.039C337.301 191.401 336.7 190.798 336.7 190.056V148.109C336.7 147.739 336.854 147.391 337.123 147.154C337.391 146.917 337.755 146.809 338.12 146.857C338.121 146.857 338.376 146.889 338.809 146.889C343.027 146.889 346.458 143.444 346.458 139.21C346.458 138.763 346.422 138.483 346.422 138.48C346.373 138.115 346.479 137.749 346.715 137.479C346.95 137.208 347.297 137.053 347.666 137.053H393.618C393.987 137.053 394.334 137.208 394.569 137.479C394.805 137.749 394.911 138.115 394.862 138.482C394.862 138.483 394.826 138.762 394.826 139.21C394.826 143.444 398.257 146.889 402.475 146.889C402.954 146.889 403.304 146.839 403.315 146.838C403.68 146.784 404.046 146.888 404.317 147.123C404.588 147.358 404.744 147.706 404.744 148.078V190.056C404.744 190.798 404.143 191.401 403.405 191.401H403.405ZM338.039 148.2V190.056H403.405V148.182C403.241 148.201 402.9 148.233 402.475 148.233C397.519 148.233 393.487 144.185 393.487 139.21C393.487 138.825 393.51 138.538 393.524 138.397H347.761C347.775 138.538 347.798 138.825 347.798 139.21C347.798 144.185 343.765 148.233 338.809 148.233C338.436 148.233 338.171 148.213 338.039 148.2H338.039Z" fill="#FE0000"/>
<path d="M430.396 150.049H353.282C352.547 150.049 351.951 150.653 351.951 151.399V214.862C351.951 215.607 352.547 216.212 353.282 216.212H430.396C431.131 216.212 431.727 215.607 431.727 214.862V151.399C431.727 150.653 431.131 150.049 430.396 150.049Z" fill="white"/>
<path d="M429.735 216.212H352.77C351.672 216.212 350.778 215.306 350.778 214.192V150.887C350.778 149.773 351.672 148.867 352.77 148.867H429.735C430.833 148.867 431.727 149.773 431.727 150.887V214.192C431.727 215.306 430.833 216.212 429.735 216.212ZM352.77 150.214C352.404 150.214 352.106 150.515 352.106 150.887V214.192C352.106 214.563 352.404 214.865 352.77 214.865H429.735C430.101 214.865 430.399 214.563 430.399 214.192V150.887C430.399 150.515 430.101 150.214 429.735 150.214H352.77Z" fill="#FE0000"/>
<path d="M424.522 210.305H359.156C358.418 210.305 357.817 209.702 357.817 208.96V167.013C357.817 166.643 357.971 166.295 358.24 166.058C358.509 165.822 358.872 165.713 359.237 165.761C359.238 165.761 359.493 165.793 359.926 165.793C364.144 165.793 367.575 162.348 367.575 158.114C367.575 157.667 367.539 157.387 367.539 157.384C367.49 157.018 367.597 156.653 367.832 156.382C368.068 156.112 368.414 155.957 368.783 155.957H414.735C415.104 155.957 415.451 156.112 415.686 156.382C415.922 156.653 416.029 157.019 415.979 157.385C415.979 157.387 415.943 157.667 415.943 158.114C415.943 162.348 419.374 165.793 423.592 165.793C424.071 165.793 424.421 165.743 424.432 165.742C424.797 165.688 425.163 165.792 425.435 166.027C425.706 166.262 425.861 166.61 425.861 166.982V208.96C425.861 209.702 425.26 210.305 424.522 210.305L424.522 210.305ZM359.156 167.105V208.96H424.522V167.086C424.358 167.105 424.017 167.137 423.592 167.137C418.636 167.137 414.604 163.089 414.604 158.114C414.604 157.729 414.627 157.442 414.641 157.301H368.878C368.892 157.442 368.915 157.729 368.915 158.114C368.915 163.089 364.883 167.137 359.926 167.137C359.553 167.137 359.288 167.117 359.157 167.105H359.156Z" fill="#FE0000"/>
<path d="M382.762 280.891H449.324V198.98C449.324 189.612 441.728 181.947 432.444 181.947H280.844C271.559 181.947 263.963 189.612 263.963 198.98V298.422C263.963 307.79 271.559 315.455 280.844 315.455H432.444C437.491 315.455 442.04 313.19 445.14 309.617H382.762C375.182 309.617 368.979 303.358 368.979 295.709V294.798C368.979 287.149 375.182 280.891 382.762 280.891V280.891ZM287.369 208.718C287.369 207.687 288.206 206.843 289.228 206.843H423.426C424.449 206.843 425.285 207.687 425.285 208.718V209.756C425.285 210.787 424.449 211.631 423.426 211.631H289.228C288.206 211.631 287.369 210.787 287.369 209.756V208.718ZM289.228 236.845C288.206 236.845 287.369 236.001 287.369 234.97V233.933C287.369 232.901 288.206 232.057 289.228 232.057H423.426C424.449 232.057 425.285 232.901 425.285 233.933V234.97C425.285 236.001 424.449 236.845 423.426 236.845H289.228Z" fill="white"/>
<path d="M433.104 316.636H281.357C271.766 316.636 263.963 308.76 263.963 299.079V199.504C263.963 189.823 271.766 181.947 281.357 181.947H433.104C442.695 181.947 450.497 189.823 450.497 199.504V282.026H383.374C376.041 282.026 370.075 288.048 370.075 295.45V296.363C370.075 303.765 376.041 309.787 383.374 309.787H446.907L446.186 310.619C442.869 314.443 438.101 316.636 433.104 316.636ZM281.357 182.951C272.314 182.951 264.957 190.376 264.957 199.504V299.079C264.957 308.207 272.314 315.633 281.357 315.633H433.104C437.439 315.633 441.593 313.88 444.665 310.79H383.374C375.493 310.79 369.081 304.318 369.081 296.363V295.45C369.081 287.495 375.493 281.023 383.374 281.023H449.503V199.504C449.503 190.376 442.147 182.951 433.104 182.951H281.357H281.357ZM424.077 237.922H289.749C288.45 237.922 287.392 236.854 287.392 235.542V234.503C287.392 233.191 288.449 232.124 289.749 232.124H424.077C425.377 232.124 426.435 233.191 426.435 234.503V235.542C426.435 236.854 425.377 237.922 424.077 237.922ZM289.749 233.128C288.998 233.128 288.386 233.745 288.386 234.504V235.543C288.386 236.301 288.998 236.919 289.749 236.919H424.077C424.829 236.919 425.44 236.302 425.44 235.543V234.504C425.44 233.745 424.829 233.128 424.077 233.128H289.749ZM424.077 212.674H289.749C288.45 212.674 287.392 211.606 287.392 210.294V209.255C287.392 207.943 288.449 206.876 289.749 206.876H424.077C425.377 206.876 426.435 207.943 426.435 209.255V210.294C426.435 211.606 425.377 212.674 424.077 212.674ZM289.749 207.879C288.998 207.879 288.386 208.497 288.386 209.255V210.294C288.386 211.053 288.998 211.67 289.749 211.67H424.077C424.829 211.67 425.44 211.053 425.44 210.294V209.255C425.44 208.497 424.829 207.879 424.077 207.879H289.749Z" fill="#0060FF"/>
<path d="M423.995 206.758H289.292C288.262 206.758 287.427 207.587 287.427 208.609V209.633C287.427 210.655 288.262 211.484 289.292 211.484H423.995C425.026 211.484 425.861 210.655 425.861 209.633V208.609C425.861 207.587 425.026 206.758 423.995 206.758Z" fill="white"/>
<path d="M424.667 212.665H289.794C288.489 212.665 287.427 211.578 287.427 210.241V209.182C287.427 207.845 288.488 206.758 289.794 206.758H424.667C425.972 206.758 427.034 207.845 427.034 209.182V210.241C427.034 211.578 425.972 212.665 424.667 212.665ZM289.794 207.78C289.039 207.78 288.425 208.409 288.425 209.182V210.241C288.425 211.014 289.039 211.643 289.794 211.643H424.667C425.422 211.643 426.036 211.014 426.036 210.241V209.182C426.036 208.409 425.422 207.78 424.667 207.78H289.794Z" fill="#0060FF"/>
<path d="M423.995 231.57H289.292C288.262 231.57 287.427 232.399 287.427 233.421V234.445C287.427 235.468 288.262 236.296 289.292 236.296H423.995C425.026 236.296 425.861 235.468 425.861 234.445V233.421C425.861 232.399 425.026 231.57 423.995 231.57Z" fill="white"/>
<path d="M424.667 237.478H289.794C288.489 237.478 287.427 236.39 287.427 235.053V233.995C287.427 232.658 288.488 231.57 289.794 231.57H424.667C425.972 231.57 427.034 232.658 427.034 233.995V235.053C427.034 236.39 425.972 237.478 424.667 237.478ZM289.794 232.593C289.039 232.593 288.425 233.222 288.425 233.995V235.054C288.425 235.827 289.039 236.456 289.794 236.456H424.667C425.422 236.456 426.036 235.827 426.036 235.054V233.995C426.036 233.222 425.422 232.593 424.667 232.593H289.794Z" fill="#0060FF"/>
<path d="M449.324 281.191V298.497C449.324 302.718 447.754 306.587 445.17 309.547H383.234C375.707 309.547 369.549 303.369 369.549 295.819V294.92C369.549 287.369 375.707 281.191 383.234 281.191H449.324Z" fill="white"/>
<path d="M446.063 310.728H383.76C375.924 310.728 369.549 304.306 369.549 296.413V295.507C369.549 287.613 375.924 281.191 383.76 281.191H450.498V299.108C450.498 303.313 448.975 307.38 446.211 310.559L446.063 310.728H446.063ZM383.76 282.187C376.469 282.187 370.537 288.163 370.537 295.507V296.413C370.537 303.757 376.469 309.733 383.76 309.733H445.613C448.127 306.761 449.509 302.997 449.509 299.108V282.187H383.76H383.76Z" fill="#0060FF"/>
<path d="M423.995 206.758H289.292C288.262 206.758 287.427 207.587 287.427 208.609V209.633C287.427 210.655 288.262 211.484 289.292 211.484H423.995C425.026 211.484 425.861 210.655 425.861 209.633V208.609C425.861 207.587 425.026 206.758 423.995 206.758Z" fill="white"/>
<path d="M424.667 212.665H289.794C288.489 212.665 287.427 211.578 287.427 210.241V209.182C287.427 207.845 288.488 206.758 289.794 206.758H424.667C425.972 206.758 427.034 207.845 427.034 209.182V210.241C427.034 211.578 425.972 212.665 424.667 212.665ZM289.794 207.78C289.039 207.78 288.425 208.409 288.425 209.182V210.241C288.425 211.014 289.039 211.643 289.794 211.643H424.667C425.422 211.643 426.036 211.014 426.036 210.241V209.182C426.036 208.409 425.422 207.78 424.667 207.78H289.794Z" fill="#0060FF"/>
<path d="M423.995 231.57H289.292C288.262 231.57 287.427 232.399 287.427 233.421V234.445C287.427 235.468 288.262 236.296 289.292 236.296H423.995C425.026 236.296 425.861 235.468 425.861 234.445V233.421C425.861 232.399 425.026 231.57 423.995 231.57Z" fill="white"/>
<path d="M424.667 237.478H289.794C288.489 237.478 287.427 236.39 287.427 235.053V233.995C287.427 232.658 288.488 231.57 289.794 231.57H424.667C425.972 231.57 427.034 232.658 427.034 233.995V235.053C427.034 236.39 425.972 237.478 424.667 237.478ZM289.794 232.593C289.039 232.593 288.425 233.222 288.425 233.995V235.054C288.425 235.827 289.039 236.456 289.794 236.456H424.667C425.422 236.456 426.036 235.827 426.036 235.054V233.995C426.036 233.222 425.422 232.593 424.667 232.593H289.794Z" fill="#0060FF"/>
<path d="M449.324 281.191V298.497C449.324 302.718 447.754 306.587 445.17 309.547H383.234C375.707 309.547 369.549 303.369 369.549 295.819V294.92C369.549 287.369 375.707 281.191 383.234 281.191H449.324Z" fill="white"/>
<path d="M446.063 310.728H383.76C375.924 310.728 369.549 304.306 369.549 296.413V295.507C369.549 287.613 375.924 281.191 383.76 281.191H450.498V299.108C450.498 303.313 448.975 307.38 446.211 310.559L446.063 310.728H446.063ZM383.76 282.187C376.469 282.187 370.537 288.163 370.537 295.507V296.413C370.537 303.757 376.469 309.733 383.76 309.733H445.613C448.127 306.761 449.509 302.997 449.509 299.108V282.187H383.76H383.76Z" fill="#0060FF"/>
<path d="M385.973 302.459C389.861 302.459 393.012 299.285 393.012 295.37C393.012 291.455 389.861 288.281 385.973 288.281C382.086 288.281 378.934 291.455 378.934 295.37C378.934 299.285 382.086 302.459 385.973 302.459Z" fill="white"/>
<path d="M386.56 303.641C382.355 303.641 378.934 300.196 378.934 295.961C378.934 291.726 382.355 288.281 386.56 288.281C390.764 288.281 394.185 291.726 394.185 295.961C394.185 300.196 390.764 303.641 386.56 303.641ZM386.56 289.263C382.892 289.263 379.908 292.267 379.908 295.961C379.908 299.655 382.892 302.659 386.56 302.659C390.227 302.659 393.211 299.654 393.211 295.961C393.211 292.268 390.227 289.263 386.56 289.263Z" fill="#0060FF"/>
<path d="M50.4464 281.193C38.0587 281.193 26.4077 280.521 17.6395 279.3C13.3504 278.702 9.97477 278.004 7.606 277.224C4.81802 276.306 3.51953 275.314 3.51953 274.105C3.51953 272.895 4.81802 271.903 7.606 270.985C9.97477 270.205 13.3504 269.507 17.6395 268.909C26.4077 267.688 38.0586 267.016 50.4464 267.016C62.8342 267.016 74.485 267.688 83.2532 268.909C87.5422 269.507 90.9179 270.205 93.2867 270.985C96.0747 271.903 97.3732 272.895 97.3732 274.105C97.3732 275.314 96.0747 276.306 93.2867 277.224C90.9179 278.004 87.5423 278.702 83.2532 279.3C74.485 280.521 62.8342 281.193 50.4464 281.193ZM50.4464 268.306C38.1197 268.306 26.5357 268.974 17.8282 270.187C4.99574 271.974 4.84825 274.018 4.84825 274.104C4.84825 274.19 4.99574 276.235 17.8282 278.022C26.5357 279.235 38.1197 279.903 50.4464 279.903C62.773 279.903 74.357 279.235 83.0646 278.022C95.897 276.235 96.0445 274.19 96.0445 274.104C96.0445 274.018 95.897 271.974 83.0646 270.187C74.357 268.974 62.7729 268.306 50.4464 268.306Z" fill="#0060FF"/>
<path d="M50.4464 289.465C38.0587 289.465 26.4077 288.788 17.6396 287.559C13.3505 286.958 9.97493 286.256 7.60616 285.471C4.81802 284.547 3.51953 283.55 3.51953 282.333V274.105H4.84825V282.333C4.84825 282.419 4.99573 284.476 17.8281 286.274C26.5357 287.494 38.1198 288.166 50.4464 288.166C62.7731 288.166 74.357 287.494 83.0646 286.274C95.897 284.476 96.0445 282.419 96.0445 282.333V274.105H97.3732V282.333C97.3732 283.55 96.0747 284.547 93.2867 285.471C90.918 286.256 87.5424 286.958 83.2533 287.559C74.4852 288.788 62.8342 289.465 50.4464 289.465Z" fill="#0060FF"/>
<path d="M50.4464 298.916C38.0587 298.916 26.4077 298.239 17.6395 297.011C13.3504 296.409 9.97477 295.707 7.606 294.922C4.81802 293.998 3.51953 293.001 3.51953 291.784V283.557H4.84825V291.784C4.84825 291.87 4.99574 293.927 17.8282 295.725C26.5357 296.945 38.1197 297.617 50.4464 297.617C62.773 297.617 74.357 296.945 83.0646 295.725C95.897 293.927 96.0445 291.87 96.0445 291.784V283.557H97.3732V291.784C97.3732 293.001 96.0747 293.998 93.2867 294.922C90.9179 295.707 87.5423 296.409 83.2532 297.011C74.485 298.239 62.8342 298.916 50.4464 298.916Z" fill="#0060FF"/>
<path d="M50.4464 308.367C38.0587 308.367 26.4077 307.69 17.6395 306.462C13.3504 305.861 9.97477 305.158 7.606 304.373C4.81802 303.45 3.51953 302.452 3.51953 301.235V293.008H4.84825V301.235C4.84825 301.321 4.99574 303.378 17.8282 305.176C26.5357 306.397 38.1197 307.069 50.4464 307.069C62.773 307.069 74.357 306.396 83.0646 305.176C95.897 303.378 96.0445 301.321 96.0445 301.235V293.008H97.3732V301.235C97.3732 302.452 96.0747 303.45 93.2867 304.373C90.9179 305.158 87.5423 305.861 83.2532 306.462C74.485 307.69 62.8342 308.367 50.4464 308.367Z" fill="#0060FF"/>
<path d="M50.4464 316.639C38.0587 316.639 26.4077 315.962 17.6395 314.733C13.3504 314.132 9.97477 313.43 7.606 312.645C4.81802 311.721 3.51953 310.724 3.51953 309.506V301.279H4.84825V309.506C4.84825 309.593 4.99574 311.65 17.8282 313.448C26.5357 314.668 38.1197 315.34 50.4464 315.34C62.773 315.34 74.357 314.668 83.0646 313.448C95.897 311.65 96.0445 309.593 96.0445 309.506V301.279H97.3732V309.506C97.3732 310.724 96.0747 311.721 93.2867 312.645C90.9179 313.43 87.5423 314.132 83.2532 314.733C74.485 315.962 62.8342 316.639 50.4464 316.639Z" fill="#0060FF"/>
<path d="M8.79889 261.107C7.1816 261.107 5.86597 259.782 5.86597 258.153C5.86597 256.524 7.18177 255.199 8.79889 255.199C10.416 255.199 11.7318 256.524 11.7318 258.153C11.7318 259.782 10.416 261.107 8.79889 261.107ZM8.79889 255.878C7.55336 255.878 6.54005 256.898 6.54005 258.153C6.54005 259.407 7.55336 260.428 8.79889 260.428C10.0444 260.428 11.0577 259.407 11.0577 258.153C11.0577 256.898 10.0444 255.878 8.79889 255.878Z" fill="#FE0000"/>
<path d="M337.287 5.90741C335.669 5.90741 334.354 4.58228 334.354 2.9537C334.354 1.32513 335.67 0 337.287 0C338.904 0 340.22 1.32513 340.22 2.9537C340.22 4.58228 338.904 5.90741 337.287 5.90741ZM337.287 0.678687C336.041 0.678687 335.028 1.69918 335.028 2.95353C335.028 4.20789 336.041 5.22838 337.287 5.22838C338.532 5.22838 339.546 4.20789 339.546 2.95353C339.546 1.69918 338.532 0.678687 337.287 0.678687Z" fill="#FE0000"/>
<path d="M461.056 261.107C459.762 261.107 458.71 260.047 458.71 258.744C458.71 257.441 459.763 256.381 461.056 256.381C462.35 256.381 463.403 257.441 463.403 258.744C463.403 260.047 462.35 261.107 461.056 261.107ZM461.056 257.086C460.149 257.086 459.41 257.83 459.41 258.744C459.41 259.658 460.149 260.401 461.056 260.401C461.964 260.401 462.702 259.658 462.702 258.744C462.702 257.83 461.964 257.086 461.056 257.086Z" fill="#FE0000"/>
<path d="M28.7402 108.058C29.0642 105.759 29.5944 105.759 29.9184 108.058C30.2425 110.356 32.3747 112.503 34.6568 112.83C36.9389 113.156 36.9389 113.69 34.6568 114.016C32.3747 114.343 30.2425 116.49 29.9184 118.788C29.5944 121.086 29.0642 121.086 28.7402 118.788C28.4161 116.49 26.2839 114.343 24.0018 114.016C21.7198 113.69 21.7198 113.156 24.0018 112.83C26.2839 112.503 28.4161 110.356 28.7402 108.058Z" fill="#FE0000"/>
<path d="M387.73 24.1709C388.054 21.8727 388.585 21.8727 388.909 24.1709C389.233 26.4692 391.365 28.6165 393.647 28.9429C395.929 29.2692 395.929 29.8031 393.647 30.1295C391.365 30.4558 389.233 32.6031 388.909 34.9014C388.585 37.1996 388.054 37.1996 387.73 34.9014C387.406 32.6031 385.274 30.4558 382.992 30.1295C380.71 29.8031 380.71 29.2692 382.992 28.9429C385.274 28.6165 387.406 26.4692 387.73 24.1709Z" fill="#FE0000"/>
<path d="M427.17 136.19C426.87 137.105 427.085 138.009 427.648 138.198C428.211 138.387 428.917 137.793 429.217 136.877L431.591 129.643C431.891 128.727 431.676 127.824 431.113 127.635C430.55 127.446 429.844 128.04 429.544 128.955L427.17 136.19Z" fill="#FE0000"/>
<path d="M438.398 143.127C437.708 143.686 437.402 144.532 437.717 145.007C438.032 145.481 438.855 145.411 439.545 144.851L445 140.427C445.69 139.867 445.996 139.021 445.681 138.547C445.365 138.073 444.543 138.143 443.853 138.703L438.398 143.127Z" fill="#FE0000"/>
<path d="M444.04 157.145C443.126 157.076 442.337 157.425 442.288 157.92C442.239 158.415 442.946 158.877 443.861 158.946L451.089 159.491C452.004 159.56 452.792 159.211 452.842 158.716C452.891 158.222 452.183 157.76 451.269 157.691L444.04 157.145Z" fill="#FE0000"/>
</g>
<defs>
<clipPath id="clip0_61_4806">
<rect width="481" height="319" fill="white"/>
</clipPath>
</defs>
</svg>
