<svg width="140" height="140" viewBox="0 0 140 140" fill="none" xmlns="http://www.w3.org/2000/svg">
<path d="M95.2699 48.4591C87.5399 42.9891 78.9399 39.9291 70.1599 39.5391C61.3899 39.9591 52.8199 43.0191 45.1099 48.4891" stroke="#0060FF" stroke-width="4" stroke-linecap="round" stroke-linejoin="round"/>
<path d="M20.98 28.2793C34.7187 16.6276 52.0222 10.0131 70.03 9.5293C88.0223 10.0149 105.31 16.6298 119.03 28.2793" stroke="#0060FF" stroke-width="4" stroke-linecap="round" stroke-linejoin="round"/>
<path d="M102.14 111.519H115.2V120.219C115.2 127.439 109.36 133.289 102.14 133.289H93.4399C89.9762 133.289 86.6543 131.913 84.2051 129.464C81.7558 127.015 80.3799 123.693 80.3799 120.229V94.0991C80.3799 86.8991 86.2299 81.0391 93.4399 81.0391H102.14C107.83 81.0391 112.67 84.6791 114.46 89.7491" stroke="#FE0000" stroke-width="4" stroke-linecap="round" stroke-linejoin="round"/>
<path d="M64.5 120.229H24.14C23.7242 120.229 23.3124 120.147 22.9284 119.987C22.5444 119.828 22.1956 119.594 21.902 119.3C21.6084 119.005 21.3759 118.656 21.2177 118.271C21.0594 117.887 20.9787 117.475 20.98 117.059C20.98 116.299 21.25 115.559 21.76 114.979L50.55 82.0788C50.8302 81.757 51.1759 81.4987 51.5639 81.321C51.9519 81.1434 52.3733 81.0506 52.8 81.0488C53.5957 81.0488 54.3587 81.3649 54.9213 81.9275C55.4839 82.4901 55.8 83.2532 55.8 84.0488V133.289" stroke="#FE0000" stroke-width="4" stroke-linecap="round" stroke-linejoin="round"/>
</svg>
