<svg width="150" height="99" viewBox="0 0 150 99" fill="none" xmlns="http://www.w3.org/2000/svg">
<g id="Frame" clip-path="url(#clip0_83_618)">
<path id="Vector" d="M149.353 98.2676H0V99.0009H149.353V98.2676Z" fill="#0060FF"/>
<g id="b">
<g id="Group">
<path id="Vector_2" d="M109.023 10.2676H26.8516C23.5032 10.2676 20.7637 13.0352 20.7637 16.4178V81.4841C20.7637 84.8667 23.5032 87.6342 26.8516 87.6342H109.023C112.372 87.6342 115.111 84.8667 115.111 81.4841V16.4178C115.111 13.0352 112.372 10.2676 109.023 10.2676L109.023 10.2676ZM112.2 78.8419C112.2 82.2245 109.46 84.9921 106.112 84.9921H29.3186C25.9703 84.9921 23.2307 82.2245 23.2307 78.8419V18.9848C23.2307 15.6022 25.9703 12.8346 29.3186 12.8346H106.112C109.46 12.8346 112.2 15.6022 112.2 18.9848V78.8419V78.8419Z" fill="white"/>
<path id="Vector_3" d="M108.775 87.6337H26.7354C23.2418 87.6337 20.3994 84.7635 20.3994 81.2354V16.2987C20.3994 12.7707 23.2417 9.90039 26.7354 9.90039H108.775C112.269 9.90039 115.111 12.7707 115.111 16.2987V81.2354C115.111 84.7635 112.269 87.6337 108.775 87.6337ZM26.7354 10.421C23.526 10.421 20.915 13.0577 20.915 16.2987V81.2354C20.915 84.4764 23.526 87.1131 26.7354 87.1131H108.775C111.985 87.1131 114.596 84.4764 114.596 81.2354V16.2987C114.596 13.0577 111.985 10.421 108.775 10.421H26.7354ZM105.868 84.9969H29.1985C25.7049 84.9969 22.8626 82.1266 22.8626 78.5985V18.8605C22.8626 15.3325 25.7049 12.4622 29.1985 12.4622H105.868C109.362 12.4622 112.204 15.3325 112.204 18.8605V78.5985C112.204 82.1266 109.362 84.9969 105.868 84.9969ZM29.1985 12.9829C25.9892 12.9829 23.3781 15.6196 23.3781 18.8605V78.5985C23.3781 81.8395 25.9892 84.4762 29.1985 84.4762H105.868C109.078 84.4762 111.689 81.8395 111.689 78.5985V18.8605C111.689 15.6195 109.078 12.9829 105.868 12.9829H29.1985Z" fill="#0060FF"/>
</g>
<g id="Group_2">
<path id="Vector_4" d="M106.115 12.834H29.3955C26.0365 12.834 23.3135 15.5764 23.3135 18.9594V78.5752C23.3135 81.9582 26.0365 84.7006 29.3955 84.7006H106.115C109.474 84.7006 112.197 81.9582 112.197 78.5752V18.9594C112.197 15.5764 109.474 12.834 106.115 12.834Z" fill="white"/>
<path id="Vector_5" d="M105.868 84.7001H29.2785C25.7885 84.7001 22.9492 81.8417 22.9492 78.3283V18.8385C22.9492 15.3251 25.7885 12.4668 29.2785 12.4668H105.868C109.358 12.4668 112.197 15.3251 112.197 18.8385V78.3284C112.197 81.8418 109.358 84.7001 105.868 84.7001V84.7001ZM29.2785 12.9853C26.0725 12.9853 23.4643 15.611 23.4643 18.8385V78.3284C23.4643 81.5558 26.0725 84.1816 29.2785 84.1816H105.868C109.074 84.1816 111.682 81.5558 111.682 78.3284V18.8385C111.682 15.611 109.074 12.9853 105.868 12.9853H29.2785Z" fill="#0060FF"/>
</g>
<g id="Group_3">
<path id="Vector_6" d="M106.115 12.834H29.3955C26.0365 12.834 23.3135 15.5764 23.3135 18.9594V78.5752C23.3135 81.9582 26.0365 84.7006 29.3955 84.7006H106.115C109.474 84.7006 112.197 81.9582 112.197 78.5752V18.9594C112.197 15.5764 109.474 12.834 106.115 12.834Z" fill="white"/>
<path id="Vector_7" d="M105.868 84.7001H29.2785C25.7885 84.7001 22.9492 81.8417 22.9492 78.3283V18.8385C22.9492 15.3251 25.7885 12.4668 29.2785 12.4668H105.868C109.358 12.4668 112.197 15.3251 112.197 18.8385V78.3284C112.197 81.8418 109.358 84.7001 105.868 84.7001V84.7001ZM29.2785 12.9853C26.0725 12.9853 23.4643 15.611 23.4643 18.8385V78.3284C23.4643 81.5558 26.0725 84.1816 29.2785 84.1816H105.868C109.074 84.1816 111.682 81.5558 111.682 78.3284V18.8385C111.682 15.611 109.074 12.9853 105.868 12.9853H29.2785Z" fill="#0060FF"/>
</g>
<g id="Group_4">
<path id="Vector_8" d="M72.0767 19.4336H30.2849C29.6537 19.4336 29.1421 19.9515 29.1421 20.5905V31.8434C29.1421 32.4823 29.6537 33.0003 30.2849 33.0003H72.0767C72.7079 33.0003 73.2196 32.4823 73.2196 31.8434V20.5905C73.2196 19.9515 72.7079 19.4336 72.0767 19.4336Z" fill="white"/>
<path id="Vector_9" d="M71.8219 32.9997H30.1755C29.4048 32.9997 28.7778 32.37 28.7778 31.596V20.4702C28.7778 19.6961 29.4048 19.0664 30.1755 19.0664H71.8219C72.5926 19.0664 73.2196 19.6961 73.2196 20.4702V31.596C73.2196 32.37 72.5926 32.9997 71.8219 32.9997H71.8219ZM30.1755 19.5863C29.6903 19.5863 29.2955 19.9828 29.2955 20.4702V31.596C29.2955 32.0833 29.6903 32.4798 30.1755 32.4798H71.8219C72.3072 32.4798 72.7019 32.0833 72.7019 31.596V20.4702C72.7019 19.9828 72.3072 19.5863 71.8219 19.5863H30.1755Z" fill="#0060FF"/>
</g>
<g id="Group_5">
<path id="Vector_10" d="M72.2367 37.0352H50.5242C50.1827 37.0352 49.9058 37.3297 49.9058 37.693V42.244C49.9058 42.6073 50.1827 42.9018 50.5242 42.9018H72.2367C72.5783 42.9018 72.8552 42.6073 72.8552 42.244V37.693C72.8552 37.3297 72.5783 37.0352 72.2367 37.0352Z" fill="white"/>
<path id="Vector_11" d="M71.9847 42.9013H50.412C49.932 42.9013 49.5415 42.4951 49.5415 41.9958V37.5735C49.5415 37.0742 49.932 36.668 50.412 36.668H71.9847C72.4647 36.668 72.8552 37.0742 72.8552 37.5735V41.9958C72.8552 42.4951 72.4647 42.9013 71.9847 42.9013ZM50.412 37.2006C50.2144 37.2006 50.0536 37.3679 50.0536 37.5735V41.9958C50.0536 42.2014 50.2144 42.3686 50.412 42.3686H71.9847C72.1823 42.3686 72.3431 42.2014 72.3431 41.9958V37.5735C72.3431 37.3679 72.1823 37.2006 71.9847 37.2006H50.412Z" fill="#0060FF"/>
</g>
<g id="Group_6">
<path id="Vector_12" d="M80.8692 87.2676V93.7191C80.8692 94.2041 80.2958 94.6009 79.5949 94.6009H52.2728C51.572 94.6009 50.9985 94.2041 50.9985 93.7191V87.2676H80.8692Z" fill="white"/>
<path id="Vector_13" d="M79.3447 94.6004H52.1589C51.304 94.6004 50.6343 94.1055 50.6343 93.4738V86.9004H80.8692V93.4738C80.8692 94.1055 80.1996 94.6004 79.3447 94.6004ZM51.1476 87.4289V93.4737C51.1476 93.7566 51.5629 94.0718 52.1589 94.0718H79.3447C79.9406 94.0718 80.356 93.7566 80.356 93.4737V87.4289H51.1476H51.1476Z" fill="#0060FF"/>
</g>
<g id="Group_7">
<path id="Vector_14" d="M44.9145 37.0352H29.7622C29.4197 37.0352 29.1421 37.3297 29.1421 37.693V42.244C29.1421 42.6073 29.4197 42.9018 29.7622 42.9018H44.9145C45.2569 42.9018 45.5345 42.6073 45.5345 42.244V37.693C45.5345 37.3297 45.2569 37.0352 44.9145 37.0352Z" fill="white"/>
<path id="Vector_15" d="M44.6641 42.9013H29.6483C29.1683 42.9013 28.7778 42.4951 28.7778 41.9958V37.5735C28.7778 37.0742 29.1683 36.668 29.6483 36.668H44.6641C45.1441 36.668 45.5346 37.0742 45.5346 37.5735V41.9958C45.5346 42.4951 45.1441 42.9013 44.6641 42.9013ZM29.6483 37.2006C29.4507 37.2006 29.2899 37.3679 29.2899 37.5735V41.9958C29.2899 42.2014 29.4507 42.3686 29.6483 42.3686H44.6641C44.8617 42.3686 45.0225 42.2014 45.0225 41.9958V37.5735C45.0225 37.3679 44.8617 37.2006 44.6641 37.2006H29.6483Z" fill="#0060FF"/>
</g>
<path id="Vector_16" d="M39.9305 27.9868C39.9305 27.6909 39.8295 27.4416 39.6276 27.239C39.4257 27.0364 39.0853 26.853 38.6064 26.689C37.9397 26.4799 37.4537 26.2073 37.1485 25.8712C36.8433 25.5351 36.6907 25.1082 36.6907 24.5903C36.6907 24.0628 36.8401 23.6302 37.1391 23.2924C37.438 22.9547 37.8489 22.7538 38.3716 22.6894V21.6328H39.0712V22.6942C39.5971 22.7683 40.0063 22.995 40.299 23.3745C40.5917 23.754 40.738 24.2735 40.738 24.9329H39.8741C39.8741 24.4779 39.7691 24.1165 39.5595 23.8487C39.3497 23.5809 39.0665 23.4469 38.7096 23.4469C38.3371 23.4469 38.0523 23.546 37.8551 23.7441C37.658 23.9423 37.5593 24.2185 37.5593 24.573C37.5593 24.9017 37.6633 25.1635 37.8716 25.3584C38.0797 25.5534 38.4224 25.7306 38.8998 25.8901C39.3771 26.0496 39.7497 26.225 40.0173 26.4163C40.2849 26.6078 40.4821 26.8305 40.6089 27.0846C40.7357 27.3386 40.7991 27.6362 40.7991 27.9771C40.7991 28.5207 40.6402 28.9582 40.3225 29.2894C40.0048 29.6207 39.5595 29.8168 38.9867 29.878V30.7995H38.2918V29.878C37.7095 29.8232 37.2533 29.6102 36.9231 29.2387C36.5928 28.8672 36.4277 28.3631 36.4277 27.7262H37.2963C37.2963 28.1733 37.4106 28.5175 37.6391 28.7587C37.8676 28.9999 38.1915 29.1205 38.611 29.1205C39.021 29.1205 39.3435 29.0192 39.5782 28.8166C39.813 28.614 39.9305 28.3374 39.9305 27.9868Z" fill="#FE0000"/>
<g id="c">
<path id="Vector_17" d="M64.8572 71.866C64.7291 71.866 64.6001 71.8291 64.487 71.7524L43.9865 57.8674L38.7945 61.7031L38.249 60.9462L43.5861 57.0033C43.8119 56.8367 44.1195 56.8303 44.3517 56.9875L64.8027 70.839L91.0673 36.666L91.7977 37.2414L65.3862 71.6056C65.2555 71.7757 65.0575 71.866 64.8572 71.866V71.866Z" fill="#0060FF"/>
<g id="d">
<path id="Vector_18" d="M96.8546 41.4336C96.7071 41.4336 96.5596 41.3905 96.4303 41.3041L85.2238 33.8127C84.9623 33.638 84.8315 33.3233 84.8904 33.0112C84.9494 32.6991 85.1858 32.456 85.4925 32.3919L94.7859 30.4499C94.9877 30.4078 95.1936 30.4479 95.3657 30.5629C95.5378 30.678 95.6554 30.8542 95.697 31.059L97.6101 40.4922C97.6733 40.8035 97.5466 41.1198 97.2874 41.2982C97.1563 41.3883 97.0055 41.4335 96.8546 41.4335V41.4336ZM86.0464 33.2365L96.6269 40.3093L94.8207 31.403L86.0464 33.2365Z" fill="#0060FF"/>
</g>
</g>
</g>
<g id="e">
<g id="f">
<g id="g">
<g id="Group_8">
<path id="Vector_19" d="M127.497 60.8156C127.497 61.046 127.311 61.2345 127.084 61.2345H103.139C102.912 61.2345 102.726 61.046 102.726 60.8156V40.9106C102.726 40.7949 102.819 40.7012 102.933 40.7012H127.084C127.311 40.7012 127.497 40.8897 127.497 41.1201V60.8156Z" fill="white"/>
<path id="Vector_20" d="M126.878 61.234H102.98C102.639 61.234 102.362 60.9528 102.362 60.6072V40.7518C102.362 40.5214 102.547 40.334 102.774 40.334H126.878C127.219 40.334 127.497 40.6151 127.497 40.9607V60.6072C127.497 60.9528 127.219 61.234 126.878 61.234ZM102.774 40.7518V60.6072C102.774 60.7224 102.867 60.8161 102.98 60.8161H126.878C126.992 60.8161 127.085 60.7224 127.085 60.6072V40.9607C127.085 40.8455 126.992 40.7518 126.878 40.7518H102.774Z" fill="#FE0000"/>
</g>
<path id="Vector_21" d="M125.26 59.3999H104.963C104.734 59.3999 104.547 59.2126 104.547 58.9825V45.9645C104.547 45.8497 104.595 45.7418 104.679 45.6682C104.762 45.5947 104.875 45.561 104.988 45.5759C104.989 45.5759 105.068 45.5857 105.202 45.5857C106.512 45.5857 107.577 44.5167 107.577 43.2026C107.577 43.0638 107.566 42.9769 107.566 42.9761C107.551 42.8627 107.584 42.7493 107.657 42.6653C107.73 42.5814 107.838 42.5332 107.952 42.5332H122.221C122.335 42.5332 122.443 42.5814 122.516 42.6653C122.589 42.7493 122.622 42.8628 122.607 42.9766C122.607 42.9769 122.596 43.0638 122.596 43.2026C122.596 44.5167 123.661 45.5857 124.971 45.5857C125.12 45.5857 125.228 45.5705 125.232 45.57C125.345 45.5533 125.459 45.5854 125.543 45.6584C125.627 45.7313 125.675 45.8393 125.675 45.9547V58.9825C125.675 59.2126 125.489 59.3999 125.26 59.3999H125.26ZM104.963 45.9929V58.9825H125.26V45.9871C125.209 45.993 125.103 46.003 124.971 46.003C123.432 46.003 122.18 44.7468 122.18 43.2026C122.18 43.0831 122.187 42.9941 122.192 42.9505H107.982C107.986 42.9942 107.993 43.0832 107.993 43.2026C107.993 44.7468 106.741 46.003 105.202 46.003C105.086 46.003 105.004 45.9969 104.963 45.9929H104.963Z" fill="#FE0000"/>
</g>
<g id="h">
<g id="Group_9">
<path id="Vector_22" d="M133.641 46.5684H109.696C109.468 46.5684 109.283 46.7559 109.283 46.9872V66.6828C109.283 66.9142 109.468 67.1017 109.696 67.1017H133.641C133.869 67.1017 134.054 66.9142 134.054 66.6828V46.9872C134.054 46.7559 133.869 46.5684 133.641 46.5684Z" fill="white"/>
<path id="Vector_23" d="M133.436 67.1012H109.537C109.196 67.1012 108.919 66.82 108.919 66.4744V46.8279C108.919 46.4823 109.196 46.2012 109.537 46.2012H133.436C133.777 46.2012 134.054 46.4823 134.054 46.8279V66.4744C134.054 66.82 133.777 67.1012 133.436 67.1012ZM109.537 46.619C109.424 46.619 109.331 46.7127 109.331 46.8279V66.4744C109.331 66.5896 109.424 66.6833 109.537 66.6833H133.436C133.549 66.6833 133.642 66.5896 133.642 66.4744V46.8279C133.642 46.7127 133.549 46.619 133.436 46.619H109.537Z" fill="#FE0000"/>
</g>
<path id="Vector_24" d="M131.817 65.267H111.52C111.291 65.267 111.104 65.0798 111.104 64.8497V51.8315C111.104 51.7168 111.152 51.6088 111.236 51.5353C111.319 51.4618 111.432 51.428 111.545 51.443C111.546 51.443 111.625 51.4528 111.759 51.4528C113.069 51.4528 114.134 50.3838 114.134 49.0697C114.134 48.931 114.123 48.8442 114.123 48.8433C114.108 48.7298 114.141 48.6163 114.214 48.5324C114.287 48.4485 114.395 48.4004 114.509 48.4004H128.778C128.892 48.4004 129 48.4485 129.073 48.5324C129.146 48.6164 129.179 48.7298 129.164 48.8437C129.164 48.8442 129.153 48.931 129.153 49.0697C129.153 50.3838 130.218 51.4528 131.528 51.4528C131.677 51.4528 131.785 51.4376 131.789 51.4371C131.902 51.4204 132.016 51.4525 132.1 51.5254C132.184 51.5983 132.233 51.7064 132.233 51.8218V64.8497C132.233 65.0798 132.046 65.2671 131.817 65.2671L131.817 65.267ZM111.52 51.86V64.8497H131.817V51.8541C131.766 51.86 131.66 51.8701 131.528 51.8701C129.989 51.8701 128.737 50.6138 128.737 49.0697C128.737 48.9502 128.744 48.8612 128.749 48.8176H114.539C114.543 48.8612 114.55 48.9502 114.55 49.0697C114.55 50.6139 113.298 51.8701 111.759 51.8701C111.643 51.8701 111.561 51.8639 111.52 51.86H111.52Z" fill="#FE0000"/>
</g>
</g>
<g id="i">
<g id="Group_10">
<path id="Vector_25" d="M118.85 87.1734H139.518V61.7528C139.518 58.8455 137.159 56.4668 134.277 56.4668H87.2038C84.321 56.4668 81.9624 58.8455 81.9624 61.7528V92.6141C81.9624 95.5214 84.321 97.9001 87.2038 97.9001H134.277C135.844 97.9001 137.256 97.1975 138.219 96.0884H118.85C116.496 96.0884 114.571 94.1461 114.571 91.7723V91.4896C114.571 89.1157 116.496 87.1735 118.85 87.1735V87.1734ZM89.2301 64.775C89.2301 64.4549 89.4898 64.193 89.8072 64.193H131.477C131.794 64.193 132.054 64.4549 132.054 64.775V65.097C132.054 65.417 131.794 65.6789 131.477 65.6789H89.8072C89.4898 65.6789 89.2301 65.4171 89.2301 65.097V64.775ZM89.8072 73.5041C89.4898 73.5041 89.2301 73.2422 89.2301 72.9222V72.6002C89.2301 72.2801 89.4898 72.0182 89.8072 72.0182H131.477C131.794 72.0182 132.054 72.2801 132.054 72.6002V72.9222C132.054 73.2422 131.794 73.5041 131.477 73.5041H89.8072Z" fill="white"/>
<path id="Vector_26" d="M134.481 98.2668H87.3632C84.3852 98.2668 81.9624 95.8225 81.9624 92.8181V61.9155C81.9624 58.9111 84.3852 56.4668 87.3632 56.4668H134.481C137.46 56.4668 139.882 58.9111 139.882 61.9155V87.5258H119.04C116.763 87.5258 114.911 89.3947 114.911 91.6919V91.975C114.911 94.2723 116.763 96.1411 119.04 96.1411H138.768L138.544 96.3994C137.514 97.5862 136.033 98.2668 134.481 98.2668ZM87.3632 56.7782C84.5554 56.7782 82.2711 59.0828 82.2711 61.9154V92.818C82.2711 95.6507 84.5554 97.9553 87.3632 97.9553H134.481C135.828 97.9553 137.117 97.4116 138.071 96.4525H119.04C116.593 96.4525 114.602 94.4439 114.602 91.975V91.6919C114.602 89.2229 116.593 87.2143 119.04 87.2143H139.574V61.9154C139.574 59.0828 137.289 56.7782 134.482 56.7782H87.3632H87.3632ZM131.679 73.8382H89.9691C89.5655 73.8382 89.2371 73.5069 89.2371 73.0998V72.7773C89.2371 72.3702 89.5654 72.0389 89.9691 72.0389H131.679C132.082 72.0389 132.411 72.3702 132.411 72.7773V73.0998C132.411 73.5069 132.082 73.8382 131.679 73.8382ZM89.9691 72.3503C89.7357 72.3503 89.5458 72.5418 89.5458 72.7774V73.0998C89.5458 73.3353 89.7357 73.5269 89.9691 73.5269H131.679C131.912 73.5269 132.102 73.3354 132.102 73.0998V72.7774C132.102 72.5419 131.912 72.3503 131.679 72.3503H89.9691ZM131.679 66.0026H89.9691C89.5655 66.0026 89.2371 65.6713 89.2371 65.2641V64.9417C89.2371 64.5345 89.5654 64.2032 89.9691 64.2032H131.679C132.082 64.2032 132.411 64.5345 132.411 64.9417V65.2641C132.411 65.6713 132.082 66.0026 131.679 66.0026ZM89.9691 64.5147C89.7357 64.5147 89.5458 64.7062 89.5458 64.9417V65.2642C89.5458 65.4996 89.7357 65.6912 89.9691 65.6912H131.679C131.912 65.6912 132.102 65.4997 132.102 65.2642V64.9417C132.102 64.7063 131.912 64.5147 131.679 64.5147H89.9691Z" fill="#0060FF"/>
</g>
<g id="Group_11">
<path id="Vector_27" d="M131.653 64.166H89.8273C89.5074 64.166 89.248 64.4232 89.248 64.7404V65.0583C89.248 65.3755 89.5074 65.6327 89.8273 65.6327H131.653C131.973 65.6327 132.233 65.3755 132.233 65.0583V64.7404C132.233 64.4232 131.973 64.166 131.653 64.166Z" fill="white"/>
<path id="Vector_28" d="M131.862 65.9993H89.983C89.5777 65.9993 89.248 65.6618 89.248 65.247V64.9184C89.248 64.5036 89.5777 64.166 89.983 64.166H131.862C132.267 64.166 132.597 64.5036 132.597 64.9184V65.247C132.597 65.6618 132.267 65.9993 131.862 65.9993ZM89.983 64.4834C89.7486 64.4834 89.558 64.6785 89.558 64.9185V65.247C89.558 65.4869 89.7486 65.6821 89.983 65.6821H131.862C132.096 65.6821 132.287 65.487 132.287 65.247V64.9185C132.287 64.6785 132.096 64.4834 131.862 64.4834H89.983Z" fill="#0060FF"/>
</g>
<g id="Group_12">
<path id="Vector_29" d="M131.653 71.8672H89.8273C89.5074 71.8672 89.248 72.1244 89.248 72.4416V72.7594C89.248 73.0767 89.5074 73.3339 89.8273 73.3339H131.653C131.973 73.3339 132.233 73.0767 132.233 72.7594V72.4416C132.233 72.1244 131.973 71.8672 131.653 71.8672Z" fill="white"/>
<path id="Vector_30" d="M131.862 73.7005H89.983C89.5777 73.7005 89.248 73.363 89.248 72.9481V72.6196C89.248 72.2047 89.5777 71.8672 89.983 71.8672H131.862C132.267 71.8672 132.597 72.2047 132.597 72.6196V72.9481C132.597 73.363 132.267 73.7005 131.862 73.7005ZM89.983 72.1845C89.7486 72.1845 89.558 72.3797 89.558 72.6196V72.9482C89.558 73.1881 89.7486 73.3833 89.983 73.3833H131.862C132.096 73.3833 132.287 73.1882 132.287 72.9482V72.6196C132.287 72.3797 132.096 72.1845 131.862 72.1845H89.983Z" fill="#0060FF"/>
</g>
<g id="Group_13">
<path id="Vector_31" d="M139.518 87.2676V92.6382C139.518 93.9484 139.03 95.149 138.228 96.0676H118.996C116.659 96.0676 114.747 94.1504 114.747 91.8071V91.528C114.747 89.1848 116.659 87.2676 118.996 87.2676H139.518Z" fill="white"/>
<path id="Vector_32" d="M138.505 96.4342H119.16C116.727 96.4342 114.747 94.4412 114.747 91.9914V91.7104C114.747 89.2606 116.727 87.2676 119.16 87.2676H139.882V92.8279C139.882 94.133 139.409 95.395 138.551 96.3816L138.505 96.4342H138.505ZM119.16 87.5766C116.896 87.5766 115.054 89.4311 115.054 91.7104V91.9914C115.054 94.2708 116.896 96.1252 119.16 96.1252H138.365C139.146 95.2031 139.575 94.0349 139.575 92.8279V87.5766H119.16H119.16Z" fill="#0060FF"/>
</g>
<g id="Group_14">
<path id="Vector_33" d="M131.653 64.166H89.8273C89.5074 64.166 89.248 64.4232 89.248 64.7404V65.0583C89.248 65.3755 89.5074 65.6327 89.8273 65.6327H131.653C131.973 65.6327 132.233 65.3755 132.233 65.0583V64.7404C132.233 64.4232 131.973 64.166 131.653 64.166Z" fill="white"/>
<path id="Vector_34" d="M131.862 65.9993H89.983C89.5777 65.9993 89.248 65.6618 89.248 65.247V64.9184C89.248 64.5036 89.5777 64.166 89.983 64.166H131.862C132.267 64.166 132.597 64.5036 132.597 64.9184V65.247C132.597 65.6618 132.267 65.9993 131.862 65.9993ZM89.983 64.4834C89.7486 64.4834 89.558 64.6785 89.558 64.9185V65.247C89.558 65.4869 89.7486 65.6821 89.983 65.6821H131.862C132.096 65.6821 132.287 65.487 132.287 65.247V64.9185C132.287 64.6785 132.096 64.4834 131.862 64.4834H89.983Z" fill="#0060FF"/>
</g>
<g id="Group_15">
<path id="Vector_35" d="M131.653 71.8672H89.8273C89.5074 71.8672 89.248 72.1244 89.248 72.4416V72.7594C89.248 73.0767 89.5074 73.3339 89.8273 73.3339H131.653C131.973 73.3339 132.233 73.0767 132.233 72.7594V72.4416C132.233 72.1244 131.973 71.8672 131.653 71.8672Z" fill="white"/>
<path id="Vector_36" d="M131.862 73.7005H89.983C89.5777 73.7005 89.248 73.363 89.248 72.9481V72.6196C89.248 72.2047 89.5777 71.8672 89.983 71.8672H131.862C132.267 71.8672 132.597 72.2047 132.597 72.6196V72.9481C132.597 73.363 132.267 73.7005 131.862 73.7005ZM89.983 72.1845C89.7486 72.1845 89.558 72.3797 89.558 72.6196V72.9482C89.558 73.1881 89.7486 73.3833 89.983 73.3833H131.862C132.096 73.3833 132.287 73.1882 132.287 72.9482V72.6196C132.287 72.3797 132.096 72.1845 131.862 72.1845H89.983Z" fill="#0060FF"/>
</g>
<g id="Group_16">
<path id="Vector_37" d="M139.518 87.2676V92.6382C139.518 93.9484 139.03 95.149 138.228 96.0676H118.996C116.659 96.0676 114.747 94.1504 114.747 91.8071V91.528C114.747 89.1848 116.659 87.2676 118.996 87.2676H139.518Z" fill="white"/>
<path id="Vector_38" d="M138.505 96.4342H119.16C116.727 96.4342 114.747 94.4412 114.747 91.9914V91.7104C114.747 89.2606 116.727 87.2676 119.16 87.2676H139.882V92.8279C139.882 94.133 139.409 95.395 138.551 96.3816L138.505 96.4342H138.505ZM119.16 87.5766C116.896 87.5766 115.054 89.4311 115.054 91.7104V91.9914C115.054 94.2708 116.896 96.1252 119.16 96.1252H138.365C139.146 95.2031 139.575 94.0349 139.575 92.8279V87.5766H119.16H119.16Z" fill="#0060FF"/>
</g>
<g id="Group_17">
<path id="Vector_39" d="M119.847 93.8668C121.054 93.8668 122.033 92.8818 122.033 91.6668C122.033 90.4518 121.054 89.4668 119.847 89.4668C118.64 89.4668 117.662 90.4518 117.662 91.6668C117.662 92.8818 118.64 93.8668 119.847 93.8668Z" fill="white"/>
<path id="Vector_40" d="M120.029 94.2335C118.724 94.2335 117.662 93.1643 117.662 91.8502C117.662 90.536 118.724 89.4668 120.029 89.4668C121.335 89.4668 122.397 90.5359 122.397 91.8502C122.397 93.1644 121.335 94.2335 120.029 94.2335ZM120.029 89.7713C118.891 89.7713 117.964 90.7039 117.964 91.8502C117.964 92.9964 118.891 93.9289 120.029 93.9289C121.168 93.9289 122.095 92.9964 122.095 91.8502C122.095 90.7039 121.168 89.7713 120.029 89.7713Z" fill="#0060FF"/>
</g>
</g>
</g>
<g id="j">
<path id="Vector_41" d="M15.6638 87.2672C11.8174 87.2672 8.19969 87.0585 5.47711 86.6795C4.14531 86.4941 3.09717 86.2773 2.36165 86.0353C1.49596 85.7503 1.09277 85.4427 1.09277 85.0672C1.09277 84.6917 1.49596 84.384 2.36165 84.0991C3.09717 83.857 4.14531 83.6403 5.47711 83.4549C8.19969 83.0759 11.8174 82.8672 15.6638 82.8672C19.5103 82.8672 23.128 83.0759 25.8506 83.4549C27.1823 83.6403 28.2305 83.857 28.966 84.0991C29.8317 84.384 30.2349 84.6917 30.2349 85.0672C30.2349 85.4427 29.8317 85.7503 28.966 86.0353C28.2305 86.2773 27.1824 86.4941 25.8506 86.6795C23.128 87.0585 19.5103 87.2672 15.6638 87.2672ZM15.6638 83.2677C11.8363 83.2677 8.23945 83.475 5.53569 83.8513C1.55114 84.406 1.50535 85.0404 1.50535 85.0671C1.50535 85.0939 1.55114 85.7283 5.53569 86.2829C8.23945 86.6593 11.8363 86.8666 15.6638 86.8666C19.4914 86.8666 23.0882 86.6593 25.792 86.2829C29.7765 85.7283 29.8223 85.0939 29.8223 85.0671C29.8223 85.0404 29.7765 84.406 25.792 83.8513C23.0882 83.4749 19.4913 83.2677 15.6638 83.2677Z" fill="#0060FF"/>
<path id="Vector_42" d="M15.6639 89.8331C11.8174 89.8331 8.19968 89.6231 5.47715 89.2417C4.14536 89.0553 3.09721 88.8372 2.3617 88.5937C1.49596 88.307 1.09277 87.9974 1.09277 87.6196V85.0664H1.50535V87.6196C1.50535 87.6465 1.55114 88.2848 5.53568 88.8428C8.23944 89.2216 11.8364 89.4301 15.6639 89.4301C19.4914 89.4301 23.0882 89.2215 25.792 88.8428C29.7765 88.2848 29.8223 87.6465 29.8223 87.6196V85.0664H30.2349V87.6196C30.2349 87.9974 29.8317 88.307 28.966 88.5937C28.2305 88.8372 27.1824 89.0553 25.8506 89.2417C23.1281 89.6231 19.5103 89.8331 15.6639 89.8331Z" fill="#0060FF"/>
<path id="Vector_43" d="M15.6638 92.7667C11.8174 92.7667 8.19969 92.5567 5.47711 92.1753C4.14531 91.9888 3.09717 91.7707 2.36165 91.5272C1.49596 91.2405 1.09277 90.931 1.09277 90.5532V88H1.50535V90.5532C1.50535 90.5801 1.55114 91.2184 5.53569 91.7764C8.23945 92.1551 11.8363 92.3637 15.6638 92.3637C19.4914 92.3637 23.0882 92.1551 25.792 91.7764C29.7765 91.2184 29.8223 90.5801 29.8223 90.5532V88H30.2349V90.5532C30.2349 90.931 29.8317 91.2405 28.966 91.5272C28.2305 91.7707 27.1824 91.9888 25.8506 92.1753C23.128 92.5567 19.5103 92.7667 15.6638 92.7667Z" fill="#0060FF"/>
<path id="Vector_44" d="M15.6638 95.7003C11.8174 95.7003 8.19969 95.4903 5.47711 95.1089C4.14531 94.9224 3.09717 94.7043 2.36165 94.4608C1.49596 94.1741 1.09277 93.8646 1.09277 93.4868V90.9336H1.50535V93.4868C1.50535 93.5137 1.55114 94.152 5.53569 94.71C8.23945 95.0887 11.8363 95.2973 15.6638 95.2973C19.4914 95.2973 23.0882 95.0887 25.792 94.71C29.7765 94.152 29.8223 93.5137 29.8223 93.4868V90.9336H30.2349V93.4868C30.2349 93.8646 29.8317 94.1741 28.966 94.4608C28.2305 94.7043 27.1824 94.9224 25.8506 95.1089C23.128 95.4903 19.5103 95.7003 15.6638 95.7003Z" fill="#0060FF"/>
<path id="Vector_45" d="M15.6638 98.2667C11.8174 98.2667 8.19969 98.0567 5.47711 97.6753C4.14531 97.4888 3.09717 97.2708 2.36165 97.0272C1.49596 96.7405 1.09277 96.431 1.09277 96.0532V93.5H1.50535V96.0532C1.50535 96.0801 1.55114 96.7184 5.53569 97.2764C8.23945 97.6551 11.8363 97.8637 15.6638 97.8637C19.4914 97.8637 23.0882 97.6551 25.792 97.2764C29.7765 96.7184 29.8223 96.0801 29.8223 96.0532V93.5H30.2349V96.0532C30.2349 96.431 29.8317 96.7405 28.966 97.0272C28.2305 97.2708 27.1824 97.4888 25.8506 97.6753C23.128 98.0567 19.5103 98.2667 15.6638 98.2667Z" fill="#0060FF"/>
</g>
<g id="u">
<path id="Vector_46" d="M2.73198 81.0326C2.2298 81.0326 1.82129 80.6213 1.82129 80.1159C1.82129 79.6105 2.22985 79.1992 2.73198 79.1992C3.23411 79.1992 3.64267 79.6105 3.64267 80.1159C3.64267 80.6213 3.23411 81.0326 2.73198 81.0326ZM2.73198 79.4098C2.34523 79.4098 2.0306 79.7265 2.0306 80.1158C2.0306 80.5051 2.34523 80.8218 2.73198 80.8218C3.11873 80.8218 3.43337 80.5051 3.43337 80.1158C3.43337 79.7265 3.11873 79.4098 2.73198 79.4098Z" fill="#FE0000"/>
<path id="Vector_47" d="M104.73 1.83333C104.227 1.83333 103.819 1.42209 103.819 0.916667C103.819 0.411247 104.227 0 104.73 0C105.232 0 105.64 0.411247 105.64 0.916667C105.64 1.42209 105.232 1.83333 104.73 1.83333ZM104.73 0.210627C104.343 0.210627 104.028 0.527331 104.028 0.916614C104.028 1.3059 104.343 1.6226 104.73 1.6226C105.116 1.6226 105.431 1.3059 105.431 0.916614C105.431 0.527331 105.116 0.210627 104.73 0.210627Z" fill="#FE0000"/>
<path id="Vector_48" d="M143.161 81.0331C142.759 81.0331 142.432 80.7041 142.432 80.2997C142.432 79.8954 142.759 79.5664 143.161 79.5664C143.562 79.5664 143.889 79.8954 143.889 80.2997C143.889 80.7041 143.562 81.0331 143.161 81.0331ZM143.161 79.7852C142.879 79.7852 142.65 80.016 142.65 80.2997C142.65 80.5834 142.879 80.8142 143.161 80.8142C143.443 80.8142 143.672 80.5834 143.672 80.2997C143.672 80.016 143.443 79.7852 143.161 79.7852Z" fill="#FE0000"/>
<path id="Vector_49" d="M8.92412 33.5349C9.02474 32.8217 9.18936 32.8217 9.28997 33.5349C9.39059 34.2482 10.0527 34.9146 10.7613 35.0159C11.4699 35.1171 11.4699 35.2829 10.7613 35.3841C10.0527 35.4854 9.39059 36.1518 9.28997 36.8651C9.18936 37.5783 9.02474 37.5783 8.92412 36.8651C8.8235 36.1518 8.16143 35.4854 7.45283 35.3841C6.74424 35.2829 6.74424 35.1171 7.45283 35.0159C8.16143 34.9146 8.8235 34.2482 8.92412 33.5349Z" fill="#FE0000"/>
<path id="Vector_50" d="M120.392 7.50173C120.493 6.78849 120.658 6.78849 120.758 7.50173C120.859 8.21498 121.521 8.88139 122.23 8.98267C122.938 9.08395 122.938 9.24965 122.23 9.35092C121.521 9.4522 120.859 10.1186 120.758 10.8319C120.658 11.5451 120.493 11.5451 120.392 10.8319C120.292 10.1186 119.63 9.4522 118.921 9.35092C118.212 9.24965 118.212 9.08395 118.921 8.98267C119.63 8.88139 120.292 8.21498 120.392 7.50173Z" fill="#FE0000"/>
<g id="Group_18">
<path id="Vector_51" d="M132.639 42.2656C132.546 42.5497 132.612 42.8301 132.787 42.8887C132.962 42.9474 133.181 42.763 133.275 42.4789L134.012 40.2336C134.105 39.9496 134.038 39.6692 133.863 39.6105C133.688 39.5518 133.469 39.7363 133.376 40.0203L132.639 42.2656Z" fill="#FE0000"/>
<path id="Vector_52" d="M136.125 44.4193C135.911 44.593 135.816 44.8555 135.914 45.0027C136.011 45.1499 136.267 45.1282 136.481 44.9545L138.175 43.5815C138.389 43.4078 138.484 43.1453 138.386 42.998C138.288 42.8508 138.033 42.8726 137.819 43.0463L136.125 44.4193Z" fill="#FE0000"/>
<path id="Vector_53" d="M137.877 48.7683C137.593 48.7469 137.348 48.8551 137.333 49.0087C137.317 49.1623 137.537 49.3056 137.821 49.327L140.066 49.4963C140.35 49.5177 140.594 49.4095 140.61 49.2559C140.625 49.1023 140.405 48.959 140.121 48.9376L137.877 48.7683Z" fill="#FE0000"/>
</g>
</g>
</g>
<defs>
<clipPath id="clip0_83_618">
<rect width="149.353" height="99" fill="white"/>
</clipPath>
</defs>
</svg>
