<svg width="140" height="140" viewBox="0 0 140 140" fill="none" xmlns="http://www.w3.org/2000/svg">
<path d="M70 135C87.2391 135 103.772 128.152 115.962 115.962C128.152 103.772 135 87.2391 135 70C135 52.7609 128.152 36.2279 115.962 24.0381C103.772 11.8482 87.2391 5 70 5C52.7609 5 36.2279 11.8482 24.0381 24.0381C11.8482 36.2279 5 52.7609 5 70C5 87.2391 11.8482 103.772 24.0381 115.962C36.2279 128.152 52.7609 135 70 135Z" stroke="#0060FF" stroke-width="4" stroke-linecap="round" stroke-linejoin="round"/>
<path d="M87.02 52.2201C86.1023 49.6177 84.399 47.3647 82.1454 45.7721C79.8919 44.1796 77.1994 43.3263 74.44 43.3301H64.12C61.1817 43.3253 58.3455 44.4077 56.1575 46.3689C53.9696 48.3302 52.5846 51.0316 52.2692 53.9529C51.9538 56.8743 52.7305 59.809 54.4495 62.192C56.1685 64.575 58.7084 66.2377 61.58 66.8601L77.29 70.3001C80.5018 71.0049 83.3402 72.871 85.2603 75.5404C87.1804 78.2098 88.047 81.4943 87.6936 84.7635C87.3403 88.0327 85.792 91.0562 83.3459 93.2537C80.8998 95.4512 77.7282 96.6678 74.44 96.6701H65.56C62.8001 96.6702 60.108 95.8143 57.8549 94.2203C55.6018 92.6263 53.8986 90.3727 52.98 87.7701" stroke="#FE0000" stroke-width="4" stroke-linecap="round" stroke-linejoin="round"/>
<path d="M70 43.33V30" stroke="#FE0000" stroke-width="4" stroke-linecap="round" stroke-linejoin="round"/>
<path d="M70 110V96.6602" stroke="#FE0000" stroke-width="4" stroke-linecap="round" stroke-linejoin="round"/>
</svg>
