<svg width="140" height="140" viewBox="0 0 140 140" fill="none" xmlns="http://www.w3.org/2000/svg">
<path d="M20.0001 110.621C15.7526 107.934 12.1987 104.284 9.62709 99.9662C7.0555 95.6484 5.53875 90.7848 5.20008 85.7706C4.91881 81.5866 5.46445 77.3882 6.80584 73.4152C8.14723 69.4421 10.2581 65.7721 13.0179 62.6149C15.7777 59.4576 19.1324 56.8749 22.8904 55.0143C26.6484 53.1536 30.7361 52.0514 34.9201 51.7706C35.3537 51.7821 35.7816 51.6697 36.1536 51.4465C36.5256 51.2233 36.8262 50.8986 37.0201 50.5106C39.9076 42.1496 45.5735 35.031 53.0734 30.3412C60.5733 25.6514 69.4541 23.6738 78.2353 24.7381C87.0165 25.8024 95.1677 29.8443 101.33 36.1901C107.492 42.5358 111.294 50.8019 112.1 59.6106C112.168 60.0741 112.367 60.5085 112.673 60.8628C112.98 61.2171 113.381 61.4765 113.83 61.6106C119.27 62.8918 124.186 65.8118 127.914 69.9762C131.641 74.1407 134.001 79.3488 134.673 84.8971C135.346 90.4454 134.3 96.0666 131.676 101.001C129.052 105.936 124.976 109.946 120 112.491" stroke="#0060FF" stroke-width="4" stroke-linecap="round" stroke-linejoin="round"/>
<path d="M81.0801 89.4609L58.9001 100.551" stroke="#FE0000" stroke-width="4" stroke-linecap="round" stroke-linejoin="round"/>
<path d="M80 85C80 87.6522 81.0536 90.1957 82.9289 92.0711C84.8043 93.9464 87.3478 95 90 95C92.6522 95 95.1957 93.9464 97.0711 92.0711C98.9464 90.1957 100 87.6522 100 85C100 82.3478 98.9464 79.8043 97.0711 77.9289C95.1957 76.0536 92.6522 75 90 75C87.3478 75 84.8043 76.0536 82.9289 77.9289C81.0536 79.8043 80 82.3478 80 85Z" stroke="#FE0000" stroke-width="4" stroke-linecap="round" stroke-linejoin="round"/>
<path d="M40 105C40 107.652 41.0536 110.196 42.9289 112.071C44.8043 113.946 47.3478 115 50 115C52.6522 115 55.1957 113.946 57.0711 112.071C58.9464 110.196 60 107.652 60 105C60 102.348 58.9464 99.8043 57.0711 97.9289C55.1957 96.0536 52.6522 95 50 95C47.3478 95 44.8043 96.0536 42.9289 97.9289C41.0536 99.8043 40 102.348 40 105Z" stroke="#FE0000" stroke-width="4" stroke-linecap="round" stroke-linejoin="round"/>
<path d="M80 125C80 127.652 81.0536 130.196 82.9289 132.071C84.8043 133.946 87.3478 135 90 135C92.6522 135 95.1957 133.946 97.0711 132.071C98.9464 130.196 100 127.652 100 125C100 122.348 98.9464 119.804 97.0711 117.929C95.1957 116.054 92.6522 115 90 115C87.3478 115 84.8043 116.054 82.9289 117.929C81.0536 119.804 80 122.348 80 125Z" stroke="#FE0000" stroke-width="4" stroke-linecap="round" stroke-linejoin="round"/>
<path d="M58.9001 109.451L81.0801 120.541" stroke="#FE0000" stroke-width="4" stroke-linecap="round" stroke-linejoin="round"/>
</svg>
