<svg width="17" height="17" viewBox="0 0 17 17" fill="none" xmlns="http://www.w3.org/2000/svg">
<path d="M3.58062 2.29979C3.53397 2.2472 3.47734 2.2044 3.41402 2.17385C3.3507 2.14331 3.28195 2.12564 3.21175 2.12186C3.14155 2.11808 3.0713 2.12828 3.00507 2.15185C2.93884 2.17543 2.87794 2.21191 2.82592 2.25919C2.77389 2.30647 2.73177 2.36361 2.70199 2.42729C2.6722 2.49097 2.65536 2.55993 2.65242 2.63017C2.64949 2.70041 2.66052 2.77053 2.68489 2.83647C2.70926 2.90242 2.74647 2.96287 2.79437 3.01432L4.07202 4.42014C1.66015 5.90034 0.622884 8.18206 0.577064 8.28565C0.546858 8.35359 0.53125 8.42712 0.53125 8.50147C0.53125 8.57582 0.546858 8.64935 0.577064 8.71729C0.600306 8.76975 1.16277 10.0169 2.4132 11.2673C4.07933 12.9328 6.18374 13.8133 8.49999 13.8133C9.6904 13.8201 10.8688 13.575 11.9578 13.0941L13.4187 14.7018C13.4654 14.7544 13.522 14.7972 13.5853 14.8278C13.6486 14.8583 13.7174 14.876 13.7876 14.8798C13.8578 14.8835 13.928 14.8733 13.9943 14.8498C14.0605 14.8262 14.1214 14.7897 14.1734 14.7424C14.2254 14.6951 14.2676 14.638 14.2973 14.5743C14.3271 14.5106 14.344 14.4417 14.3469 14.3714C14.3498 14.3012 14.3388 14.2311 14.3144 14.1651C14.2901 14.0992 14.2529 14.0387 14.205 13.9873L3.58062 2.29979ZM9.49078 10.3808C9.07407 10.6 8.59636 10.6746 8.13266 10.5929C7.66895 10.5112 7.24551 10.2778 6.92883 9.92934C6.61216 9.5809 6.42017 9.13715 6.38303 8.66776C6.34589 8.19838 6.46569 7.72996 6.72363 7.33604L9.49078 10.3808ZM16.4229 8.71729C16.395 8.77971 15.7223 10.2692 14.2076 11.6259C14.1032 11.7196 13.966 11.7682 13.8259 11.7611C13.6859 11.754 13.5543 11.6918 13.4599 11.588L6.73359 4.18905C6.66924 4.11844 6.62513 4.03179 6.60589 3.93821C6.58665 3.84464 6.59299 3.74761 6.62426 3.65734C6.65553 3.56707 6.71056 3.4869 6.78356 3.42528C6.85656 3.36365 6.94482 3.32285 7.03906 3.30717C7.52194 3.22744 8.01057 3.18769 8.49999 3.18831C10.8162 3.18831 12.9207 4.06885 14.5868 5.73499C15.8372 6.98542 16.3997 8.23319 16.4229 8.28565C16.4531 8.35359 16.4687 8.42712 16.4687 8.50147C16.4687 8.57582 16.4531 8.64935 16.4229 8.71729Z" fill="#0060FF"/>
</svg>
