<svg width="543" height="454" viewBox="0 0 543 454" fill="none" xmlns="http://www.w3.org/2000/svg">
<g clip-path="url(#clip0_56_52)">
<path d="M543 368.801H0V371.135H543V368.801Z" fill="#01213A"/>
<path d="M364.288 368.926H117.16C114.611 368.926 112.538 366.856 112.538 364.31V13.8734C112.538 11.3283 114.611 9.25781 117.16 9.25781H364.288C366.837 9.25781 368.91 11.3283 368.91 13.8734V364.311C368.91 366.856 366.837 368.926 364.288 368.926V368.926ZM117.16 11.0067C115.577 11.0067 114.289 12.2928 114.289 13.8734V364.311C114.289 365.891 115.577 367.177 117.16 367.177H364.288C365.871 367.177 367.159 365.891 367.159 364.311V13.8734C367.159 12.2928 365.871 11.0067 364.288 11.0067H117.16ZM354.475 359.163H128.513C125.964 359.163 123.891 357.093 123.891 354.548V23.8929C123.891 21.3478 125.964 19.2774 128.513 19.2774H354.475C357.023 19.2774 359.097 21.3478 359.097 23.8929V354.548C359.097 357.093 357.023 359.163 354.475 359.163ZM128.513 21.0262C126.93 21.0262 125.642 22.3123 125.642 23.8929V354.548C125.642 356.128 126.93 357.415 128.513 357.415H354.475C356.057 357.415 357.345 356.128 357.345 354.548V23.8929C357.345 22.3122 356.057 21.0262 354.475 21.0262H128.513Z" fill="#0060FF"/>
<path d="M354.475 359.163H128.513C125.964 359.163 123.891 357.093 123.891 354.548V23.8929C123.891 21.3478 125.964 19.2773 128.513 19.2773H354.475C357.023 19.2773 359.097 21.3478 359.097 23.8929V354.548C359.097 357.093 357.023 359.163 354.475 359.163ZM128.513 21.0262C126.93 21.0262 125.642 22.3123 125.642 23.8929V354.548C125.642 356.128 126.93 357.415 128.513 357.415H354.475C356.057 357.415 357.345 356.128 357.345 354.548V23.8929C357.345 22.3121 356.057 21.0262 354.475 21.0262H128.513Z" fill="#0060FF"/>
<path d="M354.475 359.163H128.513C125.964 359.163 123.891 357.093 123.891 354.548V23.8929C123.891 21.3478 125.964 19.2773 128.513 19.2773H354.475C357.023 19.2773 359.097 21.3478 359.097 23.8929V354.548C359.097 357.093 357.023 359.163 354.475 359.163ZM128.513 21.0262C126.93 21.0262 125.642 22.3123 125.642 23.8929V354.548C125.642 356.128 126.93 357.415 128.513 357.415H354.475C356.057 357.415 357.345 356.128 357.345 354.548V23.8929C357.345 22.3121 356.057 21.0262 354.475 21.0262H128.513Z" fill="#0060FF"/>
<path d="M395.102 0.875H207.078C194.311 0.875 183.961 11.2105 183.961 23.9599V115.337C183.961 128.087 194.311 138.422 207.078 138.422H395.102C407.87 138.422 418.219 128.087 418.219 115.337V23.9599C418.219 11.2105 407.87 0.875 395.102 0.875Z" fill="white"/>
<path d="M395.103 139.296H207.078C193.849 139.296 183.086 128.548 183.086 115.337V23.9593C183.086 10.7481 193.849 0 207.078 0H395.103C408.332 0 419.095 10.7481 419.095 23.9593V115.337C419.095 128.548 408.332 139.296 395.103 139.296ZM207.078 1.74886C194.815 1.74886 184.837 11.7124 184.837 23.9593V115.337C184.837 127.583 194.815 137.547 207.078 137.547H395.103C407.366 137.547 417.344 127.583 417.344 115.337V23.9593C417.344 11.7124 407.366 1.74886 395.103 1.74886H207.078Z" fill="#01213A"/>
<path d="M338.195 119.796H269.421C264.35 119.796 260.225 115.676 260.225 110.612V53.6586C260.225 48.5946 264.35 44.4746 269.421 44.4746H338.195C343.266 44.4746 347.391 48.5946 347.391 53.6586V110.612C347.391 115.676 343.266 119.796 338.195 119.796ZM269.421 45.699C265.026 45.699 261.451 49.2696 261.451 53.6587V110.612C261.451 115.001 265.026 118.572 269.421 118.572H338.195C342.59 118.572 346.166 115.001 346.166 110.612V53.6586C346.166 49.2696 342.59 45.6988 338.195 45.6988H269.421V45.699Z" fill="#01213A"/>
<path d="M331.292 45.6982H279.532L279.609 45.0172C281.257 30.4701 292.35 19.5 305.412 19.5C318.474 19.5 329.567 30.4701 331.215 45.0172L331.292 45.6982H331.292ZM280.912 44.474H329.912C328.073 30.8863 317.647 20.7244 305.412 20.7244C293.178 20.7244 282.751 30.8863 280.912 44.474H280.912Z" fill="#01213A"/>
<path d="M198.57 271.8C229.69 271.8 254.917 246.608 254.917 215.531C254.917 184.454 229.69 159.262 198.57 159.262C167.451 159.262 142.223 184.454 142.223 215.531C142.223 246.608 167.451 271.8 198.57 271.8Z" fill="white"/>
<path d="M198.57 272.587C183.309 272.587 168.961 266.652 158.17 255.876C147.378 245.099 141.435 230.771 141.435 215.531C141.435 200.29 147.378 185.962 158.17 175.186C168.961 164.41 183.309 158.475 198.57 158.475C213.832 158.475 228.179 164.41 238.971 175.186C249.762 185.962 255.705 200.29 255.705 215.531C255.705 230.771 249.762 245.099 238.971 255.876C228.179 266.652 213.832 272.587 198.57 272.587ZM198.57 160.048C167.935 160.048 143.011 184.938 143.011 215.531C143.011 246.124 167.935 271.013 198.57 271.013C229.206 271.013 254.129 246.124 254.129 215.531C254.129 184.938 229.206 160.048 198.57 160.048Z" fill="#01213A"/>
<path d="M190.302 241.414C189.173 241.414 188.115 240.978 187.321 240.185C187.137 240.002 186.968 239.8 186.82 239.582C186.649 239.442 186.489 239.289 186.342 239.125L166.277 216.663C165.53 215.827 165.153 214.747 165.218 213.621C165.282 212.496 165.778 211.465 166.616 210.719C167.386 210.032 168.381 209.654 169.419 209.654C170.624 209.654 171.772 210.166 172.569 211.058L190.465 231.092L230.736 190.877C231.529 190.085 232.588 189.648 233.716 189.648C234.845 189.648 235.904 190.085 236.697 190.877C237.491 191.669 237.929 192.726 237.929 193.855C237.929 194.983 237.491 196.038 236.697 196.831L193.284 240.185C192.49 240.978 191.431 241.414 190.302 241.414ZM169.419 211.403C168.812 211.403 168.231 211.623 167.783 212.023C167.293 212.459 167.003 213.062 166.966 213.721C166.928 214.38 167.148 215.011 167.583 215.499L187.649 237.961C187.755 238.08 187.875 238.19 188.004 238.287L188.132 238.385L188.217 238.521C188.314 238.676 188.429 238.819 188.557 238.947C189.022 239.411 189.641 239.666 190.302 239.666C190.963 239.666 191.582 239.411 192.045 238.949L235.459 195.594C235.922 195.131 236.177 194.514 236.177 193.855C236.177 193.195 235.922 192.576 235.459 192.115C234.996 191.652 234.377 191.397 233.716 191.397C233.055 191.397 232.436 191.652 231.974 192.114L190.392 233.637L171.262 212.222C170.797 211.701 170.125 211.403 169.419 211.403Z" fill="#FE0000"/>
<path d="M386.994 246.805L301.46 380.983C299.175 384.568 300.233 389.325 303.823 391.607L397.716 451.295C401.306 453.577 406.069 452.521 408.354 448.936L493.888 314.757C496.173 311.172 495.115 306.416 491.525 304.134L397.632 244.446C394.042 242.163 389.279 243.22 386.994 246.805Z" fill="white"/>
<path d="M401.84 453.367C400.264 453.367 398.671 452.935 397.246 452.029L303.352 392.342C299.36 389.804 298.18 384.497 300.721 380.511L386.254 246.332C387.481 244.408 389.392 243.075 391.635 242.577C393.879 242.08 396.175 242.48 398.102 243.705L491.995 303.393C493.921 304.617 495.257 306.525 495.755 308.766C496.253 311.006 495.852 313.3 494.626 315.223L409.093 449.402C407.459 451.965 404.678 453.367 401.84 453.367L401.84 453.367ZM398.186 450.554C401.363 452.573 405.593 451.636 407.615 448.463L493.148 314.284C494.123 312.754 494.442 310.929 494.045 309.145C493.648 307.36 492.586 305.841 491.054 304.868L397.161 245.18C395.629 244.206 393.801 243.888 392.015 244.285C390.228 244.681 388.707 245.741 387.732 247.271L302.199 381.45C301.224 382.979 300.905 384.805 301.302 386.589C301.699 388.373 302.761 389.893 304.292 390.866L398.186 450.554Z" fill="#01213A"/>
<path d="M338.218 357.218L321.441 383.536C320.818 384.514 321.106 385.811 322.085 386.434L337.334 396.127C338.313 396.75 339.612 396.462 340.235 395.484L357.012 369.166C357.636 368.188 357.347 366.891 356.368 366.268L341.119 356.575C340.14 355.952 338.841 356.24 338.218 357.218Z" fill="white"/>
<path d="M338.458 397.327C337.911 397.327 337.358 397.177 336.864 396.863L321.615 387.169C320.23 386.289 319.821 384.448 320.702 383.065L337.479 356.746C337.905 356.079 338.568 355.616 339.345 355.443C340.123 355.271 340.92 355.41 341.589 355.835L356.838 365.529C357.507 365.954 357.97 366.616 358.143 367.393C358.316 368.169 358.176 368.965 357.751 369.633L340.974 395.951C340.407 396.84 339.442 397.327 338.458 397.327ZM337.804 395.387C338.374 395.75 339.134 395.581 339.497 395.012L356.273 368.694C356.448 368.42 356.505 368.093 356.434 367.772C356.362 367.451 356.172 367.178 355.897 367.004L340.649 357.31C340.374 357.136 340.046 357.08 339.725 357.15C339.404 357.222 339.131 357.412 338.956 357.686L322.18 384.004C322.005 384.278 321.948 384.605 322.02 384.926C322.091 385.247 322.281 385.52 322.555 385.694L337.804 395.388V395.387Z" fill="#01213A"/>
<path d="M356.651 409.964L355.27 412.171L356.619 413.322C356.685 413.177 356.745 413.042 356.878 412.828C357.157 412.383 357.533 411.999 357.97 411.777C358.512 411.484 359.245 411.422 359.976 411.878C361.107 412.584 361.391 414.011 360.606 415.266C360.211 415.897 359.699 416.32 359.348 416.485L358.873 415.916C359.166 415.765 359.639 415.405 359.968 414.88C360.43 414.141 360.344 413.209 359.569 412.725C358.815 412.267 357.968 412.432 357.245 413.589C357.039 413.918 356.913 414.198 356.806 414.429L354.26 412.32L355.992 409.553L356.651 409.964V409.964Z" fill="#0060FF"/>
<path d="M359.595 405.418L359.584 405.435L359.499 406.78L358.807 406.559L358.921 404.872L359.338 404.205L365.13 407.819L364.657 408.576L359.596 405.417L359.595 405.418Z" fill="#0060FF"/>
<path d="M364.591 397.274L363.21 399.481L364.559 400.632C364.625 400.488 364.684 400.352 364.818 400.139C365.096 399.693 365.473 399.31 365.909 399.087C366.452 398.795 367.185 398.732 367.916 399.188C369.047 399.894 369.331 401.321 368.546 402.576C368.151 403.208 367.638 403.63 367.288 403.795L366.813 403.227C367.106 403.076 367.579 402.715 367.908 402.19C368.37 401.452 368.284 400.52 367.509 400.036C366.755 399.578 365.908 399.742 365.185 400.899C364.978 401.229 364.853 401.509 364.746 401.739L362.2 399.63L363.932 396.863L364.591 397.275V397.274Z" fill="#0060FF"/>
<path d="M371.533 397.586L371.052 397.286L370.84 396.299C370.356 393.944 370.025 392.809 369.157 392.255C368.569 391.888 367.847 391.834 367.307 392.697C366.979 393.222 366.973 393.825 367.029 394.231L366.321 394.135C366.233 393.523 366.34 392.798 366.757 392.131C367.536 390.885 368.72 390.894 369.549 391.411C370.618 392.078 370.998 393.392 371.411 395.345L371.55 396.074L371.568 396.085L373.194 393.487L373.844 393.893L371.533 397.586L371.533 397.586Z" fill="#0060FF"/>
<path d="M377.093 378.049C376.984 378.204 376.865 378.414 376.761 378.658C376.198 380.014 376.691 381.225 377.561 381.954L377.578 381.927C377.385 381.423 377.383 380.754 377.784 380.113C378.424 379.09 379.615 378.83 380.747 379.537C381.807 380.198 382.336 381.531 381.584 382.732C380.81 383.969 379.341 384.178 377.835 383.238C376.695 382.527 376.051 381.556 375.837 380.63C375.666 379.855 375.772 379.031 376.14 378.246C376.249 377.992 376.363 377.791 376.452 377.648L377.093 378.049ZM380.296 380.356C379.467 379.839 378.673 379.999 378.222 380.72C377.927 381.192 377.948 381.811 378.233 382.286C378.289 382.395 378.382 382.503 378.525 382.592C379.49 383.169 380.466 383.172 380.978 382.354C381.402 381.678 381.124 380.873 380.296 380.356Z" fill="#0060FF"/>
<path d="M382.722 377.428C381.992 376.973 381.748 376.214 381.89 375.313L381.858 375.305C381.154 375.757 380.482 375.722 379.983 375.41C379.065 374.837 378.926 373.674 379.561 372.66C380.263 371.538 381.317 371.417 382.039 371.867C382.529 372.173 382.904 372.742 382.797 373.665L382.824 373.681C383.56 373.139 384.347 373.011 385.051 373.45C386.058 374.078 386.195 375.364 385.504 376.467C384.747 377.678 383.569 377.957 382.722 377.428H382.722ZM380.392 374.638C380.971 374.999 381.556 374.758 382.152 374.202C382.294 373.598 382.177 372.993 381.651 372.665C381.188 372.376 380.534 372.351 380.094 373.054C379.688 373.704 379.893 374.327 380.392 374.638V374.638ZM384.635 374.292C383.931 373.853 383.287 374.131 382.574 374.775C382.347 375.573 382.564 376.216 383.116 376.561C383.688 376.955 384.483 376.832 384.945 376.094C385.385 375.391 385.232 374.665 384.635 374.292Z" fill="#0060FF"/>
<path d="M384.765 364.562L385.282 364.885L388.981 370.695L388.474 371.505L384.921 365.798L384.903 365.787L383.133 368.617L382.482 368.211L384.765 364.563L384.765 364.562Z" fill="#0060FF"/>
<path d="M391.394 364.838C391.676 364.704 392.222 364.327 392.561 363.785C393.191 362.779 392.744 362.067 392.257 361.776C391.441 361.279 390.637 361.792 390.163 362.548L389.891 362.984L389.302 362.617L389.575 362.181C389.932 361.612 390.089 360.707 389.403 360.279C388.939 359.99 388.346 360.028 387.895 360.749C387.605 361.212 387.532 361.784 387.554 362.145L386.856 361.993C386.822 361.552 386.967 360.826 387.357 360.203C388.07 359.064 389.069 358.97 389.774 359.409C390.371 359.782 390.656 360.455 390.469 361.328L390.487 361.339C391.075 360.716 391.971 360.471 392.782 360.977C393.709 361.556 394.069 362.783 393.2 364.171C392.794 364.82 392.232 365.262 391.867 365.43L391.395 364.838L391.394 364.838Z" fill="#0060FF"/>
<path d="M408.191 340.694C408.314 340.537 408.419 340.33 408.559 340.046C408.781 339.553 408.861 339.009 408.755 338.486C408.647 337.886 408.312 337.293 407.692 336.758L407.675 336.785C407.867 337.35 407.809 337.957 407.447 338.536C406.796 339.577 405.594 339.755 404.605 339.138C403.509 338.454 403.042 337.061 403.783 335.878C404.523 334.694 405.942 334.565 407.422 335.488C408.696 336.283 409.319 337.266 409.516 338.18C409.674 338.898 409.557 339.678 409.238 340.346C409.105 340.659 408.958 340.913 408.832 341.094L408.191 340.694V340.694ZM405.036 338.33C405.758 338.78 406.539 338.662 406.962 337.985C407.29 337.46 407.288 336.889 407.068 336.468C407.025 336.379 406.953 336.297 406.828 336.219C405.839 335.602 404.853 335.494 404.341 336.312C403.923 336.98 404.216 337.818 405.036 338.33V338.33Z" fill="#0060FF"/>
<path d="M411.646 334.4C411.928 334.267 412.474 333.89 412.813 333.347C413.442 332.342 412.996 331.63 412.509 331.339C411.693 330.842 410.889 331.354 410.415 332.111L410.142 332.547L409.554 332.18L409.827 331.744C410.183 331.174 410.34 330.27 409.654 329.842C409.191 329.553 408.597 329.59 408.147 330.311C407.857 330.774 407.784 331.347 407.806 331.707L407.108 331.556C407.074 331.115 407.219 330.388 407.609 329.765C408.321 328.626 409.321 328.533 410.025 328.972C410.622 329.345 410.907 330.018 410.721 330.891L410.738 330.902C411.326 330.279 412.223 330.034 413.034 330.54C413.961 331.118 414.321 332.345 413.452 333.733C413.045 334.383 412.484 334.824 412.119 334.992L411.647 334.401L411.646 334.4Z" fill="#0060FF"/>
<path d="M416.399 328.805L415.918 328.504L415.705 327.518C415.221 325.162 414.891 324.028 414.023 323.474C413.435 323.107 412.713 323.053 412.173 323.915C411.845 324.441 411.839 325.043 411.895 325.449L411.186 325.354C411.098 324.742 411.205 324.017 411.623 323.349C412.402 322.104 413.586 322.113 414.415 322.63C415.484 323.297 415.864 324.61 416.277 326.563L416.416 327.293L416.433 327.304L418.059 324.706L418.71 325.112L416.399 328.804L416.399 328.805Z" fill="#0060FF"/>
<path d="M419.816 316.769C421.785 317.998 422.416 319.406 421.614 320.687C420.907 321.818 419.368 321.921 417.441 320.744C415.498 319.531 414.953 318.028 415.688 316.853C416.45 315.634 417.972 315.618 419.816 316.769ZM417.94 319.966C419.446 320.906 420.591 320.977 421.036 320.265C421.537 319.464 420.841 318.498 419.362 317.575C417.936 316.685 416.773 316.466 416.266 317.276C415.837 317.961 416.363 318.982 417.94 319.966Z" fill="#0060FF"/>
<path d="M430.442 307.074L428.865 306.089L427.184 308.777L426.667 308.454L424.583 303.566L425.113 302.721L428.712 304.967L429.219 304.157L429.834 304.541L429.327 305.351L430.905 306.335L430.442 307.074H430.442ZM428.25 305.706L426.317 304.499C426.014 304.31 425.716 304.112 425.425 303.905L425.408 303.932C425.635 304.321 425.795 304.62 425.962 304.946L427.046 307.59L427.064 307.601L428.25 305.706H428.25Z" fill="#0060FF"/>
<path d="M432.115 302.401C432.397 302.267 432.942 301.89 433.282 301.347C433.911 300.342 433.464 299.63 432.978 299.339C432.161 298.841 431.357 299.354 430.884 300.111L430.611 300.547L430.023 300.18L430.296 299.744C430.652 299.174 430.809 298.27 430.123 297.842C429.66 297.553 429.066 297.59 428.615 298.311C428.326 298.774 428.252 299.347 428.275 299.707L427.576 299.556C427.543 299.114 427.688 298.388 428.077 297.765C428.79 296.626 429.79 296.533 430.494 296.972C431.091 297.344 431.376 298.017 431.189 298.89L431.207 298.902C431.795 298.279 432.692 298.034 433.503 298.54C434.429 299.118 434.789 300.345 433.921 301.733C433.514 302.383 432.953 302.824 432.588 302.992L432.115 302.401L432.115 302.401Z" fill="#0060FF"/>
<path d="M436.868 296.803L436.387 296.502L436.174 295.516C435.691 293.16 435.36 292.026 434.492 291.472C433.904 291.105 433.182 291.051 432.642 291.914C432.314 292.439 432.308 293.041 432.364 293.448L431.656 293.352C431.567 292.74 431.674 292.015 432.092 291.348C432.872 290.102 434.055 290.111 434.884 290.628C435.953 291.295 436.333 292.608 436.747 294.562L436.885 295.291L436.903 295.302L438.529 292.704L439.179 293.11L436.868 296.803L436.868 296.803Z" fill="#0060FF"/>
<path d="M440.838 290.459L440.357 290.159L440.144 289.172C439.66 286.816 439.329 285.682 438.462 285.128C437.874 284.761 437.152 284.707 436.612 285.57C436.283 286.095 436.278 286.698 436.334 287.104L435.625 287.008C435.537 286.397 435.644 285.671 436.062 285.004C436.841 283.758 438.025 283.767 438.854 284.284C439.923 284.951 440.303 286.265 440.716 288.218L440.854 288.947L440.872 288.958L442.498 286.36L443.149 286.766L440.838 290.459L440.838 290.459Z" fill="#0060FF"/>
<path d="M298.743 354.12C298.496 355.394 297.314 356.035 286.348 358.288H234.049C236.223 353.761 241.685 342.402 251.788 337.446C271.58 327.742 300.103 347.078 298.743 354.12H298.743Z" fill="#01213A"/>
<path d="M291.349 238.563C288.646 240.728 290.656 242.639 286.156 249.511C282.437 255.192 279.783 255.842 278.078 260.171C275.946 265.585 277.585 270.947 278.078 272.56C282.11 285.753 299.38 290.599 304.909 292.151C310.938 293.843 323.518 297.373 336.645 290.998C346.322 286.299 351.109 278.737 353.378 275.152C356.133 270.801 361.702 262.003 358.571 257.29C356.746 254.542 353.393 255.335 341.838 252.104C340.708 251.788 337.815 250.837 332.029 248.935C304.985 240.044 296.424 234.498 291.349 238.563H291.349Z" fill="white"/>
<path d="M320.393 295.101C313.804 295.101 308.241 293.539 304.79 292.571C299.095 290.973 281.761 286.109 277.659 272.686C276.215 267.961 276.219 263.697 277.67 260.01C278.629 257.575 279.855 256.291 281.406 254.666C282.676 253.335 284.116 251.827 285.789 249.271C288.144 245.675 288.682 243.471 289.076 241.862C289.435 240.39 289.695 239.327 291.075 238.221C294.869 235.182 300.159 237.113 312.94 241.782C318.013 243.636 324.325 245.942 332.165 248.519L332.2 248.53C337.951 250.421 340.837 251.369 341.955 251.682C346.348 252.911 349.579 253.561 351.938 254.036C355.898 254.833 357.706 255.197 358.935 257.047C362.223 261.997 356.499 271.039 353.748 275.385C351.436 279.038 346.625 286.638 336.836 291.391C331.08 294.186 325.436 295.101 320.393 295.101H320.393ZM291.623 238.903C290.475 239.823 290.269 240.668 289.926 242.069C289.518 243.74 288.959 246.028 286.522 249.75C284.805 252.372 283.336 253.912 282.04 255.269C280.554 256.825 279.381 258.054 278.485 260.33C277.107 263.828 277.111 267.9 278.496 272.431C282.459 285.396 299.445 290.163 305.027 291.729C311.014 293.41 323.474 296.907 336.452 290.605C346.017 285.96 350.738 278.502 353.007 274.918C355.66 270.727 361.18 262.008 358.206 257.531C357.177 255.982 355.592 255.663 351.765 254.893C349.392 254.415 346.143 253.761 341.719 252.524C340.582 252.206 337.689 251.255 331.926 249.361L331.891 249.35C324.038 246.768 317.717 244.459 312.639 242.604C300.186 238.055 295.032 236.172 291.623 238.903L291.623 238.903Z" fill="#01213A"/>
<path d="M303.755 243.748C303.23 243.863 291.144 246.324 284.714 238.562C284.042 237.752 280.563 233.545 281.54 228.479C282.587 223.051 288.219 219.539 292.792 218.683C298.287 217.654 299.958 220.893 305.198 219.547C310.203 218.262 310.03 214.958 314.718 213.209C320.553 211.031 326.657 213.971 334.048 217.53C340.918 220.839 345.398 224.664 348.473 227.326C352.83 231.098 357.07 234.835 360.591 241.155C362.052 243.779 364.263 247.84 364.918 253.544C365.321 257.053 364.96 259.661 364.341 263.916C363.185 271.859 362.754 275.851 360.879 278.321C357.349 282.972 354.245 280.334 346.742 286.388C342.976 289.427 341.534 291.887 337.51 292.726C337.04 292.824 332.316 293.76 330.874 291.574C329.515 289.513 331.821 285.807 332.894 284.083C334.42 281.632 335.314 281.521 338.087 277.745C340.064 275.053 339.627 275.085 340.684 274C343.483 271.123 345.8 271.666 348.185 269.39C349.055 268.559 351.344 266.334 351.07 263.34C350.88 261.262 349.46 258.885 347.031 258.154C344.328 257.34 341.47 258.895 340.395 260.747C339.58 262.15 340.05 263.274 338.953 264.492C338.35 265.162 336.953 266.223 335.779 265.933C332.87 265.212 334.985 257.083 330.009 252.68C329.448 252.184 328 251.485 325.104 250.087C324.155 249.628 321.078 248.167 316.738 246.629C314.633 245.884 313.236 245.389 311.256 244.901C308.223 244.153 305.621 243.866 303.755 243.748Z" fill="#01213A"/>
<path d="M288.235 276.331C289.038 275.52 290.009 274.85 291.089 274.415C291.355 274.294 291.635 274.212 291.913 274.121C292.196 274.05 292.478 273.969 292.768 273.925C293.056 273.863 293.35 273.849 293.642 273.82C293.936 273.812 294.231 273.798 294.525 273.822C295.7 273.891 296.867 274.271 297.837 274.933C298.808 275.594 299.58 276.51 300.081 277.536C299.394 276.625 298.571 275.839 297.618 275.279C297.497 275.213 297.379 275.142 297.254 275.084C297.132 275.02 297.008 274.961 296.881 274.907C296.758 274.847 296.626 274.806 296.498 274.757C296.37 274.709 296.242 274.66 296.108 274.628C295.585 274.462 295.039 274.376 294.492 274.345C294.219 274.319 293.944 274.328 293.669 274.331C293.394 274.353 293.119 274.368 292.847 274.414C292.572 274.444 292.303 274.509 292.031 274.565L291.63 274.675C291.495 274.707 291.363 274.751 291.232 274.797C290.171 275.143 289.178 275.687 288.235 276.331V276.331Z" fill="#01213A"/>
<path d="M283.559 276.881C272.151 272.526 268.94 273.164 258.748 267.949C255.353 266.212 254.347 265.444 245.476 260.746C241.534 258.659 238.04 256.954 231.051 253.544C222.208 249.229 220.616 248.61 218.068 248.646C216.61 248.667 209.562 248.767 206.817 254.12C205.268 257.141 206.439 260.262 208.799 266.358C211.774 274.041 215.928 279.764 220.376 285.812C222.345 288.488 223.329 289.827 224.127 290.71C235.824 303.649 252.005 300.001 255.574 309.149C256.932 312.628 255.911 316.543 255.286 318.944C254.24 322.956 252.759 323.715 249.516 330.469C247.295 335.093 246.184 337.406 245.765 340.552C245.592 341.847 244.857 347.365 247.496 352.365C249.364 355.903 252.689 358.741 261.921 362.16C273.059 366.285 282.386 367.402 287.021 367.922C313.85 370.935 310.282 367.725 320.776 370.515C322.22 370.899 325.232 371.763 327.412 370.227C329.837 368.519 328.439 364.966 329.432 358.127C330.678 349.537 334.119 347.76 333.759 340.552C333.565 336.662 331.703 333.961 332.317 333.638C332.966 333.295 334.634 336.417 338.664 340.552C341.42 343.381 342.157 343.478 348.761 349.195C352.143 352.123 352.717 352.762 353.954 353.805C360.194 359.066 369.643 360.938 388.287 364.465C390.868 364.954 393.182 365.358 395.499 364.177C399.725 362.023 403.358 356.008 401.269 350.924C400.098 348.074 397.475 346.617 396.365 346.026C375.882 335.129 369.412 331.889 363.475 327.876C361.775 326.727 356.86 322.5 347.03 314.047C336.876 305.314 336.585 304.703 333.182 302.234C326.69 297.525 323.802 296.886 309.813 290.134C290.002 280.57 292.827 280.418 283.559 276.881H283.559Z" fill="#0060FF"/>
<path d="M324.313 371.54C322.918 371.54 321.608 371.19 320.786 370.97L320.664 370.938C315.704 369.619 313.969 369.656 310.513 369.729C306.723 369.81 300.997 369.932 286.973 368.357C282.859 367.895 273.224 366.813 261.769 362.57C252.092 358.986 248.91 355.979 247.109 352.568C245.875 350.231 244.565 346.239 245.331 340.495C245.76 337.279 246.883 334.939 249.121 330.279C250.534 327.337 251.607 325.538 252.469 324.092C253.563 322.259 254.285 321.048 254.862 318.834C255.464 316.523 256.473 312.655 255.166 309.307C253.524 305.098 249.066 303.718 243.422 301.971C237.418 300.112 229.946 297.799 223.802 291.002C222.993 290.108 222.01 288.771 220.052 286.109L220.024 286.07C215.807 280.338 211.447 274.41 208.391 266.516C206.055 260.481 204.768 257.156 206.427 253.92C208.275 250.317 212.407 248.289 218.062 248.209C220.671 248.172 222.269 248.772 231.244 253.151C238.226 256.558 241.731 258.268 245.682 260.36C250.656 262.994 253.165 264.397 254.997 265.422C256.428 266.222 257.462 266.8 258.948 267.56C264.959 270.635 268.598 271.683 272.811 272.896C275.741 273.739 279.061 274.695 283.716 276.472C288.377 278.251 289.999 279.179 292.942 280.863C295.793 282.494 300.103 284.96 310.004 289.74C314.056 291.696 317.198 293.148 319.723 294.316C325.952 297.196 328.796 298.511 333.44 301.88C335.506 303.378 336.403 304.171 339.066 306.522C340.843 308.092 343.278 310.242 347.317 313.715L347.332 313.728C357.127 322.151 362.044 326.379 363.721 327.513C368.577 330.796 373.927 333.631 386.851 340.481C389.695 341.988 392.909 343.692 396.572 345.64C397.521 346.146 400.413 347.684 401.675 350.758C403.83 356.002 400.255 362.244 395.699 364.566C393.201 365.84 390.662 365.359 388.206 364.895C370.101 361.469 360.127 359.582 353.673 354.139C353.142 353.691 352.738 353.323 352.179 352.813C351.436 352.135 350.418 351.207 348.475 349.526C345.521 346.968 343.736 345.532 342.433 344.483C340.793 343.163 339.89 342.437 338.351 340.857C336.438 338.894 335.063 337.171 334.06 335.912C333.561 335.286 333.049 334.645 332.708 334.299C332.782 334.56 332.9 334.896 333.009 335.209C333.437 336.438 334.085 338.295 334.197 340.53C334.399 344.574 333.437 346.941 332.322 349.683C331.431 351.873 330.422 354.356 329.865 358.189C329.495 360.744 329.461 362.857 329.433 364.554C329.387 367.468 329.356 369.394 327.665 370.585C326.638 371.308 325.448 371.54 324.313 371.54L324.313 371.54ZM312.483 368.826C314.849 368.826 316.87 369.024 320.889 370.093L321.012 370.126C322.478 370.517 325.207 371.246 327.16 369.87C328.487 368.935 328.514 367.281 328.558 364.54C328.585 362.818 328.62 360.674 328.999 358.064C329.57 354.125 330.601 351.59 331.51 349.353C332.586 346.709 333.515 344.424 333.322 340.574C333.217 338.464 332.594 336.678 332.182 335.497C331.777 334.336 331.509 333.569 332.113 333.251C332.776 332.901 333.353 333.622 334.745 335.367C335.737 336.611 337.095 338.315 338.978 340.247C340.48 341.789 341.369 342.504 342.982 343.802C344.29 344.855 346.082 346.297 349.049 348.865C351 350.554 352.022 351.486 352.768 352.167C353.32 352.67 353.719 353.034 354.237 353.471C360.262 358.551 369.055 360.381 388.369 364.035C390.786 364.492 393.069 364.924 395.301 363.787C399.509 361.643 402.782 355.757 400.865 351.09C399.722 348.307 397.041 346.881 396.16 346.412C392.498 344.464 389.284 342.76 386.44 341.253C373.487 334.388 368.125 331.546 363.23 328.237C361.511 327.075 356.581 322.836 346.76 314.39L346.745 314.377C342.701 310.9 340.265 308.748 338.486 307.177C335.846 304.846 334.957 304.061 332.925 302.587C328.35 299.268 325.531 297.965 319.355 295.109C316.827 293.94 313.681 292.486 309.623 290.527C299.694 285.734 295.369 283.259 292.507 281.622C289.601 279.959 288.001 279.044 283.403 277.289C278.783 275.525 275.482 274.574 272.569 273.736C268.311 272.51 264.635 271.452 258.549 268.338C257.049 267.571 256.009 266.989 254.57 266.185C252.742 265.163 250.237 263.762 245.272 261.133C241.334 259.047 237.833 257.339 230.86 253.937C222.05 249.639 220.497 249.053 218.075 249.083C212.759 249.159 208.9 251.018 207.207 254.319C205.786 257.09 206.794 259.964 209.208 266.201C212.222 273.987 216.547 279.867 220.73 285.553L220.758 285.591C222.699 288.23 223.673 289.555 224.452 290.417C230.436 297.035 237.473 299.213 243.682 301.135C249.319 302.881 254.187 304.388 255.983 308.99C257.392 312.602 256.339 316.641 255.71 319.054C255.101 321.389 254.354 322.643 253.222 324.54C252.368 325.971 251.306 327.751 249.911 330.657C247.713 335.234 246.61 337.532 246.199 340.61C245.464 346.127 246.709 349.936 247.884 352.161C249.591 355.394 252.657 358.263 262.074 361.75C273.429 365.956 282.988 367.03 287.071 367.488C301.036 369.056 306.728 368.935 310.494 368.855C311.21 368.84 311.859 368.826 312.483 368.826L312.483 368.826Z" fill="white"/>
<path d="M249.069 303.506C250.076 303.603 251.059 303.767 252.038 303.945C253.016 304.125 253.986 304.326 254.953 304.535L257.845 305.173C258.327 305.278 258.809 305.379 259.293 305.469C259.778 305.561 260.26 305.637 260.766 305.639C260.291 305.83 259.768 305.871 259.263 305.898C258.754 305.916 258.247 305.894 257.744 305.853C256.738 305.767 255.746 305.602 254.767 305.39C253.788 305.177 252.822 304.916 251.869 304.609C250.918 304.299 249.977 303.951 249.069 303.506H249.069Z" fill="white"/>
<path d="M196.862 239.739C203.531 233.474 207.503 233.001 209.905 233.747C212.864 234.666 214.972 237.912 216.427 237.133C217.713 236.446 216.656 233.593 218.514 232.184C219.497 231.438 221.09 231.253 221.905 231.923C222.945 232.778 222.361 234.73 221.905 237.915C221.097 243.563 222.012 244.129 221.383 246.251C219.835 251.474 211.581 257.733 204.166 254.587C198.965 252.381 195.743 246.211 196.862 239.738L196.862 239.739Z" fill="white"/>
<path d="M208.357 255.863C206.844 255.863 205.371 255.573 203.995 254.989C198.481 252.65 195.299 246.205 196.43 239.664L196.455 239.52L196.562 239.42C202.016 234.295 206.55 232.246 210.035 233.329C211.468 233.774 212.669 234.703 213.728 235.523C214.777 236.334 215.683 237.035 216.22 236.748C216.61 236.539 216.693 235.88 216.79 235.117C216.926 234.045 217.096 232.71 218.249 231.835C219.313 231.028 221.148 230.735 222.183 231.586C223.224 232.441 222.973 233.993 222.592 236.342C222.508 236.858 222.422 237.391 222.338 237.977C221.901 241.033 221.975 242.573 222.028 243.697C222.074 244.654 222.107 245.346 221.803 246.375C220.874 249.507 217.762 252.784 214.057 254.528C212.171 255.416 210.234 255.863 208.357 255.863H208.357ZM197.269 239.956C196.277 246.052 199.233 252.019 204.337 254.184C207.989 255.734 211.436 254.797 213.684 253.737C217.176 252.092 220.102 249.034 220.963 246.127C221.226 245.24 221.197 244.642 221.154 243.738C221.099 242.579 221.022 240.992 221.471 237.853C221.556 237.259 221.647 236.698 221.728 236.202C222.06 234.152 222.28 232.797 221.627 232.26C221.001 231.746 219.643 231.875 218.778 232.531C217.918 233.184 217.786 234.222 217.659 235.227C217.537 236.188 217.422 237.097 216.633 237.518C215.596 238.073 214.482 237.212 213.192 236.214C212.192 235.44 211.057 234.562 209.775 234.164C206.635 233.188 202.428 235.137 197.269 239.956L197.269 239.956Z" fill="#01213A"/>
<path d="M398.823 345.752C399.229 345.416 403.723 341.749 405.338 342.956C406.249 343.635 406.284 345.889 405.338 346.863C404.855 347.361 404.163 347.436 404.179 347.5C404.2 347.588 406.191 346.61 408.179 346.805C409.976 346.982 411.879 348.126 412.874 349.816C414.888 353.232 412.281 357.329 411.831 358.036C409.43 361.809 405.314 362.615 404.701 362.725C400.104 363.549 393.953 361.477 392.643 356.994C391.201 352.059 396.612 347.582 398.823 345.752Z" fill="white"/>
<path d="M402.654 363.338C398.236 363.338 393.388 361.104 392.222 357.116C390.7 351.905 396.197 347.357 398.544 345.415C399.748 344.419 403.816 341.272 405.6 342.605C406.079 342.963 406.392 343.649 406.459 344.488C406.507 345.089 406.426 345.854 406.111 346.503C406.753 346.375 407.486 346.298 408.222 346.37C410.24 346.569 412.215 347.834 413.252 349.594C415.192 352.886 413.163 356.758 412.201 358.27C409.832 361.993 405.92 362.951 404.778 363.155C404.094 363.278 403.38 363.338 402.654 363.338L402.654 363.338ZM399.102 346.088C396.888 347.921 391.702 352.212 393.063 356.871C394.29 361.069 400.139 363.099 404.623 362.294C405.373 362.16 409.228 361.312 411.461 357.801C412.337 356.425 414.192 352.913 412.497 350.037C411.611 348.533 409.858 347.409 408.136 347.24C406.736 347.103 405.288 347.603 404.67 347.816C404.301 347.944 404.164 347.991 403.973 347.887L403.803 347.795L403.754 347.604C403.652 347.191 404.069 347.054 404.205 347.009C404.415 346.94 404.766 346.824 405.024 346.559C405.429 346.142 405.65 345.356 405.586 344.557C405.541 343.986 405.345 343.507 405.076 343.306C404.069 342.553 400.952 344.558 399.103 346.088L399.102 346.088Z" fill="#01213A"/>
<path d="M103.093 34.069C101.642 34.069 100.46 32.8896 100.46 31.4398C100.46 29.99 101.642 28.8105 103.093 28.8105C104.545 28.8105 105.726 29.99 105.726 31.4398C105.726 32.8896 104.545 34.069 103.093 34.069ZM103.093 29.5101C102.028 29.5101 101.161 30.3758 101.161 31.4398C101.161 32.5038 102.028 33.3695 103.093 33.3695C104.159 33.3695 105.026 32.5038 105.026 31.4398C105.026 30.3758 104.159 29.5101 103.093 29.5101Z" fill="#FE0000"/>
<path d="M381.851 229.663C380.399 229.663 379.218 228.483 379.218 227.034C379.218 225.584 380.399 224.404 381.851 224.404C383.302 224.404 384.484 225.584 384.484 227.034C384.484 228.483 383.302 229.663 381.851 229.663ZM381.851 225.104C380.785 225.104 379.918 225.97 379.918 227.034C379.918 228.098 380.785 228.963 381.851 228.963C382.916 228.963 383.783 228.098 383.783 227.034C383.783 225.97 382.916 225.104 381.851 225.104Z" fill="#FE0000"/>
<path d="M89.8217 304.067C90.1755 301.579 90.7543 301.579 91.108 304.067C91.4618 306.555 93.7896 308.88 96.2809 309.233C98.7723 309.586 98.7723 310.164 96.2809 310.517C93.7896 310.871 91.4618 313.195 91.108 315.683C90.7543 318.171 90.1755 318.171 89.8217 315.683C89.468 313.195 87.1402 310.871 84.6488 310.517C82.1574 310.164 82.1574 309.586 84.6488 309.233C87.1402 308.88 89.468 306.555 89.8217 304.067Z" fill="#FE0000"/>
<path d="M444.11 25.5066C444.464 23.0186 445.042 23.0186 445.396 25.5066C445.75 27.9945 448.078 30.3191 450.569 30.6723C453.06 31.0256 453.06 31.6036 450.569 31.9569C448.078 32.3101 445.75 34.6347 445.396 37.1226C445.042 39.6106 444.464 39.6106 444.11 37.1226C443.756 34.6347 441.428 32.3101 438.937 31.9569C436.446 31.6036 436.446 31.0256 438.937 30.6723C441.428 30.3191 443.756 27.9945 444.11 25.5066Z" fill="#FE0000"/>
</g>
<defs>
<clipPath id="clip0_56_52">
<rect width="543" height="453.369" fill="white"/>
</clipPath>
</defs>
</svg>
