<svg width="553" height="364" viewBox="0 0 553 364" fill="none" xmlns="http://www.w3.org/2000/svg">
<g clip-path="url(#clip0_69_10119)">
<path d="M553 361.305H0V364.001H553V361.305Z" fill="#0060FF"/>
<path d="M403.673 37.748H99.4218C87.0241 37.748 76.8805 47.9238 76.8805 60.3608V299.595C76.8805 312.032 87.0241 322.207 99.4218 322.207H403.673C416.071 322.207 426.215 312.032 426.215 299.595V60.361C426.215 47.924 416.071 37.7482 403.673 37.7482L403.673 37.748ZM415.434 289.88C415.434 302.317 405.29 312.493 392.893 312.493H108.556C96.1586 312.493 86.0151 302.317 86.0151 289.88V69.7993C86.0151 57.3622 96.1586 47.1865 108.556 47.1865H392.893C405.29 47.1865 415.434 57.3622 415.434 69.7993V289.88V289.88Z" fill="white"/>
<path d="M402.755 322.208H98.9916C86.0559 322.208 75.5317 311.655 75.5317 298.683V59.9253C75.5317 46.9537 86.0557 36.4004 98.9916 36.4004H402.755C415.691 36.4004 426.215 46.9537 426.215 59.9253V298.683C426.215 311.655 415.691 322.208 402.755 322.208ZM98.9916 38.3147C87.1084 38.3147 77.4407 48.0092 77.4407 59.9253V298.683C77.4407 310.599 87.1084 320.294 98.9916 320.294H402.755C414.638 320.294 424.306 310.599 424.306 298.683V59.9253C424.306 48.0091 414.638 38.3147 402.755 38.3147H98.9916ZM391.992 312.513H108.111C95.1758 312.513 84.6518 301.959 84.6518 288.988V69.3446C84.6518 56.3729 95.1758 45.8196 108.111 45.8196H391.992C404.927 45.8196 415.451 56.3729 415.451 69.3446V288.988C415.451 301.959 404.927 312.513 391.992 312.513ZM108.111 47.734C96.2285 47.734 86.5609 57.4285 86.5609 69.3446V288.988C86.5609 300.904 96.2285 310.598 108.111 310.598H391.992C403.875 310.598 413.542 300.904 413.542 288.988V69.3446C413.542 57.4283 403.875 47.734 391.992 47.734H108.111Z" fill="#0060FF"/>
<path d="M392.905 47.1855H108.842C96.4043 47.1855 86.3219 57.2688 86.3219 69.7072V288.901C86.3219 301.339 96.4043 311.423 108.842 311.423H392.905C405.342 311.423 415.424 301.339 415.424 288.901V69.7072C415.424 57.2688 405.342 47.1855 392.905 47.1855Z" fill="white"/>
<path d="M391.989 311.423H108.408C95.4861 311.423 84.9731 300.913 84.9731 287.995V69.2651C84.9731 56.3473 95.4861 45.8379 108.408 45.8379H391.989C404.911 45.8379 415.424 56.3473 415.424 69.2651V287.996C415.424 300.914 404.911 311.423 391.989 311.423V311.423ZM108.408 47.7443C96.5376 47.7443 86.8801 57.3985 86.8801 69.2651V287.996C86.8801 299.862 96.5376 309.517 108.408 309.517H391.989C403.86 309.517 413.517 299.862 413.517 287.996V69.2651C413.517 57.3983 403.86 47.7443 391.989 47.7443H108.408Z" fill="#0060FF"/>
<path d="M392.905 47.1855H108.842C96.4043 47.1855 86.3219 57.2688 86.3219 69.7072V288.901C86.3219 301.339 96.4043 311.423 108.842 311.423H392.905C405.342 311.423 415.424 301.339 415.424 288.901V69.7072C415.424 57.2688 405.342 47.1855 392.905 47.1855Z" fill="white"/>
<path d="M391.989 311.423H108.408C95.4861 311.423 84.9731 300.913 84.9731 287.995V69.2651C84.9731 56.3473 95.4861 45.8379 108.408 45.8379H391.989C404.911 45.8379 415.424 56.3473 415.424 69.2651V287.996C415.424 300.914 404.911 311.423 391.989 311.423V311.423ZM108.408 47.7443C96.5376 47.7443 86.8801 57.3985 86.8801 69.2651V287.996C86.8801 299.862 96.5376 309.517 108.408 309.517H391.989C403.86 309.517 413.517 299.862 413.517 287.996V69.2651C413.517 57.3983 403.86 47.7443 391.989 47.7443H108.408Z" fill="#0060FF"/>
<path d="M266.873 71.4512H112.134C109.797 71.4512 107.902 73.3555 107.902 75.7047V117.079C107.902 119.428 109.797 121.333 112.134 121.333H266.873C269.21 121.333 271.105 119.428 271.105 117.079V75.7047C271.105 73.3555 269.21 71.4512 266.873 71.4512Z" fill="white"/>
<path d="M265.93 121.333H111.729C108.875 121.333 106.554 119.018 106.554 116.172V75.2648C106.554 72.4188 108.875 70.1035 111.729 70.1035H265.93C268.783 70.1035 271.105 72.4188 271.105 75.2648V116.172C271.105 119.018 268.783 121.333 265.93 121.333H265.93ZM111.729 72.0151C109.932 72.0151 108.47 73.4729 108.47 75.2648V116.172C108.47 117.964 109.932 119.422 111.729 119.422H265.93C267.727 119.422 269.188 117.964 269.188 116.172V75.2648C269.188 73.4729 267.727 72.0151 265.93 72.0151H111.729Z" fill="#0060FF"/>
<path d="M267.466 136.162H187.073C185.808 136.162 184.783 137.245 184.783 138.581V155.314C184.783 156.65 185.808 157.732 187.073 157.732H267.466C268.731 157.732 269.756 156.65 269.756 155.314V138.581C269.756 137.245 268.731 136.162 267.466 136.162Z" fill="white"/>
<path d="M266.533 157.733H186.657C184.88 157.733 183.434 156.239 183.434 154.404V138.144C183.434 136.308 184.88 134.814 186.657 134.814H266.533C268.31 134.814 269.756 136.308 269.756 138.144V154.404C269.756 156.239 268.31 157.733 266.533 157.733ZM186.657 136.773C185.926 136.773 185.33 137.388 185.33 138.144V154.404C185.33 155.16 185.926 155.774 186.657 155.774H266.533C267.265 155.774 267.86 155.16 267.86 154.404V138.144C267.86 137.388 267.265 136.773 266.533 136.773H186.657Z" fill="#0060FF"/>
<path d="M299.429 320.859V344.58C299.429 346.363 297.306 347.822 294.711 347.822H193.548C190.952 347.822 188.829 346.363 188.829 344.58V320.859H299.429Z" fill="white"/>
<path d="M293.784 347.823H193.126C189.96 347.823 187.48 346.003 187.48 343.681V319.512H299.429V343.681C299.429 346.003 296.95 347.823 293.784 347.823ZM189.381 321.455V343.68C189.381 344.721 190.919 345.879 193.126 345.879H293.784C295.991 345.879 297.529 344.72 297.529 343.68V321.455H189.381H189.381Z" fill="#0060FF"/>
<path d="M166.302 136.162H110.198C108.93 136.162 107.902 137.245 107.902 138.581V155.314C107.902 156.65 108.93 157.732 110.198 157.732H166.302C167.57 157.732 168.598 156.65 168.598 155.314V138.581C168.598 137.245 167.57 136.162 166.302 136.162Z" fill="white"/>
<path d="M165.374 157.733H109.777C108 157.733 106.554 156.239 106.554 154.404V138.144C106.554 136.308 108 134.814 109.777 134.814H165.374C167.152 134.814 168.598 136.308 168.598 138.144V154.404C168.598 156.239 167.152 157.733 165.374 157.733ZM109.777 136.773C109.045 136.773 108.45 137.388 108.45 138.144V154.404C108.45 155.16 109.045 155.774 109.777 155.774H165.374C166.106 155.774 166.702 155.16 166.702 154.404V138.144C166.702 137.388 166.106 136.773 165.374 136.773H109.777Z" fill="#0060FF"/>
<path d="M147.847 102.903C147.847 101.815 147.474 100.899 146.726 100.153C145.978 99.4086 144.718 98.7343 142.945 98.1313C140.476 97.3627 138.677 96.3603 137.547 95.1246C136.417 93.8889 135.852 92.3191 135.852 90.4149C135.852 88.4756 136.405 86.8848 137.512 85.6431C138.619 84.4014 140.14 83.6625 142.076 83.4258V79.541H144.666V83.4437C146.613 83.7159 148.128 84.5495 149.212 85.9448C150.295 87.3403 150.837 89.2503 150.837 91.6745H147.639C147.639 90.0018 147.25 88.6731 146.474 87.6882C145.697 86.7035 144.648 86.211 143.327 86.211C141.948 86.211 140.893 86.5754 140.163 87.3038C139.433 88.0324 139.068 89.0482 139.068 90.3514C139.068 91.56 139.453 92.5225 140.224 93.2393C140.995 93.9561 142.264 94.6076 144.031 95.1941C145.798 95.7806 147.178 96.4256 148.169 97.129C149.16 97.8327 149.89 98.6518 150.359 99.5858C150.829 100.52 151.063 101.614 151.063 102.867C151.063 104.866 150.475 106.475 149.299 107.692C148.122 108.91 146.474 109.632 144.353 109.857V113.245H141.78V109.857C139.624 109.655 137.935 108.872 136.712 107.506C135.489 106.14 134.878 104.287 134.878 101.945H138.094C138.094 103.589 138.517 104.854 139.363 105.741C140.209 106.628 141.409 107.072 142.962 107.072C144.48 107.072 145.674 106.699 146.543 105.954C147.412 105.209 147.847 104.192 147.847 102.903H147.847Z" fill="#FE0000"/>
<path d="M240.142 264.237C239.668 264.237 239.19 264.101 238.771 263.819L162.866 212.767L143.642 226.87L141.622 224.087L161.383 209.59C162.219 208.977 163.358 208.954 164.218 209.532L239.94 260.461L337.188 134.814L339.893 136.93L242.101 263.279C241.617 263.904 240.884 264.236 240.142 264.236V264.237Z" fill="#0060FF"/>
<path d="M358.616 152.341C358.07 152.341 357.524 152.182 357.045 151.865L315.552 124.321C314.584 123.678 314.099 122.521 314.318 121.374C314.536 120.226 315.411 119.332 316.547 119.097L350.957 111.957C351.704 111.801 352.466 111.949 353.103 112.372C353.741 112.795 354.176 113.443 354.33 114.196L361.414 148.88C361.648 150.024 361.179 151.187 360.219 151.843C359.734 152.175 359.175 152.341 358.616 152.341V152.341ZM318.598 122.202L357.773 148.207L351.086 115.461L318.598 122.202Z" fill="#0060FF"/>
<path d="M472.073 223.601C472.073 224.448 471.385 225.141 470.544 225.141H381.886C381.044 225.141 380.356 224.448 380.356 223.601V150.415C380.356 149.989 380.699 149.645 381.121 149.645H470.544C471.385 149.645 472.073 150.338 472.073 151.185V223.601Z" fill="white"/>
<path d="M469.783 225.141H381.297C380.035 225.141 379.007 224.108 379.007 222.837V149.833C379.007 148.986 379.692 148.297 380.534 148.297H469.783C471.046 148.297 472.073 149.331 472.073 150.601V222.837C472.073 224.108 471.046 225.141 469.783 225.141ZM380.534 149.833V222.837C380.534 223.261 380.876 223.605 381.297 223.605H469.783C470.204 223.605 470.547 223.261 470.547 222.837V150.601C470.547 150.178 470.204 149.833 469.783 149.833H380.534Z" fill="#FE0000"/>
<path d="M463.79 218.402H388.64C387.791 218.402 387.1 217.713 387.1 216.867V169.003C387.1 168.581 387.277 168.184 387.586 167.913C387.895 167.643 388.313 167.519 388.733 167.574C388.734 167.574 389.026 167.61 389.525 167.61C394.374 167.61 398.319 163.679 398.319 158.848C398.319 158.338 398.278 158.018 398.277 158.015C398.221 157.598 398.343 157.181 398.614 156.873C398.884 156.564 399.283 156.387 399.707 156.387H452.538C452.962 156.387 453.361 156.564 453.632 156.873C453.902 157.181 454.025 157.599 453.968 158.017C453.968 158.018 453.927 158.338 453.927 158.848C453.927 163.679 457.872 167.61 462.721 167.61C463.272 167.61 463.673 167.554 463.686 167.552C464.106 167.491 464.527 167.609 464.839 167.877C465.15 168.145 465.329 168.543 465.329 168.967V216.867C465.329 217.713 464.638 218.402 463.79 218.402H463.79ZM388.64 169.107V216.867H463.79V169.086C463.602 169.107 463.21 169.144 462.721 169.144C457.023 169.144 452.387 164.525 452.387 158.848C452.387 158.409 452.414 158.081 452.43 157.921H399.816C399.832 158.082 399.859 158.409 399.859 158.848C399.859 164.526 395.223 169.144 389.525 169.144C389.095 169.144 388.791 169.122 388.64 169.107H388.64Z" fill="#FE0000"/>
<path d="M494.822 171.215H406.164C405.319 171.215 404.634 171.904 404.634 172.755V245.171C404.634 246.022 405.319 246.711 406.164 246.711H494.822C495.666 246.711 496.351 246.022 496.351 245.171V172.755C496.351 171.904 495.666 171.215 494.822 171.215Z" fill="white"/>
<path d="M494.061 246.712H405.575C404.313 246.712 403.285 245.678 403.285 244.407V172.172C403.285 170.901 404.313 169.867 405.575 169.867H494.061C495.324 169.867 496.351 170.901 496.351 172.172V244.407C496.351 245.678 495.324 246.712 494.061 246.712ZM405.575 171.403C405.154 171.403 404.812 171.748 404.812 172.172V244.407C404.812 244.831 405.154 245.175 405.575 245.175H494.061C494.482 245.175 494.825 244.831 494.825 244.407V172.172C494.825 171.748 494.482 171.403 494.061 171.403H405.575Z" fill="#FE0000"/>
<path d="M488.068 239.972H412.918C412.069 239.972 411.378 239.283 411.378 238.437V190.573C411.378 190.151 411.555 189.754 411.864 189.483C412.173 189.213 412.59 189.089 413.011 189.144C413.012 189.144 413.304 189.18 413.803 189.18C418.652 189.18 422.597 185.249 422.597 180.418C422.597 179.908 422.556 179.589 422.555 179.586C422.499 179.168 422.621 178.751 422.892 178.442C423.163 178.134 423.561 177.957 423.985 177.957H476.816C477.24 177.957 477.639 178.134 477.909 178.442C478.18 178.751 478.303 179.168 478.246 179.587C478.246 179.589 478.205 179.908 478.205 180.418C478.205 185.249 482.15 189.18 486.999 189.18C487.55 189.18 487.952 189.124 487.965 189.122C488.384 189.061 488.805 189.179 489.117 189.447C489.429 189.715 489.607 190.112 489.607 190.537V238.437C489.607 239.283 488.917 239.972 488.068 239.972L488.068 239.972ZM412.918 190.677V238.437H488.068V190.656C487.88 190.677 487.488 190.714 486.999 190.714C481.301 190.714 476.665 186.095 476.665 180.418C476.665 179.979 476.692 179.651 476.708 179.491H424.094C424.111 179.651 424.137 179.979 424.137 180.418C424.137 186.095 419.501 190.714 413.803 190.714C413.374 190.714 413.07 190.692 412.918 190.677H412.918Z" fill="#FE0000"/>
<path d="M440.057 320.516H516.583V227.051C516.583 216.361 507.85 207.615 497.176 207.615H322.883C312.209 207.615 303.476 216.361 303.476 227.051V340.521C303.476 351.21 312.209 359.956 322.883 359.956H497.176C502.978 359.956 508.208 357.372 511.772 353.295H440.057C431.342 353.295 424.211 346.153 424.211 337.425V336.386C424.211 327.658 431.342 320.517 440.057 320.517V320.516ZM330.385 238.162C330.385 236.986 331.347 236.023 332.522 236.023H486.808C487.983 236.023 488.945 236.986 488.945 238.162V239.346C488.945 240.523 487.984 241.486 486.808 241.486H332.522C331.347 241.486 330.385 240.523 330.385 239.346V238.162ZM332.522 270.258C331.347 270.258 330.385 269.295 330.385 268.118V266.934C330.385 265.757 331.347 264.794 332.522 264.794H486.808C487.983 264.794 488.945 265.757 488.945 266.934V268.118C488.945 269.295 487.984 270.258 486.808 270.258H332.522Z" fill="white"/>
<path d="M497.934 361.304H323.473C312.446 361.304 303.476 352.317 303.476 341.27V227.649C303.476 216.602 312.446 207.615 323.473 207.615H497.934C508.961 207.615 517.931 216.602 517.931 227.649V321.812H440.76C432.33 321.812 425.471 328.684 425.471 337.13V338.171C425.471 346.617 432.33 353.489 440.76 353.489H513.804L512.974 354.438C509.162 358.802 503.68 361.304 497.934 361.304ZM323.473 208.76C313.076 208.76 304.618 217.233 304.618 227.649V341.27C304.618 351.686 313.076 360.159 323.473 360.159H497.934C502.919 360.159 507.694 358.16 511.226 354.633H440.761C431.7 354.633 424.328 347.248 424.328 338.171V337.13C424.328 328.052 431.7 320.667 440.761 320.667H516.789V227.649C516.789 217.233 508.331 208.76 497.934 208.76H323.473H323.473ZM487.557 271.486H333.121C331.627 271.486 330.411 270.268 330.411 268.771V267.585C330.411 266.088 331.627 264.87 333.121 264.87H487.557C489.051 264.87 490.267 266.088 490.267 267.585V268.771C490.267 270.268 489.051 271.486 487.557 271.486ZM333.121 266.015C332.257 266.015 331.554 266.719 331.554 267.585V268.771C331.554 269.637 332.257 270.341 333.121 270.341H487.557C488.421 270.341 489.124 269.637 489.124 268.771V267.585C489.124 266.72 488.421 266.015 487.557 266.015H333.121ZM487.557 242.676H333.121C331.627 242.676 330.411 241.458 330.411 239.961V238.775C330.411 237.278 331.627 236.06 333.121 236.06H487.557C489.051 236.06 490.267 237.278 490.267 238.775V239.961C490.267 241.458 489.051 242.676 487.557 242.676ZM333.121 237.205C332.257 237.205 331.554 237.91 331.554 238.776V239.961C331.554 240.827 332.257 241.531 333.121 241.531H487.557C488.421 241.531 489.124 240.827 489.124 239.961V238.776C489.124 237.91 488.421 237.205 487.557 237.205H333.121Z" fill="#0060FF"/>
<path d="M487.463 235.926H332.596C331.411 235.926 330.451 236.871 330.451 238.038V239.206C330.451 240.373 331.411 241.318 332.596 241.318H487.463C488.647 241.318 489.607 240.373 489.607 239.206V238.038C489.607 236.871 488.647 235.926 487.463 235.926Z" fill="white"/>
<path d="M488.235 242.667H333.172C331.672 242.667 330.451 241.425 330.451 239.9V238.692C330.451 237.167 331.672 235.926 333.172 235.926H488.235C489.735 235.926 490.956 237.167 490.956 238.692V239.9C490.956 241.425 489.735 242.667 488.235 242.667ZM333.172 237.093C332.305 237.093 331.599 237.81 331.599 238.692V239.9C331.599 240.782 332.305 241.5 333.172 241.5H488.235C489.103 241.5 489.809 240.783 489.809 239.9V238.692C489.809 237.81 489.103 237.093 488.235 237.093H333.172Z" fill="#0060FF"/>
<path d="M487.463 264.238H332.596C331.411 264.238 330.451 265.184 330.451 266.35V267.519C330.451 268.685 331.411 269.631 332.596 269.631H487.463C488.647 269.631 489.607 268.685 489.607 267.519V266.35C489.607 265.184 488.647 264.238 487.463 264.238Z" fill="white"/>
<path d="M488.235 270.979H333.172C331.672 270.979 330.451 269.738 330.451 268.213V267.005C330.451 265.479 331.672 264.238 333.172 264.238H488.235C489.735 264.238 490.956 265.479 490.956 267.005V268.213C490.956 269.738 489.735 270.979 488.235 270.979ZM333.172 265.405C332.305 265.405 331.599 266.123 331.599 267.005V268.213C331.599 269.095 332.305 269.813 333.172 269.813H488.235C489.103 269.813 489.809 269.095 489.809 268.213V267.005C489.809 266.123 489.103 265.405 488.235 265.405H333.172Z" fill="#0060FF"/>
<path d="M516.583 320.859V340.606C516.583 345.423 514.778 349.837 511.806 353.215H440.6C431.946 353.215 424.866 346.166 424.866 337.55V336.524C424.866 327.908 431.946 320.859 440.6 320.859H516.583Z" fill="white"/>
<path d="M512.833 354.563H441.204C432.195 354.563 424.866 347.235 424.866 338.228V337.195C424.866 328.187 432.195 320.859 441.204 320.859H517.932V341.303C517.932 346.102 516.181 350.742 513.003 354.369L512.834 354.563H512.833ZM441.204 321.995C432.822 321.995 426.002 328.814 426.002 337.195V338.228C426.002 346.609 432.822 353.427 441.204 353.427H512.316C515.206 350.036 516.795 345.741 516.795 341.303V321.995H441.204H441.204Z" fill="#0060FF"/>
<path d="M487.463 235.926H332.596C331.411 235.926 330.451 236.871 330.451 238.038V239.206C330.451 240.373 331.411 241.318 332.596 241.318H487.463C488.647 241.318 489.607 240.373 489.607 239.206V238.038C489.607 236.871 488.647 235.926 487.463 235.926Z" fill="white"/>
<path d="M488.235 242.667H333.172C331.672 242.667 330.451 241.425 330.451 239.9V238.692C330.451 237.167 331.672 235.926 333.172 235.926H488.235C489.735 235.926 490.956 237.167 490.956 238.692V239.9C490.956 241.425 489.735 242.667 488.235 242.667ZM333.172 237.093C332.305 237.093 331.599 237.81 331.599 238.692V239.9C331.599 240.782 332.305 241.5 333.172 241.5H488.235C489.103 241.5 489.809 240.783 489.809 239.9V238.692C489.809 237.81 489.103 237.093 488.235 237.093H333.172Z" fill="#0060FF"/>
<path d="M487.463 264.238H332.596C331.411 264.238 330.451 265.184 330.451 266.35V267.519C330.451 268.685 331.411 269.631 332.596 269.631H487.463C488.647 269.631 489.607 268.685 489.607 267.519V266.35C489.607 265.184 488.647 264.238 487.463 264.238Z" fill="white"/>
<path d="M488.235 270.979H333.172C331.672 270.979 330.451 269.738 330.451 268.213V267.005C330.451 265.479 331.672 264.238 333.172 264.238H488.235C489.735 264.238 490.956 265.479 490.956 267.005V268.213C490.956 269.738 489.735 270.979 488.235 270.979ZM333.172 265.405C332.305 265.405 331.599 266.123 331.599 267.005V268.213C331.599 269.095 332.305 269.813 333.172 269.813H488.235C489.103 269.813 489.809 269.095 489.809 268.213V267.005C489.809 266.123 489.103 265.405 488.235 265.405H333.172Z" fill="#0060FF"/>
<path d="M516.583 320.859V340.606C516.583 345.423 514.778 349.837 511.806 353.215H440.6C431.946 353.215 424.866 346.166 424.866 337.55V336.524C424.866 327.908 431.946 320.859 440.6 320.859H516.583Z" fill="white"/>
<path d="M512.833 354.563H441.204C432.195 354.563 424.866 347.235 424.866 338.228V337.195C424.866 328.187 432.195 320.859 441.204 320.859H517.932V341.303C517.932 346.102 516.181 350.742 513.003 354.369L512.834 354.563H512.833ZM441.204 321.995C432.822 321.995 426.002 328.814 426.002 337.195V338.228C426.002 346.609 432.822 353.427 441.204 353.427H512.316C515.206 350.036 516.795 345.741 516.795 341.303V321.995H441.204H441.204Z" fill="#0060FF"/>
<path d="M443.749 345.127C448.218 345.127 451.841 341.505 451.841 337.038C451.841 332.571 448.218 328.949 443.749 328.949C439.279 328.949 435.656 332.571 435.656 337.038C435.656 341.505 439.279 345.127 443.749 345.127Z" fill="white"/>
<path d="M444.423 346.475C439.589 346.475 435.656 342.544 435.656 337.712C435.656 332.88 439.589 328.949 444.423 328.949C449.257 328.949 453.19 332.88 453.19 337.712C453.19 342.544 449.257 346.475 444.423 346.475ZM444.423 330.069C440.207 330.069 436.776 333.498 436.776 337.712C436.776 341.927 440.207 345.355 444.423 345.355C448.64 345.355 452.07 341.927 452.07 337.712C452.07 333.498 448.64 330.069 444.423 330.069Z" fill="#0060FF"/>
<path d="M57.9976 320.859C43.7557 320.859 30.3606 320.092 20.2799 318.698C15.3488 318.017 11.4679 317.22 8.74455 316.33C5.53924 315.282 4.04639 314.151 4.04639 312.771C4.04639 311.39 5.53924 310.259 8.74455 309.211C11.4679 308.321 15.3488 307.524 20.2799 306.843C30.3606 305.449 43.7555 304.682 57.9976 304.682C72.2397 304.682 85.6346 305.449 95.7153 306.843C100.646 307.524 104.527 308.321 107.251 309.211C110.456 310.259 111.949 311.39 111.949 312.771C111.949 314.151 110.456 315.282 107.251 316.33C104.527 317.22 100.646 318.017 95.7153 318.698C85.6346 320.092 72.2397 320.859 57.9976 320.859ZM57.9976 306.154C43.8258 306.154 30.5079 306.916 20.4968 308.3C5.74356 310.34 5.574 312.672 5.574 312.77C5.574 312.869 5.74356 315.201 20.4968 317.241C30.5079 318.624 43.8258 319.387 57.9976 319.387C72.1694 319.387 85.4874 318.624 95.4984 317.241C110.252 315.201 110.421 312.869 110.421 312.77C110.421 312.672 110.252 310.34 95.4984 308.3C85.4874 306.916 72.1693 306.154 57.9976 306.154Z" fill="#0060FF"/>
<path d="M57.9977 330.297C43.7556 330.297 30.3606 329.525 20.2801 328.123C15.349 327.438 11.4681 326.636 8.74474 325.74C5.53924 324.686 4.04639 323.548 4.04639 322.159V312.771H5.574V322.159C5.574 322.258 5.74356 324.605 20.4968 326.657C30.5078 328.049 43.8259 328.816 57.9977 328.816C72.1695 328.816 85.4874 328.049 95.4984 326.657C110.252 324.605 110.421 322.258 110.421 322.159V312.771H111.949V322.159C111.949 323.548 110.456 324.686 107.251 325.74C104.527 326.636 100.646 327.438 95.7153 328.123C85.6348 329.525 72.2398 330.297 57.9977 330.297Z" fill="#0060FF"/>
<path d="M57.9976 341.083C43.7557 341.083 30.3606 340.31 20.2799 338.908C15.3488 338.223 11.4679 337.421 8.74455 336.525C5.53924 335.471 4.04639 334.333 4.04639 332.944V323.557H5.574V332.944C5.574 333.043 5.74356 335.39 20.4968 337.442C30.5079 338.834 43.8258 339.601 57.9976 339.601C72.1694 339.601 85.4874 338.834 95.4984 337.442C110.252 335.39 110.421 333.043 110.421 332.944V323.557H111.949V332.944C111.949 334.333 110.456 335.471 107.251 336.525C104.527 337.421 100.646 338.223 95.7153 338.908C85.6346 340.31 72.2397 341.083 57.9976 341.083Z" fill="#0060FF"/>
<path d="M57.9976 351.868C43.7557 351.868 30.3606 351.096 20.2799 349.694C15.3488 349.008 11.4679 348.206 8.74455 347.31C5.53924 346.256 4.04639 345.118 4.04639 343.729V334.342H5.574V343.729C5.574 343.828 5.74356 346.175 20.4968 348.227C30.5079 349.619 43.8258 350.386 57.9976 350.386C72.1694 350.386 85.4874 349.619 95.4984 348.227C110.252 346.175 110.421 343.828 110.421 343.729V334.342H111.949V343.729C111.949 345.118 110.456 346.256 107.251 347.31C104.527 348.206 100.646 349.008 95.7153 349.694C85.6346 351.096 72.2397 351.868 57.9976 351.868Z" fill="#0060FF"/>
<path d="M57.9976 361.303C43.7557 361.303 30.3606 360.531 20.2799 359.129C15.3488 358.443 11.4679 357.642 8.74455 356.746C5.53924 355.692 4.04639 354.554 4.04639 353.165V343.777H5.574V353.165C5.574 353.264 5.74356 355.611 20.4968 357.662C30.5079 359.055 43.8258 359.822 57.9976 359.822C72.1694 359.822 85.4874 359.055 95.4984 357.662C110.252 355.611 110.421 353.264 110.421 353.165V343.777H111.949V353.165C111.949 354.554 110.456 355.692 107.251 356.746C104.527 357.642 100.646 358.443 95.7153 359.129C85.6346 360.531 72.2397 361.303 57.9976 361.303Z" fill="#0060FF"/>
<path d="M136.145 215.719C135.576 217.836 135.815 219.574 135.581 220.97C134.583 226.908 137.343 229.247 121.314 240.382C119.039 241.962 112.061 244.868 111.523 245.61C110.693 246.75 113.178 244.892 118.434 253.509C122.704 260.508 128.511 264.467 127.898 269.358C127.473 272.763 126.751 272.82 124.042 276.095C123.748 276.449 123.921 279.625 123.602 280.005C121.313 282.741 112.347 287.289 105.62 291.37C103.194 292.843 100.421 294.177 97.2621 295.209C89.5034 297.741 89.0353 299.373 80.5873 303.216C75.1124 305.705 69.4874 305.01 65.3999 304.779C64.8151 304.747 64.2199 304.649 63.6067 304.474C61.1226 303.77 59.2126 302.067 57.634 300.658C55.9579 299.164 56.1124 297.073 55.136 293.3C54.1208 289.382 56.0759 279.394 53.8203 279.394C53.5455 279.394 51.8469 287.074 51.5649 289.666C50.7426 297.225 43.8467 315.886 41.6112 315.458C38.014 314.771 34.4296 312.785 31.4563 312.15C28.5137 311.522 25.8473 302.024 27.4651 293.31C27.8531 291.22 28.0287 284.02 29.53 278.84C30.4134 275.792 31.184 272.439 32.0965 269.358C33.413 264.921 37.6945 258.296 38.8781 255.575C41.961 248.485 47.5154 242.873 50.1554 240.651C65.7951 227.5 92.7318 229.713 105.237 221.597C106.747 220.616 107.772 219.738 108.391 219.17C109.548 218.108 110.191 219.138 113.026 209.809C115.177 202.728 119.558 197.666 119.567 191.754C119.571 190.189 121.354 186.412 122.8 185.828C124.095 185.307 123.642 184.051 126.848 185.103C130.537 186.312 131.709 186.634 134.088 186.973C138.686 187.629 137.566 194.095 137.144 198.552C137.031 199.746 137.258 202.583 137.413 205.842C137.594 209.584 136.292 215.173 136.145 215.719H136.145Z" fill="#0060FF"/>
<path d="M42.2181 316.813C42.1616 316.813 42.106 316.808 42.0507 316.798C40.0635 316.418 38.1188 315.667 36.2383 314.941C34.6697 314.335 33.1881 313.763 31.8485 313.478C30.205 313.127 28.6788 310.599 27.7655 306.714C26.8255 302.715 26.7194 298.091 27.4743 294.027C27.5893 293.407 27.6868 292.305 27.8102 290.91C28.0846 287.807 28.4992 283.117 29.5577 279.468C29.9767 278.023 30.3789 276.476 30.7678 274.981C31.2021 273.312 31.651 271.585 32.1342 269.955C33.0108 267.002 35.1498 263.146 36.8687 260.047C37.7746 258.414 38.5567 257.004 38.9608 256.075C41.7536 249.657 46.8736 243.906 50.4095 240.932C59.4778 233.312 72.4204 230.756 83.8396 228.501C92.3777 226.815 100.442 225.222 105.741 221.785C106.896 221.036 107.911 220.255 108.844 219.4C109.061 219.2 109.264 219.065 109.443 218.945C110.225 218.422 111.034 217.88 113.362 210.223C114.24 207.335 115.462 204.822 116.644 202.391C118.392 198.796 119.901 195.692 119.907 192.253C119.911 190.528 121.788 186.537 123.449 185.868C123.747 185.748 123.924 185.582 124.128 185.39C124.833 184.729 125.471 184.353 127.837 185.129C131.661 186.383 132.736 186.66 135.022 186.986C139.688 187.651 139.07 193.58 138.619 197.909C138.575 198.324 138.533 198.728 138.496 199.117C138.417 199.949 138.517 201.726 138.631 203.782C138.677 204.593 138.725 205.461 138.768 206.361C138.965 210.427 137.494 216.359 137.479 216.415C137.139 217.679 137.098 218.821 137.062 219.829C137.039 220.469 137.017 221.074 136.923 221.636C136.765 222.576 136.703 223.426 136.643 224.247C136.317 228.705 136.082 231.925 122.405 241.42C121.235 242.232 118.872 243.377 116.787 244.388C115.198 245.158 113.247 246.103 112.769 246.482C112.771 246.484 112.774 246.485 112.776 246.486C113.677 246.921 116.068 248.077 119.649 253.945C121.17 256.436 122.913 258.571 124.452 260.455C127.347 264.001 129.635 266.801 129.215 270.15C128.858 273.004 128.264 273.678 126.676 275.48C126.271 275.94 125.812 276.461 125.266 277.12C125.192 277.346 125.16 278.195 125.139 278.762C125.084 280.209 125.041 280.784 124.795 281.076C123.106 283.094 118.104 285.952 112.809 288.978C110.726 290.168 108.572 291.398 106.629 292.576C103.965 294.193 101.11 295.504 98.142 296.472C93.6576 297.935 91.6247 299.095 89.0508 300.564C87.1619 301.642 85.021 302.863 81.4548 304.485C76.4149 306.774 71.3574 306.442 67.2934 306.175C66.8435 306.146 66.4081 306.117 65.9888 306.093C65.3582 306.059 64.7177 305.95 64.0865 305.771C61.485 305.034 59.5004 303.264 57.9055 301.841C56.5931 300.672 56.2974 299.173 55.888 297.098C55.7228 296.26 55.5356 295.311 55.2541 294.224C54.8122 292.52 54.9059 289.801 54.9968 287.171C55.0869 284.56 55.1885 281.613 54.6271 280.798C54.1441 282.354 52.857 288.17 52.6021 290.511C51.8525 297.398 45.867 314.373 42.9611 316.53C42.7066 316.719 42.4574 316.814 42.2179 316.814L42.2181 316.813ZM125.763 185.649C125.243 185.649 125.03 185.849 124.777 186.086C124.55 186.3 124.266 186.566 123.803 186.752C122.622 187.228 120.861 190.768 120.857 192.255C120.852 195.913 119.223 199.262 117.498 202.809C116.333 205.206 115.127 207.686 114.271 210.502C111.844 218.484 110.976 219.065 109.971 219.738C109.805 219.849 109.649 219.953 109.485 220.104C108.513 220.995 107.457 221.807 106.257 222.586C100.805 226.122 92.6535 227.732 84.0234 229.436C72.7166 231.669 59.901 234.2 51.02 241.663C47.5631 244.571 42.5587 250.19 39.8318 256.456C39.4095 257.427 38.6169 258.856 37.6991 260.511C36.003 263.569 33.8919 267.374 33.0452 270.227C32.5664 271.842 32.1195 273.56 31.6873 275.222C31.2968 276.724 30.8929 278.276 30.4702 279.734C29.4377 283.294 29.0279 287.928 28.7567 290.994C28.6311 292.415 28.5319 293.537 28.4083 294.201C27.6768 298.14 27.7794 302.621 28.6902 306.495C29.4923 309.906 30.8094 312.281 32.0458 312.545C33.4589 312.846 34.9747 313.431 36.5794 314.051C38.4208 314.762 40.325 315.497 42.2284 315.861C42.7674 315.817 44.6424 313.09 47.3248 305.957C49.5818 299.955 51.2823 293.852 51.6571 290.407C51.8147 288.96 52.3712 286.175 52.8002 284.229C53.8032 279.679 53.9759 279.679 54.3933 279.679C54.7155 279.679 55.008 279.806 55.2391 280.046C56.1602 281.003 56.0611 283.876 55.9463 287.203C55.858 289.765 55.7665 292.414 56.1737 293.984C56.4622 295.098 56.6522 296.062 56.8199 296.912C57.2207 298.944 57.4629 300.171 58.5364 301.128C60.0586 302.485 61.953 304.175 64.3448 304.853C64.9169 305.016 65.4717 305.11 66.0411 305.141C66.4642 305.165 66.9025 305.193 67.3552 305.223C71.3133 305.483 76.2394 305.806 81.0625 303.615C84.5888 302.012 86.7096 300.802 88.5808 299.734C91.2016 298.239 93.2716 297.057 97.848 295.565C100.747 294.619 103.536 293.339 106.137 291.76C108.091 290.576 110.25 289.342 112.338 288.149C117.304 285.311 122.439 282.378 124.045 280.489C124.131 280.254 124.166 279.337 124.189 278.726C124.241 277.329 124.28 276.816 124.508 276.542C125.075 275.857 125.547 275.321 125.964 274.848C127.491 273.116 127.951 272.593 128.272 270.03C128.641 267.088 126.468 264.427 123.716 261.059C122.159 259.151 120.393 256.99 118.838 254.443C115.404 248.814 113.195 247.747 112.364 247.345C112.047 247.192 111.774 247.06 111.694 246.74C111.613 246.417 111.815 246.139 111.924 245.989C112.233 245.563 113.453 244.944 116.373 243.529C118.427 242.533 120.755 241.405 121.864 240.635C135.168 231.4 135.389 228.37 135.695 224.177C135.757 223.333 135.82 222.461 135.986 221.477C136.07 220.977 136.09 220.402 136.112 219.795C136.15 218.736 136.193 217.535 136.561 216.166C136.789 215.32 137.989 209.93 137.819 206.407C137.776 205.509 137.727 204.643 137.682 203.835C137.561 201.654 137.465 199.93 137.55 199.027C137.587 198.635 137.63 198.227 137.673 197.809C138.107 193.647 138.647 188.465 134.889 187.93C132.444 187.581 131.198 187.233 127.541 186.035C126.691 185.756 126.144 185.649 125.762 185.649L125.763 185.649ZM125.239 277.151L125.239 277.152L125.239 277.151Z" fill="white"/>
<path d="M167.249 297.718L165.065 299.094L160.822 305.066L153.45 311.421C152.526 310.74 151.232 310.068 149.412 309.122C144.561 306.603 142.536 306.948 138.745 305.214C133.761 302.93 134.867 301.234 129.264 297.785C127.038 296.415 123.14 295.092 115.437 292.506C112.959 291.674 110.895 290.983 109.251 290.43C116.595 286.039 121.036 280.498 123.535 277.554C123.883 277.144 124.216 276.75 124.537 276.369C129.995 278.103 134.146 280.019 137.018 281.512C138.981 282.532 139.484 282.906 146.499 286.789C150.482 288.994 152.472 290.097 154.795 291.335C160.058 294.137 165.135 296.673 167.249 297.718L167.249 297.718Z" fill="#01213A"/>
<path d="M153.714 312.769L153.407 312.544C152.505 311.882 151.202 311.209 149.4 310.276C146.653 308.857 144.822 308.355 143.051 307.869C141.648 307.484 140.323 307.12 138.629 306.349C135.917 305.113 134.929 304.039 133.786 302.797C132.786 301.709 131.652 300.477 128.995 298.85C126.831 297.524 123.177 296.277 115.119 293.585L111.841 292.49C110.733 292.12 109.742 291.789 108.867 291.496L107.902 291.173L108.775 290.654C115.679 286.545 120.019 281.427 122.611 278.369C122.779 278.17 122.939 277.981 123.093 277.802C123.444 277.39 123.78 276.994 124.104 276.611L124.309 276.369L124.613 276.466C129.103 277.885 133.372 279.636 137.303 281.67C138.315 282.194 138.96 282.557 140.243 283.279C141.499 283.987 143.398 285.057 146.897 286.984L147.034 287.06C150.977 289.233 152.957 290.324 155.274 291.553C160.692 294.424 165.872 296.996 167.848 297.968L168.598 298.337L165.763 300.115L161.495 306.092L153.714 312.769L153.714 312.769ZM110.124 290.93C110.748 291.138 111.422 291.363 112.146 291.605L115.424 292.7C123.554 295.417 127.243 296.675 129.497 298.056C132.265 299.752 133.447 301.036 134.489 302.169C135.607 303.385 136.49 304.344 139.028 305.501C140.652 306.241 141.941 306.594 143.305 306.969C145.124 307.468 147.005 307.983 149.829 309.443C151.489 310.301 152.729 310.943 153.661 311.574L160.785 305.462L165.095 299.425L166.675 298.434C164.322 297.27 159.668 294.942 154.824 292.376C152.5 291.142 150.518 290.051 146.571 287.875L146.433 287.799C142.931 285.87 141.03 284.799 139.772 284.09C138.498 283.373 137.859 283.013 136.862 282.497C133.068 280.534 128.953 278.837 124.628 277.452C124.367 277.759 124.098 278.076 123.819 278.403C123.666 278.581 123.507 278.77 123.339 278.967C120.817 281.942 116.666 286.838 110.124 290.929V290.93Z" fill="white"/>
<path d="M182.726 300.677C181.815 304.117 180.592 307.03 179.211 309.491C173.402 319.852 164.789 322.207 164.789 322.207C157.339 319.899 155.432 316.799 155.15 314.596C154.943 312.995 155.595 311.87 155.595 311.87L165.6 297.538L165.62 297.526L166.985 296.649L175.055 291.467L177.436 289.937C179.43 289.665 180.793 290.061 181.709 290.837C184.865 293.506 182.726 300.677 182.726 300.677L182.726 300.677Z" fill="white"/>
<path d="M165.389 323.555L165.258 323.515C157.455 321.102 155.457 317.784 155.155 315.425C154.927 313.67 155.635 312.428 155.665 312.375L155.686 312.343L165.887 297.759L165.982 297.698L178.06 289.956L178.163 289.942C180.163 289.67 181.745 290.013 182.865 290.959C186.236 293.805 184.162 301.002 184.044 301.399C183.173 304.678 181.96 307.714 180.437 310.423C174.516 320.961 165.886 323.419 165.522 323.519L165.389 323.555L165.389 323.555ZM156.47 312.85C156.405 312.972 155.909 313.961 156.084 315.308C156.35 317.385 158.186 320.327 165.399 322.587C166.483 322.242 174.28 319.476 179.618 309.973C181.105 307.33 182.289 304.364 183.14 301.157L183.144 301.144C183.165 301.074 185.19 294.14 182.257 291.664C181.367 290.911 180.068 290.637 178.393 290.847L166.553 298.435L156.47 312.85V312.85Z" fill="#0060FF"/>
<path d="M153.761 311.975L152.501 313.04L152.483 313.055L144.408 328.714C144.408 328.714 143.91 329.924 144.355 331.487C140.597 332.158 135.452 330.623 126.529 327.886C120.045 325.897 117.713 324.632 113.357 323.243C98.2919 318.436 91.2274 323.194 74.3842 319.084C69.7996 317.965 64.7415 314.413 64.7415 305.477C69.2499 305.723 73.1897 302.581 79.2282 299.93C88.5461 295.839 91.3269 297.983 99.8846 295.287C103.369 294.189 106.427 292.768 109.103 291.199C110.764 291.747 112.849 292.431 115.352 293.255C123.136 295.814 127.074 297.123 129.323 298.479C134.985 301.893 133.867 303.571 138.903 305.831C142.733 307.548 144.779 307.207 149.68 309.7C151.519 310.636 152.827 311.301 153.761 311.975Z" fill="#01213A"/>
<path d="M143.049 332.992C139.474 332.992 134.697 331.575 126.942 329.177C123.218 328.026 120.819 327.1 118.702 326.282C117.109 325.668 115.605 325.087 113.748 324.49C106.009 322 100.387 322.077 94.4346 322.158C88.7865 322.235 82.9453 322.315 74.756 320.301C71.0159 319.381 64.7415 316.315 64.7415 306.118V305.628L65.2431 305.655C68.2699 305.823 71.0429 304.376 74.5529 302.546C76.0995 301.74 77.6987 300.906 79.5266 300.098C84.8873 297.725 88.0893 297.405 91.4793 297.067C93.9953 296.815 96.5971 296.556 100.259 295.393C103.453 294.378 106.525 293.004 109.391 291.311L109.58 291.199L109.789 291.269C110.67 291.561 111.67 291.893 112.788 292.263L116.047 293.343C124.185 296.04 127.878 297.29 130.135 298.662C132.906 300.346 134.089 301.621 135.132 302.746C136.252 303.953 137.136 304.906 139.676 306.055C141.301 306.789 142.592 307.14 143.958 307.512C145.779 308.007 147.662 308.52 150.489 309.969C152.343 310.92 153.674 311.603 154.637 312.304L155.11 312.648L153.457 314.055L145.424 329.755C145.377 329.886 145.023 330.936 145.393 332.245L145.531 332.734L145.022 332.825C144.401 332.937 143.748 332.991 143.049 332.991V332.992ZM97.5878 321.202C102.528 321.202 107.542 321.517 114.045 323.608C115.928 324.214 117.445 324.8 119.051 325.42C121.153 326.231 123.536 327.151 127.229 328.293C135.942 330.987 140.829 332.424 144.361 331.987C144.097 330.529 144.527 329.449 144.547 329.399L144.564 329.363L152.69 313.479L153.583 312.717C152.717 312.161 151.561 311.568 150.059 310.797C147.309 309.387 145.476 308.889 143.703 308.406C142.299 308.024 140.972 307.663 139.277 306.897C136.561 305.669 135.573 304.603 134.428 303.37C133.427 302.29 132.292 301.066 129.633 299.45C127.465 298.133 123.808 296.895 115.742 294.222L112.483 293.142C111.452 292.801 110.521 292.492 109.692 292.217C106.819 293.896 103.745 295.261 100.553 296.275C96.7941 297.469 94.1412 297.734 91.5756 297.99C88.2648 298.32 85.1378 298.633 79.9182 300.943C78.1185 301.739 76.5331 302.566 74.9998 303.365C71.6877 305.092 68.8031 306.596 65.7093 306.596H65.6958C65.8865 315.781 71.5741 318.562 74.9875 319.401C83.056 321.386 88.8336 321.307 94.4209 321.231C95.4821 321.216 96.5333 321.202 97.5872 321.202L97.5878 321.202Z" fill="white"/>
<path d="M169.785 313.844C169.375 317.482 168.58 320.629 167.566 323.337C163.298 334.738 155.117 338.384 155.117 338.384C147.42 337.108 145.092 334.223 144.5 332.019C144.066 330.416 144.551 329.175 144.551 329.175L152.402 313.12L152.419 313.104L153.644 312.013L160.885 305.564L163.023 303.661C164.955 303.095 166.359 303.301 167.376 303.96C170.877 306.224 169.785 313.844 169.785 313.844Z" fill="white"/>
<path d="M155.818 339.732L155.682 339.71C147.61 338.378 145.156 335.289 144.519 332.932C144.043 331.178 144.565 329.812 144.588 329.754L144.604 329.718L152.62 313.405L152.706 313.329L163.56 303.711L163.66 303.682C165.601 303.116 167.216 303.237 168.461 304.039C172.207 306.45 171.183 314.074 171.123 314.495C170.73 317.958 169.962 321.223 168.841 324.199C164.486 335.778 156.291 339.522 155.944 339.676L155.818 339.732L155.818 339.732ZM145.453 330.121C145.406 330.255 145.057 331.333 145.422 332.678C145.983 334.754 148.222 337.484 155.689 338.745C156.713 338.238 164.039 334.299 167.966 323.858C169.06 320.955 169.809 317.765 170.193 314.379L170.195 314.365C170.206 314.291 171.219 306.941 167.96 304.844C166.971 304.207 165.644 304.114 164.017 304.569L153.376 313.998L145.453 330.121V330.121Z" fill="#0060FF"/>
<path d="M95.2145 191.818C96.5051 193.511 99.3167 198.497 101.184 202.092C103.047 205.677 103.978 207.47 104.441 209.123C106.293 215.731 104.315 221.661 103.356 224.537C102.628 226.718 100.988 231.472 96.8414 235.895C88.1725 245.142 75.7065 245.309 71.8701 245.36C69.2043 245.396 62.181 245.222 54.2272 241.574C50.0247 239.647 35.5181 232.993 33.8702 220.751C31.9128 206.211 49.6232 195.13 52.3273 193.438C67.8105 183.751 89.237 183.978 95.2147 191.818L95.2145 191.818Z" fill="white"/>
<path d="M72.0543 246.712C67.8142 246.712 61.499 246.013 54.619 242.853C52.564 241.91 47.7513 239.7 43.3247 236.207C37.777 231.83 34.5982 226.889 33.8767 221.523C32.0637 208.038 46.4045 197.476 52.6544 193.561C59.9633 188.983 69.2172 186.247 78.0439 186.056C86.5495 185.87 93.4151 188.11 96.4113 192.044C97.6753 193.704 100.478 198.642 102.458 202.456C104.343 206.09 105.289 207.913 105.768 209.626C107.67 216.417 105.644 222.498 104.67 225.42C104.033 227.332 102.341 232.41 98.0158 237.029C94.2415 241.06 89.3276 243.876 83.4101 245.4C78.6493 246.627 74.5398 246.682 72.5648 246.708C72.3984 246.71 72.2278 246.712 72.0543 246.712ZM79.0244 186.995C78.7068 186.995 78.3872 186.998 78.0645 187.005C69.405 187.193 60.3279 189.876 53.1608 194.365C47.0668 198.183 33.0807 208.458 34.8204 221.396C35.8968 229.402 42.6919 236.331 55.0171 241.991C62.0173 245.205 68.4179 245.815 72.552 245.759C76.5564 245.705 88.7416 245.542 97.32 236.381C101.503 231.914 103.089 227.154 103.766 225.121C104.711 222.288 106.674 216.393 104.851 209.881C104.399 208.263 103.467 206.469 101.612 202.893C99.6511 199.114 96.8862 194.238 95.6533 192.619C92.9516 189.071 86.7765 186.995 79.0246 186.995L79.0244 186.995Z" fill="#0060FF"/>
<path d="M72.7652 196.035C77.8087 196.844 85.543 197.294 92.7625 194.104C95.1479 193.05 96.5268 192.019 97.4194 190.519C99.576 186.894 97.922 182.168 96.5976 178.384C95.1427 174.227 94.4155 172.148 92.4884 170.385C86.7228 165.111 75.6725 167.213 69.2038 170.385C65.9008 172.005 65.1451 173.241 61.2596 174.522C55.916 176.285 54.0594 175.032 50.0281 176.177C43.9519 177.903 40.4114 182.953 37.427 187.209C33.8293 192.34 32.3911 197.148 30.5785 203.206C29.9738 205.227 29.0901 208.472 28.3871 212.583C27.0762 220.248 26.4207 224.08 27.5653 227.476C29.3487 232.767 33.902 235.509 40.7143 239.611C43.1783 241.095 47.4032 243.345 53.0415 244.576C57.6501 245.582 61.6373 245.566 61.8075 244.852C61.9513 244.249 59.2322 243.768 57.4245 240.99C57.0553 240.423 56.7168 239.409 56.0548 237.405C54.5889 232.967 54.5493 232.056 53.5893 230.51C52.7667 229.185 51.8778 228.401 50.8499 227.476C47.7 224.641 45.9641 224.848 45.3712 223.063C44.6352 220.848 46.6351 218.496 46.741 218.375C47.0764 217.991 48.5624 216.264 50.3022 216.444C53.118 216.735 53.6145 221.707 55.507 221.685C57.0496 221.666 57.3536 218.355 60.9857 212.583C61.6264 211.565 62.7687 209.763 64.5469 207.619C66.9629 204.705 68.0655 204.157 69.7517 201.827C70.624 200.622 71.8042 198.729 72.765 196.035L72.7652 196.035Z" fill="#01213A"/>
<path d="M75.5317 236.008C76.6698 236.315 77.8141 236.533 78.9655 236.643C79.5414 236.692 80.1172 236.73 80.6935 236.719C81.2688 236.713 81.8447 236.694 82.4158 236.623C83.5605 236.508 84.6904 236.263 85.7938 235.919C86.897 235.571 87.97 235.116 89.0195 234.578C88.1006 235.321 87.0524 235.909 85.9453 236.348C85.393 236.573 84.8202 236.745 84.2419 236.895C83.6616 237.038 83.0702 237.133 82.4766 237.203C81.2874 237.322 80.0813 237.297 78.9066 237.093C77.7329 236.894 76.5852 236.541 75.5317 236.008V236.008Z" fill="#0060FF"/>
<path d="M44.2583 313.804C45.2047 313.522 46.6011 313.106 47.0609 311.903C47.5622 310.591 46.6969 308.974 45.6596 308.1C44.8308 307.402 43.9071 307.347 41.4557 307.387C37.9665 307.444 36.2218 307.472 33.7483 307.862C31.8772 308.157 30.0326 308.457 27.6757 309.288C25.9282 309.905 24.4241 310.189 23.0047 311.428C22.2557 312.081 21.4319 312.8 21.6033 313.329C21.9018 314.25 24.9195 313.678 32.1134 313.567C34.8484 313.524 36.2157 313.503 37.018 313.567C40.3918 313.834 41.8796 314.514 44.2583 313.804Z" fill="white"/>
<path d="M42.9258 315.465C42.097 315.465 41.283 315.344 40.3668 315.208C39.5997 315.093 38.7308 314.964 37.688 314.877C36.8998 314.811 35.5173 314.833 32.7632 314.879C30.4385 314.917 28.5492 315.004 27.031 315.075C23.4258 315.243 21.9334 315.312 21.6226 314.301C21.372 313.487 22.2844 312.648 23.1667 311.837C24.3872 310.715 25.6659 310.28 27.0199 309.82C27.3599 309.704 27.7116 309.585 28.069 309.452C30.5569 308.528 32.56 308.195 34.3272 307.902C36.875 307.479 38.6626 307.449 42.2235 307.387C44.7985 307.343 45.8622 307.408 46.8388 308.274C48.0362 309.337 48.9513 311.232 48.3833 312.797C47.8411 314.291 46.2107 314.803 45.2367 315.109C44.401 315.371 43.6576 315.466 42.9258 315.466V315.465ZM36.2002 313.949C36.894 313.949 37.393 313.962 37.7759 313.994C38.8527 314.084 39.7399 314.216 40.5224 314.333C42.2373 314.588 43.3704 314.758 44.9219 314.27C45.8295 313.985 47.0725 313.595 47.4635 312.517C47.9011 311.311 47.1205 309.759 46.164 308.91C45.4818 308.305 44.7146 308.23 42.2443 308.273C38.7325 308.333 36.9713 308.364 34.5 308.774C32.695 309.073 30.8284 309.383 28.4335 310.273C28.0626 310.41 27.7042 310.532 27.3575 310.65C26.0517 311.094 24.9241 311.478 23.8543 312.461C23.3658 312.91 22.4578 313.745 22.5551 314.061C22.6567 314.39 24.8555 314.288 26.9818 314.189C28.5069 314.119 30.4052 314.03 32.7458 313.992C34.2642 313.967 35.3709 313.949 36.2 313.949L36.2002 313.949Z" fill="#0060FF"/>
<path d="M119.036 185.989C118.541 184.964 113.765 178.439 117.272 172.441C117.755 171.615 120.423 169.67 122.451 168.52C127.461 165.679 136.841 167.248 139.525 173.933C141.52 178.899 139.382 185.728 134.812 188.572C130.086 191.514 123.333 189.92 119.037 185.989L119.036 185.989Z" fill="white"/>
<path d="M129.886 191.437C129.049 191.437 128.193 191.357 127.327 191.196C124.363 190.646 121.49 189.204 119.236 187.138L119.169 187.077L119.131 186.996C119.083 186.897 118.972 186.711 118.832 186.476C117.651 184.484 114.055 178.425 117.354 172.771C117.958 171.736 120.953 169.651 122.793 168.605C125.696 166.956 129.975 166.706 133.696 167.97C137.115 169.131 139.65 171.397 140.833 174.351C141.842 176.868 141.885 179.992 140.951 182.924C139.998 185.917 138.188 188.367 135.855 189.822C134.147 190.887 132.086 191.437 129.886 191.437H129.886ZM119.954 186.514C124.472 190.611 131.071 191.697 135.339 189.035C139.75 186.284 141.901 179.581 139.941 174.691C138.861 171.995 136.531 169.921 133.38 168.852C129.913 167.674 125.947 167.894 123.276 169.412C121.116 170.639 118.596 172.531 118.187 173.233C115.159 178.421 118.548 184.132 119.662 186.008C119.788 186.222 119.887 186.387 119.954 186.514H119.954Z" fill="#0060FF"/>
<path d="M124.117 167.769C124.282 167.642 124.721 167.401 125.08 167.382C126.734 167.293 129.607 166.885 131.902 167.514C134.765 168.299 137.742 169.566 139.277 172.09C141.546 175.819 139.81 180.484 135.381 181.562C130.117 182.843 123.439 181.373 121.876 176.34C120.935 173.313 121.2 169.993 124.117 167.769Z" fill="white"/>
<path d="M132.356 183.348C127.702 183.348 123.198 181.369 121.911 177.19C120.72 173.322 121.588 170.019 124.357 167.89C124.525 167.76 125.081 167.418 125.622 167.388C125.925 167.372 126.278 167.344 126.651 167.314C128.378 167.178 130.743 166.99 132.741 167.543C135.234 168.231 138.755 169.491 140.548 172.462C141.78 174.504 141.963 176.955 141.04 179.018C140.18 180.938 138.443 182.344 136.273 182.877C135.002 183.189 133.672 183.348 132.356 183.348V183.348ZM124.98 168.611C121.685 171.145 122.236 174.911 122.858 176.931C124.342 181.748 130.717 183.279 136.024 181.977C137.923 181.511 139.381 180.332 140.131 178.657C140.936 176.858 140.772 174.714 139.69 172.922C138.461 170.884 136.164 169.458 132.464 168.435C130.642 167.932 128.383 168.111 126.734 168.241C126.354 168.272 125.995 168.3 125.679 168.317C125.471 168.329 125.126 168.499 124.98 168.611V168.611Z" fill="#0060FF"/>
<path d="M116.891 175.87C117.715 174.757 121.208 174.483 128.16 173.981C129.709 173.87 131.294 173.774 131.916 174.648C132.46 175.412 132.075 176.646 131.564 177.425C130.481 179.077 128.632 178.996 124.169 180.202C119.306 181.515 118.331 182.467 117.244 181.757C115.76 180.787 115.544 177.69 116.891 175.87V175.87Z" fill="white"/>
<path d="M118.573 183.347C118.186 183.347 117.845 183.244 117.487 183.004C116.791 182.538 116.296 181.682 116.095 180.593C115.806 179.038 116.155 177.342 117.003 176.168C117.959 174.846 121.141 174.56 128.889 173.988C130.519 173.867 132.366 173.731 133.176 174.896C133.84 175.851 133.479 177.307 132.827 178.326C131.906 179.766 130.539 180.087 128.059 180.67C127.178 180.877 126.18 181.111 124.983 181.443C123.194 181.938 121.912 182.388 120.976 182.716C119.899 183.094 119.179 183.347 118.573 183.347V183.347ZM130.438 174.873C129.951 174.873 129.436 174.911 128.964 174.946C122.687 175.41 118.54 175.717 117.815 176.72C117.123 177.677 116.831 179.13 117.071 180.423C117.223 181.246 117.58 181.898 118.05 182.213C118.528 182.533 118.981 182.394 120.638 181.812C121.588 181.479 122.889 181.022 124.711 180.518C125.928 180.182 126.935 179.945 127.825 179.736C130.195 179.179 131.277 178.924 131.984 177.819C132.467 177.064 132.75 176.002 132.354 175.433C132.045 174.988 131.283 174.873 130.438 174.873H130.438Z" fill="#0060FF"/>
<path d="M10.1158 297.94C8.25647 297.94 6.7439 296.428 6.7439 294.57C6.7439 292.711 8.25666 291.199 10.1158 291.199C11.975 291.199 13.4878 292.711 13.4878 294.57C13.4878 296.428 11.975 297.94 10.1158 297.94ZM10.1158 291.974C8.68387 291.974 7.51888 293.138 7.51888 294.569C7.51888 296.001 8.68387 297.165 10.1158 297.165C11.5478 297.165 12.7128 296.001 12.7128 294.569C12.7128 293.138 11.5478 291.974 10.1158 291.974Z" fill="#FE0000"/>
<path d="M387.774 6.74074C385.915 6.74074 384.402 5.22868 384.402 3.37037C384.402 1.51206 385.915 0 387.774 0C389.633 0 391.146 1.51206 391.146 3.37037C391.146 5.22868 389.633 6.74074 387.774 6.74074ZM387.774 0.774426C386.342 0.774426 385.177 1.93887 385.177 3.37018C385.177 4.80148 386.342 5.96593 387.774 5.96593C389.206 5.96593 390.371 4.80148 390.371 3.37018C390.371 1.93887 389.206 0.774426 387.774 0.774426Z" fill="#FE0000"/>
<path d="M530.071 297.941C528.583 297.941 527.373 296.732 527.373 295.245C527.373 293.758 528.583 292.549 530.071 292.549C531.558 292.549 532.768 293.758 532.768 295.245C532.768 296.732 531.558 297.941 530.071 297.941ZM530.071 293.353C529.027 293.353 528.178 294.202 528.178 295.245C528.178 296.288 529.027 297.137 530.071 297.137C531.114 297.137 531.963 296.288 531.963 295.245C531.963 294.202 531.114 293.353 530.071 293.353Z" fill="#FE0000"/>
<path d="M33.0422 123.301C33.4147 120.678 34.0243 120.678 34.3968 123.301C34.7694 125.923 37.2208 128.374 39.8444 128.746C42.4681 129.118 42.4681 129.728 39.8444 130.1C37.2208 130.472 34.7694 132.922 34.3968 135.545C34.0243 138.167 33.4147 138.167 33.0422 135.545C32.6697 132.922 30.2182 130.472 27.5946 130.1C24.9709 129.728 24.9709 129.118 27.5946 128.746C30.2182 128.374 32.6697 125.923 33.0422 123.301Z" fill="#FF3E06"/>
<path d="M445.769 27.5821C446.142 24.9596 446.751 24.9596 447.124 27.5821C447.496 30.2045 449.948 32.6548 452.571 33.0271C455.195 33.3995 455.195 34.0087 452.571 34.3811C449.948 34.7535 447.496 37.2037 447.124 39.8262C446.751 42.4486 446.142 42.4486 445.769 39.8262C445.396 37.2037 442.945 34.7535 440.321 34.3811C437.698 34.0087 437.698 33.3995 440.321 33.0271C442.945 32.6548 445.396 30.2045 445.769 27.5821Z" fill="#FF3E06"/>
<path d="M491.112 155.402C490.767 156.446 491.014 157.477 491.661 157.693C492.309 157.909 493.121 157.231 493.466 156.186L496.195 147.931C496.54 146.886 496.293 145.855 495.646 145.64C494.999 145.424 494.186 146.102 493.841 147.146L491.112 155.402Z" fill="#FE0000"/>
<path d="M504.021 163.317C503.228 163.956 502.875 164.921 503.238 165.462C503.6 166.003 504.546 165.924 505.34 165.285L511.611 160.237C512.404 159.598 512.756 158.633 512.394 158.091C512.031 157.55 511.085 157.63 510.292 158.269L504.021 163.317Z" fill="#FE0000"/>
<path d="M510.508 179.313C509.456 179.234 508.55 179.632 508.493 180.196C508.436 180.761 509.25 181.288 510.301 181.367L518.612 181.989C519.663 182.068 520.57 181.67 520.626 181.105C520.683 180.541 519.87 180.014 518.818 179.935L510.508 179.313Z" fill="#FE0000"/>
</g>
<defs>
<clipPath id="clip0_69_10119">
<rect width="553" height="364" fill="white"/>
</clipPath>
</defs>
</svg>
