<svg width="175" height="99" viewBox="0 0 175 99" fill="none" xmlns="http://www.w3.org/2000/svg">
<g id="Frame" clip-path="url(#clip0_83_552)">
<g id="b">
<g id="Group">
<path id="Vector" d="M147.389 12.4824H44.659C44.0359 12.4824 43.5308 12.9924 43.5308 13.6215V62.9955C43.5308 63.6246 44.0359 64.1346 44.659 64.1346H147.389C148.012 64.1346 148.517 63.6246 148.517 62.9955V13.6215C148.517 12.9924 148.012 12.4824 147.389 12.4824Z" fill="white"/>
<path id="Vector_2" d="M147.108 64.1353H44.5124C43.7358 64.1353 43.104 63.4983 43.104 62.7152V13.4729C43.104 12.6898 43.7358 12.0527 44.5124 12.0527H147.108C147.885 12.0527 148.517 12.6898 148.517 13.4729V62.7152C148.517 63.4983 147.885 64.1353 147.108 64.1353H147.108ZM44.5124 12.6208C44.0465 12.6208 43.6674 13.003 43.6674 13.4729V62.7152C43.6674 63.1851 44.0465 63.5673 44.5124 63.5673H147.108C147.574 63.5673 147.953 63.1851 147.953 62.7152V13.4729C147.953 13.003 147.574 12.6208 147.108 12.6208H44.5124Z" fill="#0060FF"/>
</g>
<g id="Group_2">
<path id="Vector_3" d="M145.529 20.0359V56.0737C145.529 56.1458 145.47 56.2029 145.401 56.1973C145.308 56.1898 145.214 56.186 145.119 56.186C143.095 56.186 141.454 57.8887 141.454 59.9892C141.454 60.1795 141.467 60.3664 141.494 60.549C141.504 60.6237 141.448 60.6905 141.375 60.6905H50.9886C50.9159 60.6905 50.8596 60.6237 50.8704 60.5491C50.9022 60.3276 50.9154 60.1 50.9084 59.8674C50.8476 57.8622 49.2653 56.2332 47.3324 56.187C47.1014 56.1815 46.8751 56.1979 46.6557 56.2347C46.5834 56.2468 46.5181 56.1882 46.5181 56.1121V19.9975C46.5181 19.9214 46.5834 19.8629 46.6558 19.875C46.8344 19.9049 47.0174 19.9213 47.2039 19.9234C49.1926 19.9458 50.8554 18.2893 50.9089 16.2265C50.9179 15.8782 50.8821 15.5398 50.8064 15.2175C50.7881 15.1394 50.845 15.0645 50.9224 15.0645H141.442C141.519 15.0645 141.576 15.1394 141.558 15.2174C141.49 15.5071 141.454 15.8099 141.454 16.1212C141.454 18.2216 143.095 19.9237 145.119 19.9237C145.214 19.9237 145.308 19.9199 145.401 19.9124C145.47 19.9067 145.529 19.9639 145.529 20.036L145.529 20.0359Z" fill="white"/>
<path id="Vector_4" d="M141.099 60.6913H50.838C50.7221 60.6913 50.6118 60.6406 50.5355 60.5523C50.4583 60.4629 50.4237 60.3443 50.4405 60.2268C50.4703 60.0201 50.4821 59.808 50.4757 59.5962C50.4193 57.735 48.9717 56.2438 47.1801 56.201C46.97 56.1956 46.7606 56.2107 46.5575 56.2447C46.4421 56.2641 46.3246 56.2314 46.235 56.1553C46.1437 56.0779 46.0913 55.9642 46.0913 55.8435V19.8362C46.0913 19.7155 46.1436 19.6018 46.2349 19.5244C46.3246 19.4482 46.4422 19.4156 46.5576 19.4349C46.7223 19.4625 46.8919 19.4774 47.0616 19.4794C47.0737 19.4795 47.0861 19.4795 47.0981 19.4795C48.9154 19.4795 50.4271 17.9575 50.476 16.069C50.4843 15.7522 50.4523 15.438 50.3812 15.1352C50.3523 15.0126 50.3804 14.8858 50.4581 14.7874C50.5347 14.6904 50.6491 14.6348 50.7718 14.6348H141.165C141.288 14.6348 141.402 14.6903 141.479 14.7873C141.556 14.8857 141.585 15.0125 141.556 15.135C141.492 15.4065 141.46 15.6878 141.46 15.9713C141.46 17.9058 142.975 19.4796 144.837 19.4796C144.924 19.4796 145.011 19.4761 145.096 19.4692C145.207 19.4603 145.317 19.4985 145.399 19.574C145.482 19.6509 145.529 19.7604 145.529 19.8745V55.8052C145.529 55.9193 145.482 56.0288 145.398 56.1058C145.317 56.1813 145.206 56.2196 145.096 56.2105C145.011 56.2037 144.924 56.2001 144.837 56.2001C142.975 56.2001 141.46 57.7742 141.46 59.709C141.46 59.8826 141.472 60.0568 141.496 60.2268C141.513 60.3444 141.479 60.463 141.401 60.5524C141.325 60.6407 141.215 60.6913 141.099 60.6913ZM51.0214 60.1254H140.916C140.902 59.9874 140.895 59.8481 140.895 59.709C140.895 57.4622 142.663 55.6342 144.837 55.6342C144.88 55.6342 144.922 55.635 144.965 55.6364V20.0433C144.922 20.0448 144.88 20.0455 144.837 20.0455C142.663 20.0455 140.895 18.2178 140.895 15.9713C140.895 15.7116 140.919 15.4532 140.965 15.2007H50.9716C51.025 15.4897 51.0482 15.7859 51.0404 16.0837C50.9835 18.2773 49.2191 20.0453 47.0982 20.0454C47.0838 20.0454 47.0697 20.0454 47.0553 20.0452C46.9217 20.0437 46.7879 20.0353 46.6558 20.0201V55.6596C46.8331 55.6392 47.0132 55.6307 47.1935 55.6353C48.2012 55.6593 49.1536 56.0811 49.8754 56.8228C50.5949 57.5622 51.0084 58.541 51.0399 59.5789C51.0454 59.7616 51.0392 59.9447 51.0213 60.1253L51.0214 60.1254Z" fill="#0060FF"/>
</g>
</g>
<g id="c">
<g id="Group_3">
<path id="Vector_5" d="M139.28 21.0898H36.5501C35.927 21.0898 35.4219 21.5998 35.4219 22.229V71.6029C35.4219 72.232 35.927 72.742 36.5501 72.742H139.28C139.903 72.742 140.408 72.232 140.408 71.6029V22.229C140.408 21.5998 139.903 21.0898 139.28 21.0898Z" fill="white"/>
<path id="Vector_6" d="M139 72.7427H36.4035C35.6269 72.7427 34.9951 72.1056 34.9951 71.3226V22.0803C34.9951 21.2972 35.6269 20.6602 36.4035 20.6602H139C139.776 20.6602 140.408 21.2972 140.408 22.0803V71.3226C140.408 72.1057 139.776 72.7428 139 72.7428V72.7427ZM36.4035 21.2282C35.9376 21.2282 35.5585 21.6104 35.5585 22.0803V71.3226C35.5585 71.7925 35.9376 72.1747 36.4035 72.1747H139C139.465 72.1747 139.845 71.7925 139.845 71.3226V22.0803C139.845 21.6104 139.465 21.2282 139 21.2282H36.4035Z" fill="#0060FF"/>
</g>
<g id="Group_4">
<path id="Vector_7" d="M137.42 28.6433V64.6811C137.42 64.7532 137.362 64.8104 137.292 64.8047C137.199 64.7972 137.105 64.7934 137.01 64.7934C134.986 64.7934 133.345 66.4962 133.345 68.5966C133.345 68.787 133.358 68.9738 133.385 69.1565C133.396 69.2312 133.339 69.298 133.267 69.298H42.8797C42.807 69.298 42.7507 69.2312 42.7615 69.1565C42.7933 68.935 42.8065 68.7074 42.7995 68.4748C42.7388 66.4697 41.1565 64.8406 39.2235 64.7945C38.9925 64.789 38.7663 64.8053 38.5468 64.8421C38.4745 64.8542 38.4092 64.7957 38.4092 64.7195V28.6049C38.4092 28.5288 38.4745 28.4703 38.5469 28.4824C38.7255 28.5123 38.9085 28.5288 39.095 28.5309C41.0837 28.5532 42.7465 26.8968 42.8 24.834C42.809 24.4856 42.7732 24.1472 42.6975 23.8249C42.6792 23.7469 42.7362 23.6719 42.8135 23.6719H133.333C133.41 23.6719 133.467 23.7468 133.449 23.8248C133.381 24.1145 133.345 24.4173 133.345 24.7286C133.345 26.829 134.986 28.5311 137.01 28.5311C137.105 28.5311 137.199 28.5273 137.292 28.5198C137.362 28.5142 137.42 28.5713 137.42 28.6434V28.6433Z" fill="white"/>
<path id="Vector_8" d="M132.99 69.2987H42.729C42.613 69.2987 42.5028 69.2479 42.4264 69.1597C42.3492 69.0702 42.3146 68.9516 42.3315 68.8342C42.3613 68.6276 42.3731 68.4154 42.3668 68.2036C42.3103 66.3424 40.8627 64.8512 39.0712 64.8084C38.861 64.8036 38.6517 64.8182 38.4486 64.8521C38.333 64.8715 38.2156 64.8388 38.126 64.7626C38.0348 64.6851 37.9824 64.5715 37.9824 64.4508V28.4436C37.9824 28.3229 38.0347 28.2092 38.126 28.1318C38.2157 28.0557 38.3333 28.0231 38.4487 28.0424C38.6135 28.0699 38.783 28.0848 38.9527 28.0868C38.9648 28.0869 38.9772 28.087 38.9892 28.087C40.8065 28.087 42.3182 26.5649 42.3672 24.6764C42.3754 24.3595 42.3435 24.0453 42.2723 23.7426C42.2434 23.62 42.2715 23.4932 42.3492 23.3948C42.4258 23.2978 42.5401 23.2422 42.6629 23.2422H133.056C133.179 23.2422 133.293 23.2978 133.37 23.3949C133.448 23.4933 133.476 23.62 133.447 23.7426C133.383 24.0139 133.351 24.2953 133.351 24.5787C133.351 26.5132 134.866 28.087 136.728 28.087C136.815 28.087 136.902 28.0835 136.987 28.0766C137.098 28.0678 137.208 28.1059 137.29 28.1815C137.373 28.2584 137.42 28.3679 137.42 28.482V64.4127C137.42 64.5267 137.373 64.6362 137.29 64.7131C137.208 64.7887 137.098 64.8268 136.988 64.818C136.902 64.8111 136.815 64.8076 136.728 64.8076C134.866 64.8076 133.351 66.3816 133.351 68.3165C133.351 68.4901 133.363 68.6643 133.387 68.8343C133.404 68.9518 133.37 69.0704 133.293 69.1598C133.216 69.2481 133.106 69.2987 132.99 69.2987V69.2987ZM42.9123 68.7327H132.807C132.793 68.5948 132.786 68.4555 132.786 68.3164C132.786 66.0695 134.554 64.2416 136.728 64.2416C136.771 64.2416 136.813 64.2423 136.856 64.2438V28.6507C136.813 28.6521 136.771 28.6529 136.728 28.6529C134.554 28.6529 132.786 26.8252 132.786 24.5786C132.786 24.3189 132.81 24.0605 132.856 23.808H42.8627C42.9161 24.0969 42.9392 24.3931 42.9315 24.6911C42.8746 26.8846 41.1102 28.6527 38.9892 28.6528C38.9748 28.6528 38.9607 28.6528 38.9463 28.6526C38.8127 28.6511 38.6789 28.6427 38.5469 28.6275V64.267C38.7241 64.2466 38.9042 64.2382 39.0846 64.2427C40.0922 64.2667 41.0447 64.6884 41.7664 65.4302C42.4859 66.1695 42.8994 67.1484 42.9309 68.1864C42.9364 68.3691 42.9302 68.5521 42.9123 68.7327V68.7327Z" fill="#0060FF"/>
</g>
<g id="Group_5">
<path id="Vector_9" d="M89.8354 58.5372C96.3171 58.5372 101.572 53.2376 101.572 46.7002C101.572 40.1629 96.3171 34.8633 89.8354 34.8633C83.3536 34.8633 78.0991 40.1629 78.0991 46.7002C78.0991 53.2376 83.3536 58.5372 89.8354 58.5372Z" fill="white"/>
<path id="Vector_10" d="M89.622 58.5379C83.0329 58.5379 77.6724 53.1313 77.6724 46.4857C77.6724 39.8402 83.0329 34.4336 89.622 34.4336C96.211 34.4336 101.572 39.8402 101.572 46.4857C101.572 53.1313 96.211 58.5379 89.622 58.5379ZM89.622 34.9997C83.3424 34.9997 78.2336 40.1523 78.2336 46.4857C78.2336 52.8192 83.3424 57.9719 89.622 57.9719C95.9015 57.9719 101.01 52.8192 101.01 46.4857C101.01 40.1522 95.9016 34.9997 89.622 34.9997Z" fill="#0060FF"/>
</g>
</g>
<g id="d">
<g id="e">
<path id="Vector_11" d="M103.279 87.8096C111.528 87.8096 118.216 87.4242 118.216 86.9488C118.216 86.4733 111.528 86.0879 103.279 86.0879C95.0293 86.0879 88.3418 86.4733 88.3418 86.9488C88.3418 87.4242 95.0293 87.8096 103.279 87.8096Z" fill="#0060FF"/>
</g>
<g id="f">
<path id="Vector_12" d="M103.279 98.1395C99.3567 98.1395 95.6682 98.0165 92.8926 97.7931C91.5362 97.6839 90.469 97.5564 89.7205 97.4139C88.7155 97.2227 88.3418 97.0263 88.3418 96.6894V94.2656H88.9057V96.6205C89.0532 96.7114 89.8017 97.0213 93.3485 97.2855C96.0568 97.4873 99.5835 97.5984 103.279 97.5984C106.974 97.5984 110.501 97.4872 113.209 97.2855C116.756 97.0213 117.505 96.7114 117.652 96.6205V94.2656H118.216V96.6894C118.216 97.0263 117.842 97.2226 116.837 97.4139C116.089 97.5564 115.022 97.6839 113.665 97.7931C110.89 98.0165 107.201 98.1395 103.279 98.1395Z" fill="#0060FF"/>
</g>
<g id="g">
<path id="Vector_13" d="M103.279 95.5575C99.3567 95.5575 95.6682 95.4345 92.8926 95.2111C91.5362 95.1019 90.469 94.9744 89.7205 94.8319C88.7155 94.6407 88.3418 94.4443 88.3418 94.1074V91.6836H88.9057V94.0385C89.0532 94.1293 89.8017 94.4392 93.3485 94.7035C96.0568 94.9052 99.5835 95.0163 103.279 95.0163C106.974 95.0163 110.501 94.9052 113.209 94.7035C116.756 94.4392 117.505 94.1293 117.652 94.0385V91.6836H118.216V94.1074C118.216 94.4443 117.842 94.6406 116.837 94.8319C116.089 94.9744 115.022 95.1019 113.665 95.2111C110.89 95.4345 107.201 95.5575 103.279 95.5575Z" fill="#0060FF"/>
</g>
<g id="h">
<path id="Vector_14" d="M103.279 92.9755C99.3567 92.9755 95.6682 92.8525 92.8926 92.6291C91.5362 92.5199 90.469 92.3923 89.7205 92.2499C88.7155 92.0586 88.3418 91.8623 88.3418 91.5253V89.1016H88.9057V91.4565C89.0532 91.5473 89.8017 91.8572 93.3485 92.1215C96.0568 92.3232 99.5835 92.4343 103.279 92.4343C106.974 92.4343 110.501 92.3232 113.209 92.1215C116.756 91.8572 117.505 91.5473 117.652 91.4565V89.1016H118.216V91.5253C118.216 91.8623 117.842 92.0586 116.837 92.2499C116.089 92.3923 115.022 92.5199 113.665 92.6291C110.89 92.8525 107.201 92.9755 103.279 92.9755Z" fill="#0060FF"/>
</g>
<g id="i">
<path id="Vector_15" d="M103.279 90.8231C99.3567 90.8231 95.6682 90.7001 92.8926 90.4767C91.5362 90.3675 90.469 90.24 89.7205 90.0976C88.7155 89.9063 88.3418 89.7099 88.3418 89.373V86.9492H88.9057V89.3042C89.0532 89.395 89.8017 89.7049 93.3485 89.9691C96.0568 90.1709 99.5835 90.282 103.279 90.282C106.974 90.282 110.501 90.1708 113.209 89.9691C116.756 89.7049 117.505 89.395 117.652 89.3042V86.9492H118.216V89.373C118.216 89.7099 117.842 89.9063 116.837 90.0976C116.089 90.24 115.022 90.3675 113.665 90.4767C110.89 90.7001 107.201 90.8231 103.279 90.8231Z" fill="#0060FF"/>
</g>
</g>
<g id="s">
<g id="Group_6">
<path id="Vector_16" d="M41.506 55.5739C40.1472 56.8271 40.5366 57.2845 39.1479 59.0598C36.0182 63.0605 32.462 63.1597 31.4132 66.322C31.2713 66.75 31.3258 66.9637 31.1302 67.6776C30.7328 69.128 30.134 70.1739 29.1494 71.7445C28.0806 73.4494 27.5859 74.1315 27.2629 74.6493C25.9669 76.7268 26.543 77.6076 25.5651 82.1052C24.7611 85.803 24.2367 86.1698 24.3388 88.2055C24.3957 89.3387 24.5248 91.3664 25.9424 92.8533C26.6873 93.6347 27.5594 94.0269 28.3949 94.4025C29.6841 94.9823 30.3892 95.0014 31.6962 95.3708C33.637 95.9193 34.8218 96.6512 35.5636 97.017C39.1467 98.7836 44.5174 97.9829 56.4094 97.7916C59.9036 97.7354 60.9246 97.7806 62.7292 97.3074C67.432 96.0743 70.3697 93.1785 71.3127 92.1755C72.4653 90.9497 74.0255 89.2521 74.8971 86.4626C75.1866 85.536 75.8502 83.3259 75.3687 80.6528C75.0854 79.0803 73.9537 77.1192 71.69 73.197C71.0859 72.1501 70.6358 71.4168 69.8035 69.9048C69.1993 68.8071 68.5856 67.6922 67.917 66.3221C66.0829 62.5636 66.5067 62.3583 65.5588 61.287C64.5794 60.1798 64.2738 60.5652 61.5029 58.5758C59.7723 57.3332 59.9107 57.1966 58.2959 56.0582C56.3365 54.6768 54.7873 53.9294 53.7682 53.4438C50.8505 52.0532 49.7796 52.0626 49.335 52.0882C48.6482 52.1276 48.0503 52.3409 46.8825 52.766C44.8713 53.498 43.0304 54.168 41.506 55.574V55.5739Z" fill="white"/>
<path id="Vector_17" d="M42.9999 98.569C39.7273 98.569 37.483 98.3215 35.6745 97.4295C35.5343 97.3604 35.3828 97.2806 35.2074 97.1882C34.4403 96.7843 33.3898 96.2311 31.8201 95.7874C31.3877 95.6651 31.0261 95.5825 30.6762 95.5025C29.9731 95.3417 29.3658 95.2029 28.4901 94.809C27.6359 94.4248 26.7528 94.0275 25.9865 93.2236C24.4992 91.6629 24.391 89.5056 24.339 88.4689C24.2742 87.1774 24.4597 86.5301 24.7965 85.3549C25.0061 84.6239 25.2669 83.7139 25.5718 82.3114C25.9564 80.5417 26.0986 79.3477 26.2127 78.3884C26.3844 76.9471 26.4879 76.0771 27.2929 74.7863C27.4119 74.5955 27.555 74.381 27.7363 74.1092C28.0602 73.6237 28.5038 72.9587 29.1849 71.872C30.1105 70.395 30.7477 69.3159 31.1545 67.8308C31.2536 67.4687 31.2867 67.2409 31.3159 67.0401C31.3437 66.8484 31.3677 66.6829 31.4404 66.4637C32.0125 64.7382 33.3236 63.8865 34.8418 62.9004C36.2079 62.013 37.7562 61.0073 39.2201 59.1353C39.8434 58.3382 40.1017 57.8151 40.3297 57.3534C40.602 56.802 40.8371 56.3258 41.6004 55.6215C43.1501 54.1918 45.0393 53.504 47.0394 52.7758C48.1844 52.3589 48.8152 52.1293 49.5384 52.0876C50.1639 52.0515 51.3128 52.155 54.0521 53.4609C55.0043 53.9149 56.5981 54.6746 58.613 56.0955C59.4315 56.6728 59.8014 56.9928 60.193 57.3316C60.5754 57.6624 60.9709 58.0046 61.8301 58.6216C63.1663 59.5815 63.9182 59.9821 64.4671 60.2746C65.0469 60.5836 65.3968 60.77 65.921 61.3627C66.4385 61.9478 66.5629 62.286 66.8356 63.0269C67.0755 63.6788 67.438 64.6641 68.3072 66.4457C68.9759 67.8166 69.5958 68.9431 70.1952 70.0326C70.7907 71.1147 71.1976 71.8104 71.5912 72.4832C71.7519 72.758 71.9127 73.0329 72.0861 73.3336C74.3615 77.2776 75.5037 79.2573 75.7922 80.8595C76.2912 83.6307 75.5819 85.9015 75.3149 86.7564C74.4132 89.6435 72.7733 91.3883 71.6881 92.5429C70.3312 93.9866 67.3999 96.5803 63.0135 97.7309C61.3992 98.1542 60.4124 98.168 57.7755 98.2044C57.4284 98.2092 57.0526 98.2144 56.6429 98.221C53.6875 98.2686 51.1489 98.3532 48.909 98.4278C46.6174 98.5042 44.674 98.569 42.9999 98.569ZM41.6953 55.7274L41.7902 55.8333C41.0658 56.5016 40.8522 56.9341 40.5819 57.4816C40.3478 57.9557 40.0825 58.493 39.4411 59.3132C37.9479 61.2225 36.3785 62.242 34.9938 63.1414C33.4598 64.1378 32.2482 64.9248 31.7078 66.5549C31.6431 66.7499 31.6219 66.8963 31.595 67.0817C31.5661 67.2807 31.5301 67.5281 31.4262 67.9075C31.009 69.4306 30.3622 70.527 29.4229 72.0256C28.7397 73.1157 28.2948 73.7827 27.9699 74.2696C27.79 74.5393 27.6478 74.7523 27.5312 74.9393C26.7603 76.1755 26.6653 76.9737 26.4927 78.4228C26.3778 79.3882 26.2347 80.5898 25.8472 82.373C25.5403 83.7848 25.2781 84.6998 25.0673 85.4349C24.7284 86.6174 24.5583 87.211 24.6206 88.4543C24.6709 89.4562 24.7755 91.5411 26.1892 93.0245C26.9173 93.7885 27.7749 94.1742 28.6044 94.5474C29.4548 94.9299 30.0496 95.0659 30.7382 95.2233C31.0914 95.304 31.4567 95.3875 31.8958 95.5117C33.4937 95.9635 34.6032 96.5476 35.3373 96.9342C35.5109 97.0257 35.6609 97.1046 35.7977 97.1721C38.4688 98.4895 42.1738 98.366 48.8997 98.1418C51.1407 98.0671 53.6806 97.9824 56.6385 97.9348C57.0484 97.9282 57.4244 97.923 57.7717 97.9182C60.384 97.8821 61.3614 97.8686 62.943 97.4537C67.2615 96.321 70.1478 93.767 71.484 92.3454C72.5513 91.2099 74.1641 89.4939 75.0461 86.6701C75.3073 85.8338 76.0012 83.6121 75.5148 80.9109C75.2352 79.3584 74.1014 77.3932 71.8428 73.4782C71.6697 73.1781 71.5091 72.9037 71.3487 72.6294C70.9542 71.955 70.5464 71.2577 69.9495 70.1731C69.3479 69.0797 68.7263 67.95 68.0545 66.5728C67.1789 64.7779 66.8133 63.7845 66.5714 63.1271C66.3038 62.3998 66.193 62.0987 65.7112 61.554C65.2209 60.9996 64.9066 60.8322 64.3361 60.5282C63.7801 60.2319 63.0187 59.8262 61.6672 58.8554C60.7976 58.2309 60.3973 57.8845 60.0101 57.5495C59.6239 57.2154 59.2592 56.8999 58.4521 56.3307C56.4567 54.9235 54.8764 54.1702 53.9323 53.7201C50.9408 52.294 49.8974 52.3541 49.5544 52.3735C48.8997 52.4111 48.3395 52.6066 47.1347 53.0453C45.1618 53.7636 43.2983 54.442 41.7903 55.8333L41.6954 55.7274L41.6953 55.7274Z" fill="#0060FF"/>
</g>
<path id="Vector_18" d="M50.742 70.1591C52.1749 70.4994 53.4699 71.0461 54.6269 71.7994L54.0148 74.4674L52.7971 74.1856C52.7476 73.3852 52.5363 72.7444 52.1631 72.2634C51.7898 71.7825 51.2329 71.4433 50.4925 71.2459L49.1294 77.1871C50.1507 78.0045 50.8983 78.6978 51.3722 79.267C51.8459 79.8363 52.1731 80.4236 52.3538 81.029C52.5343 81.6345 52.5416 82.2996 52.3754 83.0241C52.0674 84.3664 51.4567 85.3154 50.5434 85.8716C49.6299 86.4277 48.4301 86.5945 46.9443 86.372L46.4172 88.6694L45.1381 88.3735L45.6595 86.1008C44.9335 85.9155 44.1764 85.6493 43.3883 85.3021C42.6001 84.9551 41.9363 84.602 41.397 84.243L42.0204 81.5256L43.2504 81.8103C43.2526 82.704 43.461 83.4048 43.8755 83.9125C44.29 84.4204 44.965 84.7999 45.9004 85.0509L47.3684 78.6528L47.095 78.4334C46.1397 77.6661 45.4488 77.0272 45.022 76.5164C44.5951 76.0059 44.2979 75.4753 44.1308 74.9249C43.9634 74.3746 43.9544 73.7742 44.1037 73.1236C44.2472 72.498 44.4904 71.9644 44.8335 71.5235C45.1763 71.0825 45.5873 70.7311 46.0663 70.469C46.5451 70.2071 47.0751 70.0325 47.6564 69.946C48.2375 69.8593 48.834 69.8565 49.4459 69.9373L49.9872 67.5781L51.2663 67.8741L50.742 70.1591ZM47.9637 76.3971L49.2049 70.987C48.4789 70.9146 47.8493 71.0528 47.3158 71.402C46.7823 71.7512 46.4392 72.2592 46.2861 72.9262C46.1331 73.5931 46.1883 74.1893 46.4522 74.7142C46.7159 75.2392 47.2198 75.8001 47.9637 76.3971ZM48.537 79.4303L47.188 85.3098C47.9695 85.4041 48.6194 85.2618 49.1382 84.883C49.6567 84.5044 50.0076 83.9158 50.1909 83.1169C50.3534 82.4088 50.3017 81.7683 50.0361 81.1951C49.7704 80.622 49.2706 80.0338 48.537 79.4303Z" fill="#FE0000"/>
<path id="Vector_19" d="M49.8345 53.8042C48.7144 53.8042 47.6244 53.4998 46.8589 53.0848C46.1826 52.7182 45.775 52.2855 45.711 51.8665C45.6759 51.6377 45.7528 51.4639 45.8207 51.3106C45.8967 51.1389 45.9623 50.9906 45.9019 50.7525C45.7943 50.3286 45.2948 49.9925 44.2658 49.3327C43.6938 48.9656 43.4609 48.8423 43.3217 48.7688C43.2022 48.7057 43.1478 48.6769 43.0241 48.5679C42.1733 47.8198 41.7113 46.6285 41.8472 45.5331C41.8549 45.4704 42.044 43.9926 42.7227 43.9081C43.0725 43.8652 43.2521 44.1928 43.479 44.608C43.7167 45.0433 44.0127 45.5849 44.6108 45.9996C45.3867 46.5371 46.2937 46.5824 48.1089 46.6271L48.3031 46.632C48.8342 46.645 49.1409 46.6281 49.3874 46.6145C49.6828 46.5982 49.8961 46.5864 50.2948 46.6329C51.2272 46.7419 51.8126 47.0406 52.3788 47.3295C52.6761 47.4812 52.9834 47.638 53.3415 47.7677C54.4658 48.1754 55.9147 48.246 57.1229 47.9516C57.1708 47.9398 57.2179 47.9279 57.2644 47.9148C57.3982 47.8791 57.5225 47.8419 57.6427 47.806C58.1728 47.6477 58.5913 47.5225 58.9382 47.7884C59.3385 48.0964 59.4464 48.8253 59.1604 49.2885C58.9422 49.642 58.5668 49.7278 58.0473 49.8465C57.9558 49.8674 57.8586 49.8897 57.7554 49.9148C57.3044 50.0249 56.8586 50.1958 56.4275 50.361C56.1577 50.4644 55.8788 50.5713 55.5986 50.6636C54.5723 51.0013 54.0967 51.5233 53.5932 52.076C53.1667 52.5442 52.7256 53.0284 51.9378 53.3826C51.2754 53.6805 50.5488 53.8043 49.8345 53.8043V53.8042ZM42.7763 44.1849C42.77 44.1849 42.7637 44.1853 42.7573 44.1861C42.4677 44.2222 42.2041 44.9311 42.126 45.5673C42.0011 46.5737 42.4266 47.669 43.21 48.3579C43.3088 48.4449 43.3394 48.4611 43.4533 48.5213C43.5964 48.597 43.8359 48.7236 44.4178 49.0971C45.4603 49.7656 46.0347 50.1339 46.1743 50.6838C46.2586 51.0155 46.1582 51.2419 46.0777 51.4238C46.0153 51.5648 45.966 51.676 45.9887 51.8242C46.0378 52.1452 46.4132 52.5244 46.9931 52.8387C48.1877 53.4864 50.2086 53.8529 51.8223 53.127C52.5568 52.7968 52.9592 52.3551 53.3852 51.8875C53.8909 51.3323 54.4139 50.7582 55.5105 50.3973C55.7842 50.3072 56.0599 50.2015 56.3267 50.0993C56.766 49.931 57.2202 49.7569 57.6886 49.6425C57.7932 49.617 57.8917 49.5945 57.9845 49.5733C58.471 49.4621 58.7646 49.395 58.9211 49.1415C59.131 48.8015 59.0531 48.2306 58.7667 48.0103C58.5342 47.832 58.1941 47.9337 57.7233 48.0743C57.6011 48.1108 57.4749 48.1486 57.3389 48.1849C57.2913 48.1983 57.2411 48.211 57.1898 48.2237C55.9304 48.5304 54.4191 48.4566 53.2454 48.031C52.8709 47.8953 52.5556 47.7345 52.2507 47.5788C51.6817 47.2885 51.1442 47.0142 50.262 46.9112C49.8875 46.8675 49.6842 46.8787 49.4028 46.8942C49.1513 46.9081 48.8384 46.9253 48.2956 46.9121L48.1013 46.9072C46.2298 46.8611 45.2925 46.813 44.4504 46.2297C43.7976 45.7771 43.4708 45.1789 43.2321 44.742C43.0397 44.3898 42.9205 44.185 42.7764 44.185L42.7763 44.1849Z" fill="#0060FF"/>
</g>
<g id="w">
<g id="Group_7">
<path id="Vector_20" d="M42.2705 50.8513C43.0077 50.1107 43.6269 49.9454 44.0553 49.9308C45.1465 49.8936 45.5546 50.8148 47.0613 50.9434C47.8331 51.0092 47.9223 50.7843 48.5642 50.9434C49.428 51.1575 50.4736 51.864 50.349 52.5082C50.2758 52.8873 49.7133 52.8734 48.6842 53.438C47.7946 53.9261 47.7113 54.2069 46.9673 54.7174C46.1631 55.2693 44.6184 56.3293 43.2099 55.822C42.2193 55.4653 41.5636 54.4297 41.4251 53.4287C41.2266 51.994 42.1403 50.9896 42.2705 50.8513Z" fill="white"/>
<path id="Vector_21" d="M44.1859 56.3862C43.9015 56.3862 43.615 56.342 43.3316 56.2391C42.2024 55.8289 41.5612 54.6552 41.4266 53.674C41.2222 52.1843 42.1365 51.1179 42.3218 50.9192L42.3245 50.9164C42.948 50.2846 43.5906 49.953 44.2345 49.9309C44.8155 49.9106 45.2192 50.1416 45.6466 50.386C46.0919 50.6406 46.5524 50.9039 47.3055 50.9687C47.6468 50.998 47.8513 50.968 48.0319 50.9416C48.2587 50.9084 48.4729 50.877 48.8549 50.9725C49.7349 51.1925 50.9244 51.9479 50.7728 52.7383C50.7138 53.0459 50.4399 53.1548 50.0252 53.3198C49.7574 53.4264 49.4241 53.559 49.0113 53.7873C48.4938 54.0737 48.26 54.2814 47.9894 54.5221C47.7969 54.6932 47.5978 54.8702 47.2794 55.0905C46.5856 55.5706 45.4071 56.3862 44.186 56.3862L44.1859 56.3862ZM42.5297 51.1113C42.3565 51.2973 41.5218 52.2748 41.7086 53.6362C41.8317 54.534 42.4117 55.6053 43.4297 55.9751C44.7909 56.4696 46.3033 55.4227 47.1159 54.8604C47.4203 54.6497 47.6128 54.4786 47.799 54.313C48.0706 54.0717 48.327 53.8437 48.8722 53.542C49.3009 53.3048 49.658 53.1627 49.9189 53.059C50.3061 52.9049 50.4643 52.8364 50.4932 52.686C50.5959 52.1501 49.6427 51.4596 48.7851 51.2452C48.4582 51.1636 48.2885 51.1884 48.0736 51.2199C47.8776 51.2487 47.6554 51.2813 47.2808 51.249C46.4646 51.1788 45.9543 50.8869 45.5041 50.6295C45.0962 50.3963 44.7447 50.1959 44.2444 50.212C43.6767 50.2316 43.0998 50.5342 42.5297 51.1113V51.1113Z" fill="#0060FF"/>
</g>
<g id="Group_8">
<path id="Vector_22" d="M54.0951 52.7187C54.3382 51.4386 54.1103 51.0397 53.9114 50.896C53.1093 50.3164 50.5737 52.2929 50.8004 52.9937C50.8904 53.2717 51.4058 53.3199 51.8408 53.3604C52.9337 53.4624 53.7686 52.9476 54.0951 52.7187Z" fill="white"/>
<path id="Vector_23" d="M52.3257 53.8041C52.2234 53.8041 52.1191 53.7993 52.0125 53.7893C51.5057 53.7416 50.9313 53.6874 50.8088 53.3052C50.6307 52.7494 51.5499 51.9482 51.8358 51.716C52.6632 51.0438 53.7352 50.5387 54.2652 50.9253C54.6426 51.2007 54.7238 51.8783 54.5135 52.9966L54.5024 53.0554L54.4556 53.0885C53.9794 53.4256 53.2407 53.8041 52.3256 53.8041H52.3257ZM53.8027 51.0802C53.3627 51.0802 52.6663 51.4039 51.9995 51.9456C51.3086 52.5069 51.0021 53.0169 51.0646 53.2118C51.1302 53.4165 51.6754 53.4679 52.0362 53.5018C52.9878 53.5913 53.7633 53.2215 54.2594 52.8806C54.4253 51.9626 54.3736 51.3539 54.1127 51.1635C54.0353 51.107 53.9297 51.0801 53.8028 51.0801L53.8027 51.0802Z" fill="#0060FF"/>
</g>
</g>
<g id="x">
<g id="y">
<path id="Vector_24" d="M116.936 82.2139C116.465 82.2139 116.083 81.8277 116.083 81.3531C116.083 80.8784 116.465 80.4922 116.936 80.4922C117.407 80.4922 117.79 80.8784 117.79 81.3531C117.79 81.8278 117.407 82.2139 116.936 82.2139ZM116.936 80.6987C116.578 80.6987 116.287 80.9923 116.287 81.3531C116.287 81.7139 116.578 82.0074 116.936 82.0074C117.294 82.0074 117.585 81.7138 117.585 81.3531C117.585 80.9923 117.294 80.6987 116.936 80.6987Z" fill="#FE0000"/>
</g>
<g id="a`">
<path id="Vector_25" d="M145.957 8.17877C145.486 8.17877 145.103 7.79256 145.103 7.3179C145.103 6.84324 145.486 6.45703 145.957 6.45703C146.427 6.45703 146.81 6.84324 146.81 7.3179C146.81 7.79256 146.427 8.17877 145.957 8.17877ZM145.957 6.66359C145.599 6.66359 145.308 6.9571 145.308 7.3179C145.308 7.6787 145.599 7.97222 145.957 7.97222C146.314 7.97222 146.605 7.6787 146.605 7.3179C146.605 6.9571 146.314 6.66359 145.957 6.66359Z" fill="#FE0000"/>
</g>
<g id="aa">
<path id="Vector_26" d="M37.9829 16.3565C37.5123 16.3565 37.1294 15.9703 37.1294 15.4956C37.1294 15.021 37.5123 14.6348 37.9829 14.6348C38.4536 14.6348 38.8365 15.021 38.8365 15.4956C38.8365 15.9703 38.4536 16.3565 37.9829 16.3565ZM37.9829 14.8413C37.6252 14.8413 37.3342 15.1348 37.3342 15.4956C37.3342 15.8564 37.6252 16.1499 37.9829 16.1499C38.3407 16.1499 38.6317 15.8564 38.6317 15.4956C38.6317 15.1348 38.3407 14.8413 37.9829 14.8413Z" fill="#FE0000"/>
</g>
<g id="ab">
<path id="Vector_27" d="M26.6725 58.7373C26.7904 57.9001 26.9832 57.9001 27.1011 58.7373C27.219 59.5746 27.9947 60.3569 28.8248 60.4758C29.655 60.5947 29.655 60.7892 28.8248 60.9081C27.9947 61.027 27.219 61.8093 27.1011 62.6466C26.9832 63.4839 26.7904 63.4839 26.6725 62.6466C26.5546 61.8093 25.779 61.027 24.9488 60.9081C24.1186 60.7892 24.1186 60.5947 24.9488 60.4758C25.779 60.3569 26.5546 59.5746 26.6725 58.7373Z" fill="#FE0000"/>
</g>
<g id="ac">
<path id="Vector_28" d="M156.411 10.958C156.529 10.1208 156.722 10.1208 156.84 10.958C156.958 11.7953 157.733 12.5776 158.564 12.6965C159.394 12.8154 159.394 13.0099 158.564 13.1288C157.733 13.2477 156.958 14.03 156.84 14.8673C156.722 15.7046 156.529 15.7046 156.411 14.8673C156.293 14.03 155.518 13.2477 154.688 13.1288C153.857 13.0099 153.857 12.8154 154.688 12.6965C155.518 12.5776 156.293 11.7953 156.411 10.958Z" fill="#FE0000"/>
</g>
</g>
<path id="ad" d="M174.977 98.1387H0V98.9995H174.977V98.1387Z" fill="#0060FF"/>
</g>
<defs>
<clipPath id="clip0_83_552">
<rect width="174.977" height="99" fill="white"/>
</clipPath>
</defs>
</svg>
