<svg width="544" height="308" viewBox="0 0 544 308" fill="none" xmlns="http://www.w3.org/2000/svg">
<path d="M458.229 38.8359H138.844C136.907 38.8359 135.337 40.4226 135.337 42.3799V195.988C135.337 197.945 136.907 199.532 138.844 199.532H458.229C460.166 199.532 461.737 197.945 461.737 195.988V42.3799C461.737 40.4226 460.166 38.8359 458.229 38.8359Z" fill="white"/>
<path d="M457.358 199.531H138.389C135.974 199.531 134.01 197.549 134.01 195.113V41.9142C134.01 39.4781 135.974 37.4961 138.389 37.4961H457.358C459.772 37.4961 461.737 39.4781 461.737 41.9142V195.113C461.737 197.549 459.772 199.531 457.358 199.531H457.358ZM138.389 39.2633C136.94 39.2633 135.761 40.4525 135.761 41.9142V195.113C135.761 196.574 136.94 197.764 138.389 197.764H457.358C458.807 197.764 459.985 196.574 459.985 195.113V41.9142C459.985 40.4525 458.807 39.2633 457.358 39.2633H138.389Z" fill="#0060FF"/>
<path d="M452.449 62.3379V174.455C452.449 174.68 452.265 174.857 452.05 174.84C451.76 174.816 451.467 174.805 451.172 174.805C444.88 174.805 439.778 180.102 439.778 186.637C439.778 187.229 439.82 187.81 439.902 188.379C439.935 188.611 439.76 188.819 439.534 188.819H158.523C158.297 188.819 158.122 188.611 158.156 188.379C158.255 187.69 158.296 186.982 158.274 186.258C158.085 180.02 153.166 174.952 147.156 174.808C146.438 174.791 145.735 174.842 145.052 174.956C144.827 174.994 144.624 174.812 144.624 174.575V62.2184C144.624 61.9816 144.828 61.7995 145.053 61.8373C145.608 61.9303 146.177 61.9814 146.757 61.9879C152.939 62.0575 158.109 56.9041 158.275 50.4865C158.303 49.4028 158.192 48.3498 157.957 47.3472C157.9 47.1044 158.077 46.8711 158.317 46.8711H439.74C439.981 46.8711 440.158 47.1042 440.101 47.347C439.89 48.2483 439.778 49.1902 439.778 50.1587C439.778 56.6932 444.88 61.9888 451.172 61.9888C451.467 61.9888 451.76 61.977 452.05 61.9535C452.266 61.936 452.449 62.1138 452.449 62.3381L452.449 62.3379Z" fill="white"/>
<path d="M438.675 188.818H158.055C157.695 188.818 157.352 188.66 157.115 188.386C156.874 188.108 156.767 187.739 156.819 187.373C156.912 186.73 156.949 186.07 156.929 185.411C156.753 179.621 152.253 174.982 146.683 174.849C146.03 174.832 145.378 174.879 144.747 174.984C144.388 175.045 144.023 174.943 143.744 174.706C143.46 174.465 143.298 174.112 143.298 173.736V61.7134C143.298 61.338 143.46 60.9843 143.744 60.7433C144.023 60.5065 144.389 60.4051 144.747 60.4651C145.259 60.5509 145.787 60.5972 146.314 60.6033C146.352 60.6037 146.39 60.6039 146.428 60.6039C152.078 60.6039 156.777 55.8686 156.93 49.9933C156.955 49.0077 156.856 48.0302 156.635 47.0881C156.545 46.7066 156.632 46.3122 156.874 46.0061C157.112 45.7043 157.468 45.5312 157.849 45.5312H438.88C439.262 45.5312 439.617 45.7041 439.856 46.0059C440.097 46.3119 440.185 46.7063 440.095 47.0876C439.896 47.9322 439.796 48.8074 439.796 49.6894C439.796 55.7078 444.506 60.604 450.296 60.604C450.567 60.604 450.838 60.5931 451.103 60.5716C451.446 60.544 451.788 60.6628 452.042 60.8979C452.301 61.137 452.449 61.4776 452.449 61.8326V173.617C452.449 173.972 452.301 174.313 452.042 174.552C451.788 174.787 451.445 174.906 451.102 174.878C450.838 174.857 450.567 174.846 450.296 174.846C444.507 174.846 439.796 179.743 439.796 185.762C439.796 186.302 439.835 186.844 439.911 187.373C439.963 187.739 439.856 188.108 439.615 188.386C439.378 188.661 439.035 188.818 438.675 188.818ZM158.625 187.058H438.105C438.062 186.628 438.041 186.195 438.041 185.762C438.041 178.772 443.539 173.085 450.296 173.085C450.429 173.085 450.562 173.087 450.694 173.092V62.3579C450.562 62.3623 450.429 62.3646 450.296 62.3646C443.539 62.3646 438.041 56.6786 438.041 49.6894C438.041 48.8813 438.114 48.0774 438.26 47.2918H158.47C158.636 48.191 158.708 49.1125 158.684 50.0391C158.507 56.8635 153.022 62.3641 146.428 62.3645C146.383 62.3645 146.339 62.3643 146.295 62.3638C145.879 62.3592 145.463 62.3329 145.053 62.2856V173.164C145.604 173.101 146.164 173.074 146.724 173.089C149.857 173.163 152.818 174.475 155.062 176.783C157.299 179.083 158.585 182.128 158.683 185.358C158.7 185.926 158.68 186.495 158.625 187.057L158.625 187.058Z" fill="#0060FF"/>
<path d="M433.019 65.6172H113.634C111.697 65.6172 110.127 67.2039 110.127 69.1611V222.769C110.127 224.726 111.697 226.313 113.634 226.313H433.019C434.956 226.313 436.527 224.726 436.527 222.769V69.1611C436.527 67.2039 434.956 65.6172 433.019 65.6172Z" fill="white"/>
<path d="M432.148 226.312H113.179C110.764 226.312 108.8 224.33 108.8 221.894V68.6955C108.8 66.2593 110.764 64.2773 113.179 64.2773H432.148C434.563 64.2773 436.527 66.2593 436.527 68.6955V221.894C436.527 224.33 434.563 226.312 432.148 226.312V226.312ZM113.179 66.0446C111.73 66.0446 110.552 67.2338 110.552 68.6955V221.894C110.552 223.356 111.73 224.545 113.179 224.545H432.148C433.597 224.545 434.775 223.356 434.775 221.894V68.6955C434.775 67.2338 433.597 66.0446 432.148 66.0446H113.179Z" fill="#0060FF"/>
<path d="M427.239 89.1191V201.237C427.239 201.461 427.056 201.639 426.84 201.621C426.551 201.598 426.258 201.586 425.962 201.586C419.671 201.586 414.568 206.883 414.568 213.418C414.568 214.01 414.611 214.592 414.692 215.16C414.726 215.392 414.551 215.6 414.325 215.6H133.314C133.087 215.6 132.913 215.392 132.946 215.16C133.045 214.471 133.086 213.763 133.064 213.039C132.875 206.801 127.956 201.733 121.946 201.589C121.228 201.572 120.525 201.623 119.843 201.737C119.618 201.775 119.415 201.593 119.415 201.356V88.9996C119.415 88.7628 119.618 88.5807 119.843 88.6185C120.398 88.7116 120.967 88.7626 121.547 88.7692C127.73 88.8387 132.899 83.6853 133.066 77.2677C133.094 76.184 132.982 75.1311 132.747 74.1284C132.69 73.8856 132.867 73.6523 133.108 73.6523H414.53C414.771 73.6523 414.948 73.8854 414.891 74.1282C414.68 75.0295 414.568 75.9714 414.568 76.94C414.568 83.4745 419.671 88.77 425.962 88.77C426.258 88.77 426.551 88.7582 426.84 88.7347C427.056 88.7172 427.239 88.8951 427.239 89.1193V89.1191Z" fill="white"/>
<path d="M413.465 215.599H132.845C132.484 215.599 132.142 215.442 131.904 215.167C131.664 214.889 131.557 214.52 131.609 214.154C131.702 213.512 131.739 212.851 131.719 212.193C131.543 206.402 127.043 201.763 121.473 201.63C120.82 201.615 120.169 201.66 119.537 201.766C119.178 201.826 118.813 201.724 118.534 201.487C118.251 201.246 118.088 200.893 118.088 200.517V88.4946C118.088 88.1193 118.251 87.7656 118.534 87.5246C118.813 87.2878 119.179 87.1863 119.537 87.2464C120.05 87.3321 120.577 87.3784 121.105 87.3846C121.142 87.3849 121.181 87.3851 121.218 87.3851C126.868 87.3851 131.568 82.6498 131.72 76.7745C131.746 75.7886 131.646 74.8111 131.425 73.8694C131.335 73.4879 131.423 73.0935 131.664 72.7873C131.902 72.4856 132.258 72.3125 132.639 72.3125H413.671C414.052 72.3125 414.408 72.4856 414.646 72.7875C414.888 73.0937 414.975 73.4881 414.885 73.8694C414.687 74.7134 414.586 75.5888 414.586 76.4705C414.586 82.4889 419.296 87.3853 425.086 87.3853C425.356 87.3853 425.628 87.3744 425.893 87.3529C426.235 87.3254 426.578 87.4439 426.832 87.6791C427.091 87.9184 427.239 88.2591 427.239 88.614V200.398C427.239 200.753 427.091 201.094 426.833 201.333C426.579 201.568 426.237 201.687 425.893 201.66C425.629 201.638 425.357 201.627 425.086 201.627C419.296 201.627 414.586 206.524 414.586 212.544C414.586 213.084 414.625 213.626 414.701 214.155C414.753 214.52 414.646 214.889 414.406 215.167C414.168 215.442 413.825 215.599 413.465 215.599V215.599ZM133.415 213.839H412.895C412.853 213.409 412.831 212.976 412.831 212.543C412.831 205.553 418.329 199.866 425.086 199.866C425.219 199.866 425.352 199.869 425.484 199.873V89.139C425.352 89.1434 425.219 89.1457 425.086 89.1457C418.329 89.1457 412.831 83.4597 412.831 76.4703C412.831 75.6624 412.904 74.8585 413.049 74.0729H133.261C133.427 74.9717 133.498 75.8932 133.474 76.8201C133.298 83.6446 127.812 89.1452 121.218 89.1455C121.173 89.1455 121.129 89.1454 121.085 89.1448C120.669 89.1403 120.253 89.114 119.843 89.0667V199.945C120.394 199.882 120.954 199.856 121.514 199.87C124.647 199.944 127.608 201.256 129.852 203.564C132.089 205.864 133.375 208.91 133.473 212.139C133.49 212.707 133.47 213.277 133.415 213.839V213.839Z" fill="#0060FF"/>
<path d="M279.298 182.121C299.449 182.121 315.785 165.633 315.785 145.295C315.785 124.956 299.449 108.469 279.298 108.469C259.146 108.469 242.81 124.956 242.81 145.295C242.81 165.633 259.146 182.121 279.298 182.121Z" fill="white"/>
<path d="M278.634 182.12C258.149 182.12 241.483 165.3 241.483 144.624C241.483 123.949 258.149 107.129 278.634 107.129C299.119 107.129 315.785 123.949 315.785 144.624C315.785 165.3 299.119 182.12 278.634 182.12ZM278.634 108.89C259.111 108.89 243.228 124.92 243.228 144.624C243.228 164.329 259.111 180.359 278.634 180.359C298.157 180.359 314.04 164.329 314.04 144.624C314.04 124.92 298.157 108.89 278.634 108.89Z" fill="#0060FF"/>
<path d="M321.093 273.183C346.74 273.183 367.532 271.984 367.532 270.504C367.532 269.025 346.74 267.826 321.093 267.826C295.445 267.826 274.654 269.025 274.654 270.504C274.654 271.984 295.445 273.183 321.093 273.183Z" fill="#0060FF"/>
<path d="M321.093 305.322C308.899 305.322 297.431 304.939 288.802 304.244C284.585 303.904 281.267 303.507 278.94 303.064C275.815 302.469 274.654 301.858 274.654 300.81V293.27H276.407V300.596C276.865 300.878 279.192 301.843 290.219 302.665C298.639 303.292 309.604 303.638 321.093 303.638C332.581 303.638 343.546 303.292 351.966 302.665C362.993 301.843 365.32 300.878 365.778 300.596V293.27H367.532V300.81C367.532 301.858 366.37 302.469 363.245 303.064C360.918 303.507 357.6 303.904 353.383 304.244C344.754 304.939 333.286 305.322 321.093 305.322Z" fill="#0060FF"/>
<path d="M321.093 297.287C308.899 297.287 297.431 296.904 288.802 296.209C284.585 295.869 281.267 295.472 278.94 295.029C275.815 294.434 274.654 293.823 274.654 292.775V285.234H276.407V292.561C276.865 292.843 279.192 293.808 290.219 294.63C298.639 295.257 309.604 295.603 321.093 295.603C332.581 295.603 343.546 295.257 351.966 294.63C362.993 293.808 365.32 292.843 365.778 292.561V285.234H367.532V292.775C367.532 293.823 366.37 294.434 363.245 295.029C360.918 295.472 357.6 295.869 353.383 296.209C344.754 296.904 333.286 297.287 321.093 297.287Z" fill="#0060FF"/>
<path d="M321.093 289.251C308.899 289.251 297.431 288.869 288.802 288.174C284.585 287.834 281.267 287.437 278.94 286.994C275.815 286.399 274.654 285.788 274.654 284.74V277.199H276.407V284.526C276.865 284.808 279.192 285.772 290.219 286.595C298.639 287.222 309.604 287.568 321.093 287.568C332.581 287.568 343.546 287.222 351.966 286.595C362.993 285.772 365.32 284.808 365.778 284.526V277.199H367.532V284.74C367.532 285.788 366.37 286.399 363.245 286.994C360.918 287.437 357.6 287.834 353.383 288.174C344.754 288.869 333.286 289.251 321.093 289.251Z" fill="#0060FF"/>
<path d="M321.093 282.556C308.899 282.556 297.431 282.173 288.802 281.478C284.585 281.139 281.267 280.742 278.94 280.299C275.815 279.704 274.654 279.093 274.654 278.045V270.504H276.407V277.83C276.865 278.113 279.192 279.077 290.219 279.899C298.639 280.527 309.604 280.872 321.093 280.872C332.581 280.872 343.546 280.527 351.966 279.899C362.993 279.077 365.32 278.113 365.778 277.83V270.504H367.532V278.045C367.532 279.093 366.37 279.704 363.245 280.299C360.918 280.742 357.6 281.139 353.383 281.478C344.754 282.173 333.286 282.556 321.093 282.556Z" fill="#0060FF"/>
<path d="M129.041 172.899C124.817 176.798 126.027 178.221 121.71 183.744C111.98 196.19 100.923 196.499 97.6628 206.337C97.2215 207.669 97.3911 208.334 96.783 210.555C95.5475 215.067 93.6857 218.321 90.6247 223.207C87.3018 228.511 85.7638 230.634 84.7596 232.245C80.7302 238.708 82.5213 241.448 79.481 255.441C76.9813 266.945 75.3512 268.086 75.6687 274.419C75.8455 277.945 76.2469 284.253 80.6541 288.879C82.9701 291.31 85.6815 292.53 88.2788 293.699C92.287 295.503 94.4792 295.562 98.5427 296.711C104.577 298.418 108.26 300.695 110.566 301.833C121.706 307.329 138.403 304.838 175.376 304.243C186.239 304.068 189.413 304.209 195.024 302.736C209.645 298.9 218.778 289.891 221.71 286.77C225.293 282.957 230.144 277.675 232.854 268.997C233.754 266.114 235.817 259.238 234.32 250.922C233.439 246.03 229.92 239.929 222.883 227.726C221.004 224.469 219.605 222.188 217.018 217.484C215.139 214.069 213.231 210.6 211.152 206.337C205.45 194.645 206.768 194.006 203.821 190.673C200.776 187.228 199.826 188.427 191.211 182.238C185.831 178.372 186.261 177.947 181.24 174.405C175.149 170.108 170.332 167.783 167.164 166.272C158.093 161.946 154.764 161.975 153.381 162.054C151.246 162.177 149.387 162.841 145.757 164.163C139.504 166.44 133.781 168.525 129.041 172.899V172.899Z" fill="white"/>
<path d="M133.685 306.661C123.511 306.661 116.534 305.891 110.911 303.116C110.475 302.901 110.004 302.653 109.459 302.366C107.074 301.109 103.808 299.388 98.9276 298.007C97.5836 297.627 96.4591 297.37 95.3715 297.121C93.1854 296.621 91.2972 296.189 88.5748 294.963C85.9193 293.768 83.1735 292.532 80.7911 290.031C76.1672 285.176 75.8308 278.464 75.669 275.239C75.4677 271.221 76.0446 269.207 77.0917 265.551C77.7431 263.276 78.5539 260.446 79.5018 256.082C80.6976 250.576 81.1396 246.862 81.4946 243.877C82.0282 239.393 82.3502 236.687 84.8529 232.671C85.2226 232.077 85.6678 231.41 86.2313 230.564C87.2384 229.054 88.6176 226.985 90.7349 223.604C93.6126 219.009 95.5937 215.652 96.8583 211.031C97.1667 209.905 97.2694 209.196 97.3601 208.571C97.4468 207.975 97.5213 207.46 97.7474 206.778C99.5261 201.41 103.602 198.76 108.322 195.692C112.569 192.932 117.383 189.803 121.934 183.979C123.872 181.499 124.675 179.871 125.384 178.435C126.23 176.719 126.962 175.238 129.335 173.047C134.153 168.599 140.026 166.459 146.244 164.194C149.804 162.897 151.765 162.182 154.014 162.053C155.959 161.94 159.53 162.262 168.047 166.325C171.007 167.737 175.962 170.101 182.227 174.522C184.771 176.318 185.921 177.313 187.139 178.367C188.328 179.396 189.557 180.461 192.228 182.381C196.383 185.367 198.72 186.613 200.427 187.523C202.229 188.484 203.317 189.064 204.947 190.908C206.556 192.729 206.943 193.781 207.79 196.086C208.536 198.114 209.663 201.179 212.365 206.722C214.445 210.987 216.372 214.492 218.235 217.881C220.087 221.248 221.352 223.412 222.575 225.506C223.075 226.36 223.575 227.216 224.114 228.151C231.188 240.421 234.739 246.58 235.636 251.565C237.188 260.186 234.982 267.251 234.153 269.911C231.349 278.893 226.251 284.321 222.877 287.913C218.658 292.405 209.545 300.474 195.908 304.054C190.889 305.371 187.821 305.414 179.623 305.527C178.544 305.542 177.375 305.558 176.102 305.579C166.913 305.727 159.021 305.99 152.057 306.222C144.932 306.46 138.89 306.661 133.685 306.661ZM129.63 173.376L129.925 173.706C127.673 175.785 127.009 177.13 126.168 178.834C125.44 180.309 124.615 181.98 122.621 184.532C117.979 190.472 113.1 193.644 108.795 196.442C104.026 199.542 100.259 201.991 98.5786 207.062C98.3776 207.668 98.3116 208.124 98.2278 208.701C98.138 209.32 98.0263 210.09 97.7032 211.27C96.406 216.009 94.3951 219.419 91.4749 224.082C89.3509 227.473 87.9676 229.548 86.9575 231.063C86.3981 231.902 85.9563 232.565 85.5938 233.147C83.197 236.993 82.9014 239.476 82.3651 243.984C82.0076 246.988 81.563 250.726 80.358 256.274C79.4041 260.666 78.5887 263.513 77.9336 265.8C76.8798 269.479 76.351 271.325 76.5448 275.193C76.7011 278.31 77.0262 284.797 81.4215 289.412C83.6849 291.789 86.3515 292.989 88.9301 294.15C91.574 295.34 93.4232 295.763 95.5643 296.253C96.6624 296.504 97.7979 296.763 99.163 297.15C104.131 298.555 107.58 300.373 109.863 301.575C110.402 301.86 110.869 302.105 111.294 302.315C119.598 306.414 131.117 306.03 152.028 305.332C158.995 305.1 166.892 304.836 176.088 304.688C177.362 304.668 178.531 304.652 179.611 304.637C187.732 304.524 190.771 304.482 195.688 303.192C209.115 299.668 218.088 291.722 222.242 287.299C225.56 283.766 230.575 278.428 233.317 269.642C234.129 267.041 236.286 260.129 234.774 251.725C233.905 246.895 230.38 240.781 223.358 228.601C222.819 227.667 222.32 226.814 221.822 225.96C220.595 223.862 219.327 221.693 217.472 218.318C215.601 214.917 213.669 211.402 211.58 207.118C208.858 201.534 207.721 198.443 206.969 196.398C206.137 194.135 205.793 193.198 204.295 191.503C202.77 189.779 201.793 189.258 200.019 188.312C198.291 187.39 195.924 186.128 191.722 183.108C189.019 181.165 187.774 180.087 186.57 179.045C185.369 178.006 184.235 177.024 181.726 175.253C175.523 170.875 170.61 168.532 167.674 167.131C158.374 162.694 155.13 162.882 154.064 162.942C152.028 163.059 150.286 163.667 146.541 165.032C140.407 167.267 134.613 169.377 129.925 173.706L129.63 173.376L129.63 173.376Z" fill="#0060FF"/>
<path d="M157.756 218.274C162.211 219.332 166.237 221.033 169.834 223.377L167.931 231.677L164.145 230.801C163.991 228.311 163.334 226.317 162.174 224.821C161.013 223.324 159.282 222.269 156.98 221.655L152.742 240.139C155.918 242.682 158.242 244.839 159.715 246.61C161.188 248.381 162.205 250.208 162.767 252.091C163.328 253.975 163.351 256.044 162.834 258.298C161.876 262.474 159.978 265.427 157.138 267.157C154.299 268.887 150.568 269.406 145.949 268.714L144.31 275.862L140.333 274.941L141.954 267.87C139.697 267.294 137.344 266.466 134.893 265.385C132.443 264.306 130.379 263.207 128.702 262.09L130.641 253.636L134.465 254.522C134.471 257.302 135.119 259.483 136.408 261.062C137.697 262.642 139.795 263.823 142.704 264.604L147.267 244.699L146.417 244.016C143.447 241.629 141.3 239.641 139.973 238.052C138.645 236.464 137.721 234.813 137.202 233.101C136.681 231.389 136.653 229.521 137.117 227.497C137.564 225.55 138.32 223.89 139.387 222.519C140.452 221.147 141.73 220.053 143.219 219.238C144.708 218.423 146.356 217.88 148.163 217.611C149.97 217.341 151.824 217.332 153.726 217.584L155.409 210.244L159.386 211.165L157.756 218.274ZM149.118 237.681L152.977 220.85C150.72 220.624 148.763 221.054 147.104 222.141C145.445 223.227 144.379 224.808 143.903 226.883C143.427 228.957 143.599 230.812 144.419 232.445C145.239 234.078 146.805 235.824 149.118 237.681ZM150.901 247.118L146.707 265.409C149.136 265.703 151.157 265.26 152.77 264.082C154.382 262.904 155.473 261.072 156.043 258.587C156.548 256.384 156.387 254.391 155.561 252.608C154.735 250.825 153.181 248.995 150.901 247.118Z" fill="#FE0000"/>
<path d="M154.935 167.391C151.452 167.391 148.063 166.444 145.683 165.153C143.581 164.013 142.314 162.667 142.115 161.363C142.005 160.651 142.245 160.111 142.456 159.634C142.692 159.1 142.896 158.638 142.708 157.897C142.374 156.579 140.821 155.533 137.622 153.48C135.843 152.338 135.119 151.955 134.686 151.726C134.315 151.529 134.146 151.44 133.761 151.101C131.116 148.773 129.68 145.067 130.102 141.659C130.126 141.464 130.714 136.867 132.824 136.604C133.912 136.47 134.47 137.489 135.175 138.781C135.915 140.135 136.835 141.82 138.694 143.11C141.107 144.783 143.926 144.924 149.57 145.063L150.174 145.078C151.825 145.118 152.778 145.066 153.545 145.023C154.463 144.973 155.126 144.936 156.366 145.081C159.265 145.42 161.085 146.349 162.845 147.248C163.769 147.72 164.725 148.208 165.838 148.611C169.333 149.88 173.838 150.099 177.594 149.183C177.743 149.147 177.889 149.11 178.034 149.069C178.45 148.958 178.837 148.842 179.21 148.73C180.858 148.238 182.16 147.848 183.238 148.676C184.483 149.634 184.818 151.902 183.929 153.342C183.25 154.442 182.083 154.709 180.468 155.079C180.184 155.144 179.881 155.213 179.561 155.291C178.159 155.634 176.773 156.165 175.432 156.679C174.593 157.001 173.726 157.334 172.855 157.621C169.664 158.671 168.186 160.295 166.62 162.015C165.294 163.472 163.923 164.978 161.474 166.08C159.414 167.007 157.156 167.392 154.935 167.392V167.391ZM132.991 137.465C132.971 137.465 132.952 137.466 132.932 137.468C132.032 137.581 131.212 139.786 130.969 141.766C130.581 144.897 131.904 148.304 134.339 150.447C134.646 150.718 134.742 150.768 135.096 150.956C135.54 151.191 136.285 151.585 138.094 152.747C141.335 154.827 143.121 155.973 143.555 157.683C143.817 158.715 143.505 159.42 143.255 159.986C143.061 160.424 142.908 160.771 142.978 161.231C143.131 162.23 144.298 163.41 146.101 164.388C149.815 166.403 156.098 167.543 161.115 165.285C163.398 164.257 164.649 162.883 165.974 161.428C167.546 159.701 169.172 157.915 172.581 156.792C173.432 156.512 174.289 156.183 175.119 155.865C176.484 155.341 177.897 154.8 179.353 154.444C179.678 154.365 179.984 154.295 180.273 154.229C181.785 153.883 182.698 153.674 183.185 152.885C183.837 151.828 183.595 150.051 182.705 149.366C181.982 148.811 180.924 149.128 179.461 149.565C179.081 149.679 178.688 149.796 178.266 149.909C178.118 149.951 177.962 149.99 177.802 150.03C173.887 150.984 169.188 150.754 165.539 149.43C164.375 149.008 163.395 148.508 162.447 148.024C160.677 147.12 159.006 146.267 156.264 145.947C155.099 145.811 154.467 145.845 153.593 145.894C152.811 145.937 151.838 145.991 150.15 145.949L149.546 145.934C143.728 145.791 140.814 145.641 138.195 143.826C136.166 142.418 135.15 140.557 134.408 139.198C133.81 138.102 133.439 137.465 132.991 137.465L132.991 137.465Z" fill="#0060FF"/>
<path d="M131.418 158.207C133.71 155.903 135.635 155.389 136.967 155.343C140.36 155.227 141.628 158.093 146.313 158.494C148.712 158.698 148.99 157.999 150.985 158.494C153.671 159.16 156.921 161.358 156.534 163.362C156.306 164.541 154.558 164.498 151.358 166.255C148.593 167.773 148.334 168.647 146.02 170.235C143.52 171.952 138.718 175.25 134.339 173.672C131.259 172.562 129.22 169.34 128.79 166.226C128.173 161.762 131.013 158.637 131.418 158.207Z" fill="white"/>
<path d="M137.373 175.427C136.489 175.427 135.598 175.289 134.717 174.969C131.206 173.693 129.213 170.042 128.794 166.989C128.159 162.354 131.002 159.036 131.578 158.418L131.586 158.409C133.525 156.444 135.522 155.412 137.524 155.344C139.331 155.281 140.586 155.999 141.914 156.76C143.299 157.552 144.731 158.371 147.072 158.572C148.133 158.664 148.769 158.57 149.33 158.488C150.035 158.385 150.701 158.287 151.889 158.584C154.625 159.269 158.323 161.619 157.852 164.078C157.668 165.035 156.817 165.374 155.527 165.887C154.695 166.218 153.659 166.631 152.375 167.341C150.766 168.232 150.04 168.879 149.198 169.627C148.6 170.16 147.981 170.71 146.991 171.396C144.834 172.889 141.17 175.427 137.373 175.427L137.373 175.427ZM132.224 159.016C131.686 159.595 129.091 162.636 129.671 166.871C130.054 169.664 131.857 172.997 135.022 174.148C139.254 175.686 143.956 172.429 146.482 170.68C147.429 170.024 148.027 169.492 148.606 168.977C149.45 168.226 150.248 167.517 151.943 166.578C153.275 165.84 154.386 165.398 155.197 165.075C156.401 164.596 156.893 164.383 156.982 163.915C157.302 162.248 154.338 160.1 151.672 159.433C150.656 159.179 150.128 159.256 149.46 159.354C148.85 159.443 148.16 159.545 146.995 159.444C144.458 159.226 142.871 158.318 141.471 157.517C140.203 156.792 139.11 156.168 137.555 156.218C135.79 156.279 133.996 157.22 132.224 159.016V159.016Z" fill="#0060FF"/>
<path d="M168.18 164.015C168.936 160.032 168.227 158.791 167.609 158.344C165.115 156.541 157.232 162.69 157.937 164.87C158.217 165.735 159.819 165.885 161.172 166.011C164.569 166.328 167.165 164.727 168.18 164.015Z" fill="white"/>
<path d="M162.679 167.391C162.361 167.391 162.037 167.377 161.705 167.346C160.13 167.197 158.344 167.029 157.963 165.839C157.409 164.11 160.267 161.618 161.156 160.895C163.728 158.804 167.061 157.233 168.709 158.435C169.882 159.292 170.135 161.4 169.481 164.879L169.446 165.062L169.301 165.165C167.82 166.214 165.524 167.391 162.679 167.391H162.679ZM167.271 158.917C165.903 158.917 163.738 159.924 161.665 161.61C159.517 163.356 158.564 164.942 158.758 165.549C158.962 166.186 160.657 166.346 161.779 166.451C164.738 166.73 167.148 165.579 168.691 164.519C169.207 161.663 169.046 159.769 168.235 159.176C167.994 159.001 167.666 158.917 167.271 158.917L167.271 158.917Z" fill="#0060FF"/>
<path d="M363.551 255.774C362.088 255.774 360.898 254.573 360.898 253.096C360.898 251.62 362.088 250.418 363.551 250.418C365.015 250.418 366.205 251.619 366.205 253.096C366.205 254.573 365.015 255.774 363.551 255.774ZM363.551 251.061C362.439 251.061 361.534 251.974 361.534 253.096C361.534 254.219 362.439 255.132 363.551 255.132C364.663 255.132 365.568 254.219 365.568 253.096C365.568 251.974 364.663 251.061 363.551 251.061Z" fill="#FE0000"/>
<path d="M453.776 25.4444C452.313 25.4444 451.122 24.2429 451.122 22.7662C451.122 21.2894 452.313 20.0879 453.776 20.0879C455.239 20.0879 456.429 21.2894 456.429 22.7662C456.429 24.2429 455.239 25.4444 453.776 25.4444ZM453.776 20.7305C452.664 20.7305 451.759 21.6437 451.759 22.7662C451.759 23.8886 452.664 24.8018 453.776 24.8018C454.888 24.8018 455.793 23.8886 455.793 22.7662C455.793 21.6437 454.888 20.7305 453.776 20.7305Z" fill="#FE0000"/>
<path d="M118.088 50.8878C116.625 50.8878 115.434 49.6862 115.434 48.2095C115.434 46.7328 116.625 45.5312 118.088 45.5312C119.551 45.5312 120.742 46.7328 120.742 48.2095C120.742 49.6862 119.551 50.8878 118.088 50.8878ZM118.088 46.1739C116.976 46.1739 116.071 47.087 116.071 48.2095C116.071 49.332 116.976 50.2452 118.088 50.2452C119.2 50.2452 120.105 49.332 120.105 48.2095C120.105 47.087 119.2 46.1739 118.088 46.1739Z" fill="#FE0000"/>
<path d="M82.924 182.737C83.2904 180.132 83.8901 180.132 84.2565 182.737C84.623 185.342 87.0345 187.776 89.6155 188.146C92.1965 188.515 92.1965 189.121 89.6155 189.49C87.0345 189.86 84.623 192.294 84.2565 194.899C83.8901 197.504 83.2904 197.504 82.924 194.899C82.5575 192.294 80.146 189.86 77.565 189.49C74.984 189.121 74.984 188.515 77.565 188.146C80.146 187.776 82.5575 185.342 82.924 182.737Z" fill="#FE0000"/>
<path d="M486.28 34.0943C486.647 31.4894 487.246 31.4894 487.613 34.0943C487.979 36.6992 490.391 39.1331 492.972 39.5029C495.553 39.8728 495.553 40.478 492.972 40.8479C490.391 41.2178 487.979 43.6516 487.613 46.2565C487.246 48.8614 486.647 48.8614 486.28 46.2565C485.914 43.6516 483.502 41.2178 480.921 40.8479C478.34 40.478 478.34 39.8728 480.921 39.5029C483.502 39.1331 485.914 36.6992 486.28 34.0943Z" fill="#FE0000"/>
<path d="M544 305.322H0V308.001H544V305.322Z" fill="#0060FF"/>
</svg>
