<svg width="17" height="17" viewBox="0 0 17 17" fill="none" xmlns="http://www.w3.org/2000/svg">
<g id="Frame">
<path id="Vector" d="M16.4229 8.28484C16.3997 8.23238 15.8372 6.98461 14.5868 5.73418C12.9207 4.06805 10.8162 3.1875 8.49999 3.1875C6.18374 3.1875 4.07933 4.06805 2.4132 5.73418C1.16277 6.98461 0.59765 8.23438 0.577064 8.28484C0.546858 8.35279 0.53125 8.42631 0.53125 8.50066C0.53125 8.57502 0.546858 8.64854 0.577064 8.71648C0.600306 8.76894 1.16277 10.0161 2.4132 11.2665C4.07933 12.932 6.18374 13.8125 8.49999 13.8125C10.8162 13.8125 12.9207 12.932 14.5868 11.2665C15.8372 10.0161 16.3997 8.76894 16.4229 8.71648C16.4531 8.64854 16.4687 8.57502 16.4687 8.50066C16.4687 8.42631 16.4531 8.35279 16.4229 8.28484ZM8.49999 11.1562C7.97464 11.1562 7.46108 11.0005 7.02426 10.7086C6.58744 10.4167 6.24698 10.0019 6.04594 9.5165C5.84489 9.03114 5.79229 8.49705 5.89478 7.98179C5.99727 7.46653 6.25026 6.99323 6.62174 6.62175C6.99322 6.25026 7.46652 5.99728 7.98178 5.89479C8.49705 5.7923 9.03113 5.8449 9.5165 6.04594C10.0019 6.24699 10.4167 6.58745 10.7086 7.02427C11.0005 7.46108 11.1562 7.97464 11.1562 8.5C11.1562 9.20448 10.8764 9.88011 10.3782 10.3783C9.8801 10.8764 9.20448 11.1562 8.49999 11.1562Z" fill="#0060FF"/>
</g>
</svg>
