<svg width="140" height="140" viewBox="0 0 140 140" fill="none" xmlns="http://www.w3.org/2000/svg">
<path d="M45.2998 79.9994C48.5516 76.6611 52.439 74.0078 56.7327 72.1962C61.0264 70.3845 65.6395 69.4512 70.2998 69.4512C74.9601 69.4512 79.5732 70.3845 83.8669 72.1962C88.1606 74.0078 92.0481 76.6611 95.2998 79.9994" stroke="#0060FF" stroke-width="4" stroke-linecap="round" stroke-linejoin="round"/>
<path d="M23.6001 63.1007C29.6872 56.978 36.9247 52.1192 44.8964 48.8037C52.868 45.4881 61.4165 43.7813 70.0501 43.7812C78.6837 43.7813 87.2322 45.4881 95.2038 48.8037C103.175 52.1192 110.413 56.978 116.5 63.1007" stroke="#0060FF" stroke-width="4" stroke-linecap="round" stroke-linejoin="round"/>
<path d="M5 44.5002C13.5343 35.9614 23.6674 29.1878 34.8204 24.5664C45.9733 19.9451 57.9275 17.5664 70 17.5664C82.0725 17.5664 94.0267 19.9451 105.18 24.5664C116.333 29.1878 126.466 35.9614 135 44.5002" stroke="#0060FF" stroke-width="4" stroke-linecap="round" stroke-linejoin="round"/>
<path d="M79.9296 100.168L69.9294 133.838C69.7946 134.256 69.5031 134.604 69.1174 134.808C68.7317 135.012 68.2823 135.055 67.8653 134.929C67.4484 134.802 67.097 134.516 66.8862 134.131C66.6755 133.747 66.6222 133.294 66.7377 132.87L76.0941 101.367H61.6667C61.2247 101.367 60.8007 101.19 60.4882 100.874C60.1756 100.558 60 100.13 60 99.6835C60 99.237 60.1756 98.8088 60.4882 98.4931C60.8007 98.1774 61.2247 98 61.6667 98H78.3338C78.5936 98.0001 78.8498 98.0615 79.0819 98.1794C79.314 98.2972 79.5157 98.4683 79.6707 98.6789C79.8257 98.8895 79.9299 99.1337 79.9749 99.3922C80.0198 99.6507 80.0043 99.9162 79.9296 100.168Z" fill="#FE0000"/>
</svg>
