<svg width="100" height="100" viewBox="0 0 100 100" fill="none" xmlns="http://www.w3.org/2000/svg">
<g id="Group 3512">
<g id="e">
<g id="f">
<g id="g">
<g id="Group">
<path id="Vector" d="M77.8418 35.0784C77.8418 35.4714 77.5241 35.793 77.1359 35.793H36.2263C35.8381 35.793 35.5205 35.4714 35.5205 35.0784V1.11904C35.5205 0.921709 35.6785 0.761719 35.8734 0.761719H77.1359C77.5241 0.761719 77.8418 1.08331 77.8418 1.47636V35.0784Z" fill="white"/>
<path id="Vector_2" d="M76.7814 35.7928H35.8246C35.2401 35.7928 34.7646 35.3113 34.7646 34.7194V0.715577C34.7646 0.321026 35.0817 0 35.4713 0H76.7814C77.3659 0 77.8414 0.481494 77.8414 1.07337V34.7194C77.8414 35.3113 77.3659 35.7928 76.7814 35.7928ZM35.4713 0.715577V34.7194C35.4713 34.9168 35.6298 35.0772 35.8246 35.0772H76.7814C76.9762 35.0772 77.1347 34.9168 77.1347 34.7194V1.07337C77.1347 0.876045 76.9762 0.715577 76.7814 0.715577H35.4713Z" fill="#FE0000"/>
</g>
<path id="Vector_3" d="M74.1044 32.7475H39.257C38.8633 32.7475 38.543 32.4263 38.543 32.0315V9.69578C38.543 9.49887 38.6252 9.31368 38.7684 9.18748C38.9116 9.06128 39.1052 9.00356 39.3001 9.02907C39.3008 9.02907 39.4363 9.04589 39.6673 9.04589C41.9158 9.04589 43.7451 7.2117 43.7451 4.95719C43.7451 4.71902 43.7261 4.56991 43.7259 4.56848C43.6997 4.37399 43.7566 4.17932 43.882 4.03531C44.0075 3.8913 44.1924 3.80859 44.389 3.80859H68.887C69.0836 3.80859 69.2684 3.89121 69.394 4.03531C69.5196 4.17941 69.5764 4.37408 69.55 4.56937C69.55 4.56991 69.5309 4.71893 69.5309 4.95719C69.5309 7.2117 71.3602 9.04589 73.6087 9.04589C73.8643 9.04589 74.0505 9.01975 74.0565 9.01895C74.251 8.99031 74.4464 9.04536 74.5908 9.17057C74.7354 9.2957 74.8183 9.48106 74.8183 9.67904V32.0315C74.8183 32.4263 74.498 32.7475 74.1043 32.7475H74.1044ZM39.257 9.74447V32.0315H74.1044V9.73453C74.0172 9.74464 73.8354 9.76192 73.6087 9.76192C70.9666 9.76192 68.817 7.6065 68.817 4.95719C68.817 4.75214 68.8293 4.59945 68.8368 4.52462H44.4396C44.4471 4.59954 44.4593 4.75223 44.4593 4.95719C44.4593 7.60659 42.3097 9.76192 39.6675 9.76192C39.4683 9.76192 39.3273 9.75136 39.257 9.74447H39.257Z" fill="#FE0000"/>
</g>
<g id="h">
<g id="Group_2">
<path id="Vector_4" d="M88.4714 10.6602H47.5618C47.172 10.6602 46.856 10.9801 46.856 11.3748V44.9768C46.856 45.3715 47.172 45.6915 47.5618 45.6915H88.4714C88.8612 45.6915 89.1772 45.3715 89.1772 44.9768V11.3748C89.1772 10.9801 88.8612 10.6602 88.4714 10.6602Z" fill="white"/>
<path id="Vector_5" d="M88.1171 45.6913H47.1601C46.5756 45.6913 46.1001 45.2098 46.1001 44.6179V10.9718C46.1001 10.3799 46.5756 9.89844 47.1601 9.89844H88.1171C88.7016 9.89844 89.1771 10.3799 89.1771 10.9718V44.6179C89.1771 45.2098 88.7016 45.6913 88.1171 45.6913ZM47.1601 10.614C46.9652 10.614 46.8067 10.7745 46.8067 10.9718V44.6179C46.8067 44.8152 46.9652 44.9757 47.1601 44.9757H88.1171C88.312 44.9757 88.4704 44.8152 88.4704 44.6179V10.9718C88.4704 10.7745 88.312 10.614 88.1171 10.614H47.1601Z" fill="#FE0000"/>
</g>
<path id="Vector_6" d="M85.4404 42.6458H50.5929C50.1992 42.6458 49.8789 42.3246 49.8789 41.9298V19.594C49.8789 19.3972 49.9611 19.2119 50.1042 19.0858C50.2475 18.9597 50.4411 18.9017 50.6361 18.9274C50.6366 18.9274 50.7721 18.9442 51.0032 18.9442C53.2518 18.9442 55.0811 17.11 55.0811 14.8555C55.0811 14.6174 55.062 14.4684 55.0618 14.467C55.0356 14.2722 55.0925 14.0775 55.2181 13.9336C55.3436 13.7896 55.5283 13.707 55.7249 13.707H80.223C80.4196 13.707 80.6043 13.7896 80.7299 13.9336C80.8554 14.0776 80.9124 14.2722 80.8861 14.4676C80.8861 14.4685 80.8669 14.6175 80.8669 14.8555C80.8669 17.11 82.6962 18.9442 84.9447 18.9442C85.2002 18.9442 85.3866 18.9181 85.3925 18.9172C85.5872 18.8886 85.7824 18.9437 85.9269 19.0688C86.0714 19.1939 86.1543 19.3793 86.1543 19.5773V41.9299C86.1543 42.3247 85.834 42.6459 85.4403 42.6459L85.4404 42.6458ZM50.5929 19.6428V41.9298H85.4404V19.6327C85.3531 19.6429 85.1714 19.6601 84.9448 19.6601C82.3026 19.6601 80.153 17.5047 80.153 14.8554C80.153 14.6504 80.1652 14.4977 80.1728 14.4229H55.7754C55.783 14.4977 55.7952 14.6504 55.7952 14.8554C55.7952 17.5048 53.6456 19.6601 51.0034 19.6601C50.8042 19.6601 50.6632 19.6496 50.593 19.6428H50.5929Z" fill="#FE0000"/>
</g>
</g>
<g id="i">
<g id="Group_3">
<path id="Vector_7" d="M62.9663 79.9045H98.2457V36.4516C98.2457 31.4821 94.2196 27.416 89.2988 27.416H8.9469C4.02612 27.416 0 31.4821 0 36.4516V89.2046C0 94.1741 4.02612 98.2402 8.9469 98.2402H89.2988C91.9738 98.2402 94.3846 97.039 96.0279 95.1432H62.9663C58.9484 95.1432 55.661 91.8232 55.661 87.7655V87.2822C55.661 83.2245 58.9484 79.9046 62.9663 79.9046V79.9045ZM12.4058 41.6176C12.4058 41.0705 12.8491 40.6228 13.3908 40.6228H84.5192C85.0609 40.6228 85.5042 41.0705 85.5042 41.6176V42.168C85.5042 42.7151 85.061 43.1628 84.5192 43.1628H13.3908C12.8491 43.1628 12.4058 42.7152 12.4058 42.168V41.6176ZM13.3908 56.5388C12.8491 56.5388 12.4058 56.0911 12.4058 55.544V54.9937C12.4058 54.4466 12.8491 53.9989 13.3908 53.9989H84.5192C85.0609 53.9989 85.5042 54.4465 85.5042 54.9937V55.544C85.5042 56.0911 85.061 56.5388 84.5192 56.5388H13.3908Z" fill="white"/>
<path id="Vector_8" d="M89.7699 99.0017H9.23146C4.14125 99.0017 0 94.8156 0 89.6703V36.7473C0 31.602 4.14125 27.416 9.23146 27.416H89.7699C94.8602 27.416 99.0014 31.6021 99.0014 36.7473V80.6069H63.3763C59.4842 80.6069 56.3179 83.8076 56.3179 87.7417V88.2266C56.3179 92.1607 59.4843 95.3614 63.3763 95.3614H97.0961L96.7131 95.8037C94.953 97.8361 92.4224 99.0017 89.7699 99.0017ZM9.23146 27.9492C4.43213 27.9492 0.527592 31.896 0.527592 36.7472V89.6702C0.527592 94.5215 4.43213 98.4683 9.23146 98.4683H89.7699C92.0711 98.4683 94.2754 97.5371 95.906 95.8946H63.3763C59.1934 95.8946 55.7904 92.4547 55.7904 88.2265V87.7416C55.7904 83.5134 59.1934 80.0735 63.3763 80.0735H98.4739V36.7472C98.4739 31.896 94.5694 27.9492 89.77 27.9492H9.23146ZM84.9792 57.1659H13.6857C12.9958 57.1659 12.4346 56.5986 12.4346 55.9013V55.349C12.4346 54.6517 12.9957 54.0844 13.6857 54.0844H84.9792C85.6691 54.0844 86.2303 54.6517 86.2303 55.349V55.9013C86.2303 56.5986 85.6691 57.1659 84.9792 57.1659ZM13.6857 54.6178C13.2867 54.6178 12.9622 54.9458 12.9622 55.3491V55.9014C12.9622 56.3046 13.2867 56.6327 13.6857 56.6327H84.9792C85.3782 56.6327 85.7027 56.3047 85.7027 55.9014V55.3491C85.7027 54.9459 85.3783 54.6178 84.9792 54.6178H13.6857ZM84.9792 43.7467H13.6857C12.9958 43.7467 12.4346 43.1794 12.4346 42.4821V41.9299C12.4346 41.2326 12.9957 40.6652 13.6857 40.6652H84.9792C85.6691 40.6652 86.2303 41.2326 86.2303 41.9299V42.4821C86.2303 43.1794 85.6691 43.7467 84.9792 43.7467ZM13.6857 41.1986C13.2867 41.1986 12.9622 41.5267 12.9622 41.93V42.4822C12.9622 42.8855 13.2867 43.2135 13.6857 43.2135H84.9792C85.3782 43.2135 85.7027 42.8856 85.7027 42.4822V41.93C85.7027 41.5268 85.3783 41.1986 84.9792 41.1986H13.6857Z" fill="#0060FF"/>
</g>
<g id="Group_4">
<path id="Vector_9" d="M84.4104 40.3613H13.0796C12.5341 40.3613 12.0918 40.7619 12.0918 41.2561V41.7512C12.0918 42.2454 12.5341 42.646 13.0796 42.646H84.4104C84.956 42.646 85.3982 42.2454 85.3982 41.7512V41.2561C85.3982 40.7619 84.956 40.3613 84.4104 40.3613Z" fill="white"/>
<path id="Vector_10" d="M84.8984 43.4075H13.3474C12.6551 43.4075 12.0918 42.8467 12.0918 42.1574V41.6115C12.0918 40.9222 12.655 40.3613 13.3474 40.3613H84.8984C85.5907 40.3613 86.154 40.9222 86.154 41.6115V42.1574C86.154 42.8467 85.5907 43.4075 84.8984 43.4075ZM13.3474 40.8886C12.947 40.8886 12.6213 41.2128 12.6213 41.6116V42.1575C12.6213 42.5561 12.947 42.8804 13.3474 42.8804H84.8984C85.2988 42.8804 85.6245 42.5562 85.6245 42.1575V41.6116C85.6245 41.2129 85.2988 40.8886 84.8984 40.8886H13.3474Z" fill="#0060FF"/>
</g>
<g id="Group_5">
<path id="Vector_11" d="M84.4104 54.0703H13.0796C12.5341 54.0703 12.0918 54.4709 12.0918 54.9651V55.4602C12.0918 55.9543 12.5341 56.355 13.0796 56.355H84.4104C84.956 56.355 85.3982 55.9543 85.3982 55.4602V54.9651C85.3982 54.4709 84.956 54.0703 84.4104 54.0703Z" fill="white"/>
<path id="Vector_12" d="M84.8984 57.1165H13.3474C12.6551 57.1165 12.0918 56.5557 12.0918 55.8664V55.3205C12.0918 54.6312 12.655 54.0703 13.3474 54.0703H84.8984C85.5907 54.0703 86.154 54.6312 86.154 55.3205V55.8664C86.154 56.5557 85.5907 57.1165 84.8984 57.1165ZM13.3474 54.5976C12.947 54.5976 12.6213 54.9218 12.6213 55.3205V55.8665C12.6213 56.2651 12.947 56.5894 13.3474 56.5894H84.8984C85.2988 56.5894 85.6245 56.2652 85.6245 55.8665V55.3205C85.6245 54.9219 85.2988 54.5976 84.8984 54.5976H13.3474Z" fill="#0060FF"/>
</g>
<g id="Group_6">
<path id="Vector_13" d="M98.2456 79.9629V89.2583C98.2456 91.526 97.4127 93.604 96.0414 95.1939H63.1844C59.1913 95.1939 55.9243 91.8756 55.9243 87.8199V87.3369C55.9243 83.2812 59.1913 79.9629 63.1844 79.9629H98.2456Z" fill="white"/>
<path id="Vector_14" d="M96.6414 95.9554H63.4868C59.3168 95.9554 55.9243 92.4783 55.9243 88.2042V87.7141C55.9243 83.4401 59.3168 79.9629 63.4868 79.9629H99.0013V89.6636C99.0013 91.9405 98.1912 94.1424 96.7201 95.8635L96.6415 95.9554H96.6414ZM63.4868 80.502C59.6068 80.502 56.4503 83.7374 56.4503 87.7141V88.2042C56.4503 92.181 59.6069 95.4164 63.4868 95.4164H96.4019C97.7398 93.8075 98.4753 91.7694 98.4753 89.6636V80.502H63.4867H63.4868Z" fill="#0060FF"/>
</g>
<g id="Group_7">
<path id="Vector_15" d="M84.4104 40.3613H13.0796C12.5341 40.3613 12.0918 40.7619 12.0918 41.2561V41.7512C12.0918 42.2454 12.5341 42.646 13.0796 42.646H84.4104C84.956 42.646 85.3982 42.2454 85.3982 41.7512V41.2561C85.3982 40.7619 84.956 40.3613 84.4104 40.3613Z" fill="white"/>
<path id="Vector_16" d="M84.8984 43.4075H13.3474C12.6551 43.4075 12.0918 42.8467 12.0918 42.1574V41.6115C12.0918 40.9222 12.655 40.3613 13.3474 40.3613H84.8984C85.5907 40.3613 86.154 40.9222 86.154 41.6115V42.1574C86.154 42.8467 85.5907 43.4075 84.8984 43.4075ZM13.3474 40.8886C12.947 40.8886 12.6213 41.2128 12.6213 41.6116V42.1575C12.6213 42.5561 12.947 42.8804 13.3474 42.8804H84.8984C85.2988 42.8804 85.6245 42.5562 85.6245 42.1575V41.6116C85.6245 41.2129 85.2988 40.8886 84.8984 40.8886H13.3474Z" fill="#0060FF"/>
</g>
<g id="Group_8">
<path id="Vector_17" d="M84.4104 54.0703H13.0796C12.5341 54.0703 12.0918 54.4709 12.0918 54.9651V55.4602C12.0918 55.9543 12.5341 56.355 13.0796 56.355H84.4104C84.956 56.355 85.3982 55.9543 85.3982 55.4602V54.9651C85.3982 54.4709 84.956 54.0703 84.4104 54.0703Z" fill="white"/>
<path id="Vector_18" d="M84.8984 57.1165H13.3474C12.6551 57.1165 12.0918 56.5557 12.0918 55.8664V55.3205C12.0918 54.6312 12.655 54.0703 13.3474 54.0703H84.8984C85.5907 54.0703 86.154 54.6312 86.154 55.3205V55.8664C86.154 56.5557 85.5907 57.1165 84.8984 57.1165ZM13.3474 54.5976C12.947 54.5976 12.6213 54.9218 12.6213 55.3205V55.8665C12.6213 56.2651 12.947 56.5894 13.3474 56.5894H84.8984C85.2988 56.5894 85.6245 56.2652 85.6245 55.8665V55.3205C85.6245 54.9219 85.2988 54.5976 84.8984 54.5976H13.3474Z" fill="#0060FF"/>
</g>
<g id="Group_9">
<path id="Vector_19" d="M98.2456 79.9629V89.2583C98.2456 91.526 97.4127 93.604 96.0414 95.1939H63.1844C59.1913 95.1939 55.9243 91.8756 55.9243 87.8199V87.3369C55.9243 83.2812 59.1913 79.9629 63.1844 79.9629H98.2456Z" fill="white"/>
<path id="Vector_20" d="M96.6414 95.9554H63.4868C59.3168 95.9554 55.9243 92.4783 55.9243 88.2042V87.7141C55.9243 83.4401 59.3168 79.9629 63.4868 79.9629H99.0013V89.6636C99.0013 91.9405 98.1912 94.1424 96.7201 95.8635L96.6415 95.9554H96.6414ZM63.4868 80.502C59.6068 80.502 56.4503 83.7374 56.4503 87.7141V88.2042C56.4503 92.181 59.6069 95.4164 63.4868 95.4164H96.4019C97.7398 93.8075 98.4753 91.7694 98.4753 89.6636V80.502H63.4867H63.4868Z" fill="#0060FF"/>
</g>
<g id="Group_10">
<path id="Vector_21" d="M64.9935 91.387C67.0804 91.387 68.7722 89.6822 68.7722 87.5792C68.7722 85.4763 67.0804 83.7715 64.9935 83.7715C62.9066 83.7715 61.2148 85.4763 61.2148 87.5792C61.2148 89.6822 62.9066 91.387 64.9935 91.387Z" fill="white"/>
<path id="Vector_22" d="M65.3714 92.1485C63.0795 92.1485 61.2148 90.2696 61.2148 87.9601C61.2148 85.6505 63.0795 83.7715 65.3714 83.7715C67.6633 83.7715 69.5279 85.6504 69.5279 87.9601C69.5279 90.2697 67.6633 92.1485 65.3714 92.1485ZM65.3714 84.3067C63.3723 84.3067 61.746 85.9456 61.746 87.9601C61.746 89.9745 63.3723 91.6133 65.3714 91.6133C67.3705 91.6133 68.9968 89.9745 68.9968 87.9601C68.9968 85.9456 67.3705 84.3067 65.3714 84.3067Z" fill="#0060FF"/>
</g>
</g>
</g>
</g>
</svg>
