<svg width="211" height="334" viewBox="0 0 211 334" fill="none" xmlns="http://www.w3.org/2000/svg">
<path d="M108.848 167C108.848 202.815 79.8146 231.848 44.0002 231.848C8.1857 231.848 -20.8477 202.815 -20.8477 167C-20.8477 131.186 8.1857 102.152 44.0002 102.152C79.8146 102.152 108.848 131.186 108.848 167Z" stroke="#D9E7FF"/>
<path d="M150.8 167.404C150.8 226.165 103.165 273.8 44.4039 273.8C-14.357 273.8 -61.9922 226.165 -61.9922 167.404C-61.9922 108.643 -14.357 61.0078 44.4039 61.0078C103.165 61.0078 150.8 108.643 150.8 167.404Z" stroke="#D9E7FF"/>
<circle cx="43.9996" cy="167" r="138.263" stroke="#D9E7FF"/>
<circle cx="44" cy="167" r="166.5" stroke="#D9E7FF"/>
</svg>
