<svg width="140" height="140" viewBox="0 0 140 140" fill="none" xmlns="http://www.w3.org/2000/svg">
<path d="M45.2998 79.9994C48.5516 76.6611 52.439 74.0078 56.7327 72.1962C61.0264 70.3845 65.6395 69.4512 70.2998 69.4512C74.9601 69.4512 79.5732 70.3845 83.8669 72.1962C88.1606 74.0078 92.0481 76.6611 95.2998 79.9994" stroke="#0060FF" stroke-width="4" stroke-linecap="round" stroke-linejoin="round"/>
<path d="M23.6001 63.1007C29.6872 56.978 36.9247 52.1192 44.8964 48.8037C52.868 45.4881 61.4165 43.7813 70.0501 43.7812C78.6837 43.7813 87.2322 45.4881 95.2038 48.8037C103.175 52.1192 110.413 56.978 116.5 63.1007" stroke="#0060FF" stroke-width="4" stroke-linecap="round" stroke-linejoin="round"/>
<path d="M5 44.5002C13.5343 35.9614 23.6674 29.1878 34.8204 24.5664C45.9733 19.9451 57.9275 17.5664 70 17.5664C82.0725 17.5664 94.0267 19.9451 105.18 24.5664C116.333 29.1878 126.466 35.9614 135 44.5002" stroke="#0060FF" stroke-width="4" stroke-linecap="round" stroke-linejoin="round"/>
<path d="M100.15 124.975H76.4862C76.2424 124.975 76.0009 124.927 75.7757 124.833C75.5505 124.74 75.346 124.603 75.174 124.43C75.002 124.257 74.8658 124.052 74.7732 123.826C74.6807 123.601 74.6337 123.359 74.6348 123.115C74.6373 122.666 74.799 122.233 75.0912 121.892L91.9695 102.603C92.1346 102.413 92.3384 102.261 92.5671 102.157C92.7959 102.053 93.0443 102 93.2956 102C94.2601 102 95.0437 102.792 95.0437 103.757V132.631" stroke="#FE0000" stroke-width="4" stroke-linecap="round" stroke-linejoin="round"/>
<path d="M60.409 132.622H40V128.273C40.0021 126.786 40.4372 125.33 41.2523 124.086C42.0673 122.841 43.227 121.86 44.5899 121.264L55.9569 116.295C57.5298 115.61 58.8185 114.404 59.6057 112.88C60.393 111.355 60.6306 109.606 60.2786 107.927C59.9266 106.248 59.0065 104.742 57.6734 103.662C56.3403 102.583 54.6756 101.995 52.9601 102H47.6555C46.0726 102.002 44.529 102.494 43.2369 103.408C41.9447 104.322 40.9674 105.614 40.4392 107.107" stroke="#FE0000" stroke-width="4" stroke-linecap="round" stroke-linejoin="round"/>
</svg>
