<svg width="371" height="399" viewBox="0 0 371 399" fill="none" xmlns="http://www.w3.org/2000/svg">
<path d="M291.707 141.113C291.707 142.694 290.517 143.988 289.062 143.988H135.756C134.301 143.988 133.111 142.694 133.111 141.113V4.50187C133.111 3.70806 133.703 3.06445 134.433 3.06445H289.062C290.517 3.06445 291.707 4.35813 291.707 5.93929V141.113Z" fill="white"/>
<path d="M287.734 143.986H134.251C132.061 143.986 130.279 142.05 130.279 139.669V2.87861C130.279 1.29142 131.467 0 132.927 0H287.734C289.924 0 291.706 1.93694 291.706 4.31791V139.669C291.706 142.05 289.924 143.986 287.734 143.986ZM132.927 2.87861V139.669C132.927 140.462 133.521 141.108 134.251 141.108H287.734C288.464 141.108 289.058 140.462 289.058 139.669V4.31791C289.058 3.52414 288.464 2.87861 287.734 2.87861H132.927Z" fill="#FE0000"/>
<path d="M277.702 131.735H147.114C145.638 131.735 144.438 130.443 144.438 128.855V39.0031C144.438 38.211 144.746 37.4661 145.283 36.9584C145.819 36.4507 146.545 36.2185 147.276 36.3211C147.278 36.3211 147.786 36.3888 148.652 36.3888C157.078 36.3888 163.933 29.0102 163.933 19.9409C163.933 18.9828 163.862 18.3829 163.861 18.3772C163.763 17.5948 163.976 16.8117 164.446 16.2323C164.916 15.653 165.609 15.3203 166.346 15.3203H258.15C258.887 15.3203 259.58 15.6526 260.05 16.2323C260.521 16.812 260.734 17.5951 260.635 18.3808C260.635 18.3829 260.563 18.9824 260.563 19.9409C260.563 29.0102 267.419 36.3888 275.844 36.3888C276.802 36.3888 277.5 36.2837 277.523 36.2804C278.251 36.1652 278.984 36.3866 279.525 36.8904C280.067 37.3937 280.377 38.1394 280.377 38.9358V128.855C280.377 130.443 279.177 131.735 277.702 131.735H277.702ZM147.114 39.199V128.855H277.702V39.159C277.375 39.1997 276.694 39.2692 275.845 39.2692C265.943 39.2692 257.888 30.5984 257.888 19.9409C257.888 19.116 257.934 18.5017 257.962 18.2007H166.535C166.563 18.5021 166.609 19.1164 166.609 19.9409C166.609 30.5988 158.554 39.2692 148.652 39.2692C147.906 39.2692 147.377 39.2267 147.114 39.199H147.114Z" fill="#FE0000"/>
<path d="M331.541 42.8828H178.235C176.774 42.8828 175.59 44.1699 175.59 45.7577V180.931C175.59 182.519 176.774 183.806 178.235 183.806H331.541C333.002 183.806 334.186 182.519 334.186 180.931V45.7577C334.186 44.1699 333.002 42.8828 331.541 42.8828Z" fill="white"/>
<path d="M330.214 183.805H176.73C174.54 183.805 172.758 181.868 172.758 179.487V44.1363C172.758 41.7553 174.54 39.8184 176.73 39.8184H330.214C332.404 39.8184 334.186 41.7553 334.186 44.1363V179.487C334.186 181.868 332.404 183.805 330.214 183.805ZM176.73 42.697C176 42.697 175.406 43.3425 175.406 44.1363V179.487C175.406 180.281 176 180.926 176.73 180.926H330.214C330.944 180.926 331.538 180.281 331.538 179.487V44.1363C331.538 43.3425 330.944 42.697 330.214 42.697H176.73Z" fill="#FE0000"/>
<path d="M320.183 171.555H189.594C188.119 171.555 186.919 170.263 186.919 168.675V78.8225C186.919 78.0308 187.227 77.2855 187.763 76.7781C188.3 76.2708 189.025 76.0375 189.756 76.1408C189.758 76.1408 190.266 76.2085 191.132 76.2085C199.558 76.2085 206.413 68.8299 206.413 59.7605C206.413 58.8027 206.342 58.2036 206.341 58.1979C206.243 57.414 206.456 56.6309 206.927 56.0519C207.397 55.473 208.089 55.1406 208.826 55.1406H300.631C301.368 55.1406 302.06 55.473 302.53 56.0519C303.001 56.6313 303.214 57.4144 303.116 58.2004C303.116 58.204 303.044 58.8031 303.044 59.7605C303.044 68.8299 309.899 76.2085 318.325 76.2085C319.283 76.2085 319.981 76.1034 320.003 76.1002C320.733 75.9849 321.464 76.2067 322.006 76.7097C322.547 77.2131 322.858 77.9588 322.858 78.7556V168.675C322.858 170.263 321.658 171.555 320.182 171.555L320.183 171.555ZM189.594 79.0187V168.675H320.183V78.9784C319.856 79.0191 319.175 79.0886 318.325 79.0886C308.424 79.0886 300.368 70.4178 300.368 59.7601C300.368 58.9356 300.414 58.3213 300.443 58.0203H209.015C209.044 58.3213 209.09 58.9356 209.09 59.7601C209.09 70.4181 201.034 79.0886 191.133 79.0886C190.386 79.0886 189.858 79.0461 189.595 79.0187H189.594Z" fill="#FE0000"/>
<path d="M235.962 321.437H368.169V146.635C368.169 126.644 353.081 110.287 334.641 110.287H33.5279C15.0876 110.287 0 126.644 0 146.635V358.849C0 378.84 15.0876 395.197 33.5279 395.197H334.641C344.666 395.197 353.7 390.365 359.858 382.739H235.962C220.905 382.739 208.586 369.383 208.586 353.06V351.116C208.586 334.792 220.905 321.437 235.962 321.437V321.437ZM46.4897 167.417C46.4897 165.216 48.1509 163.415 50.181 163.415H316.73C318.76 163.415 320.421 165.216 320.421 167.417V169.631C320.421 171.832 318.76 173.633 316.73 173.633H50.181C48.1509 173.633 46.4897 171.832 46.4897 169.631V167.417ZM50.181 227.442C48.1509 227.442 46.4897 225.641 46.4897 223.44V221.226C46.4897 219.025 48.1509 217.224 50.181 217.224H316.73C318.76 217.224 320.421 219.025 320.421 221.226V223.44C320.421 225.641 318.76 227.442 316.73 227.442H50.181Z" fill="white"/>
<path d="M336.407 398.26H34.5943C15.519 398.26 0 381.421 0 360.722V147.825C0 127.126 15.519 110.287 34.5943 110.287H336.407C355.482 110.287 371.001 127.127 371.001 147.825V324.262H237.498C222.913 324.262 211.047 337.138 211.047 352.964V354.914C211.047 370.741 222.913 383.616 237.498 383.616H363.861L362.425 385.395C355.83 393.571 346.346 398.26 336.407 398.26ZM34.5943 112.432C16.6091 112.432 1.97712 128.309 1.97712 147.825V360.722C1.97712 380.238 16.6091 396.115 34.5943 396.115H336.407C345.03 396.115 353.291 392.369 359.401 385.761H237.498C221.823 385.761 209.07 371.923 209.07 354.914V352.964C209.07 335.955 221.823 322.117 237.498 322.117H369.024V147.825C369.024 128.309 354.392 112.432 336.407 112.432H34.5943ZM318.454 229.964H51.2861C48.701 229.964 46.5977 227.682 46.5977 224.877V222.655C46.5977 219.85 48.7007 217.568 51.2861 217.568H318.454C321.039 217.568 323.142 219.85 323.142 222.655V224.877C323.142 227.682 321.039 229.964 318.454 229.964ZM51.2861 219.714C49.791 219.714 48.5748 221.033 48.5748 222.656V224.877C48.5748 226.5 49.791 227.819 51.2861 227.819H318.454C319.949 227.819 321.165 226.5 321.165 224.877V222.656C321.165 221.034 319.949 219.714 318.454 219.714H51.2861ZM318.454 175.982H51.2861C48.701 175.982 46.5977 173.7 46.5977 170.895V168.673C46.5977 165.868 48.7007 163.586 51.2861 163.586H318.454C321.039 163.586 323.142 165.868 323.142 168.673V170.895C323.142 173.7 321.039 175.982 318.454 175.982ZM51.2861 165.731C49.791 165.731 48.5748 167.051 48.5748 168.673V170.895C48.5748 172.517 49.791 173.837 51.2861 173.837H318.454C319.949 173.837 321.165 172.518 321.165 170.895V168.673C321.165 167.052 319.949 165.731 318.454 165.731H51.2861Z" fill="#0060FF"/>
<path d="M316.322 162.367H49.015C46.9706 162.367 45.3132 163.979 45.3132 165.967V167.958C45.3132 169.946 46.9706 171.558 49.015 171.558H316.322C318.367 171.558 320.024 169.946 320.024 167.958V165.967C320.024 163.979 318.367 162.367 316.322 162.367Z" fill="white"/>
<path d="M318.151 174.621H50.0186C47.4242 174.621 45.3132 172.365 45.3132 169.592V167.396C45.3132 164.623 47.4238 162.367 50.0186 162.367H318.151C320.745 162.367 322.856 164.623 322.856 167.396V169.592C322.856 172.365 320.745 174.621 318.151 174.621ZM50.0186 164.488C48.5181 164.488 47.2975 165.793 47.2975 167.397V169.593C47.2975 171.196 48.5181 172.501 50.0186 172.501H318.151C319.651 172.501 320.872 171.197 320.872 169.593V167.397C320.872 165.793 319.652 164.488 318.151 164.488H50.0186Z" fill="#0060FF"/>
<path d="M316.322 217.516H49.015C46.9706 217.516 45.3132 219.127 45.3132 221.115V223.107C45.3132 225.095 46.9706 226.706 49.015 226.706H316.322C318.367 226.706 320.024 225.095 320.024 223.107V221.115C320.024 219.127 318.367 217.516 316.322 217.516Z" fill="white"/>
<path d="M318.151 229.77H50.0186C47.4242 229.77 45.3132 227.514 45.3132 224.741V222.545C45.3132 219.772 47.4238 217.516 50.0186 217.516H318.151C320.745 217.516 322.856 219.772 322.856 222.545V224.741C322.856 227.514 320.745 229.77 318.151 229.77ZM50.0186 219.637C48.5182 219.637 47.2975 220.941 47.2975 222.545V224.741C47.2975 226.345 48.5182 227.649 50.0186 227.649H318.151C319.651 227.649 320.872 226.345 320.872 224.741V222.545C320.872 220.941 319.652 219.637 318.151 219.637H50.0186Z" fill="#0060FF"/>
<path d="M368.168 321.672V359.065C368.168 368.188 365.047 376.547 359.908 382.943H236.779C221.815 382.943 209.572 369.594 209.572 353.279V351.336C209.572 335.021 221.815 321.672 236.779 321.672H368.168Z" fill="white"/>
<path d="M362.157 386.006H237.912C222.285 386.006 209.572 372.018 209.572 354.825V352.853C209.572 335.66 222.285 321.672 237.912 321.672H371V360.696C371 369.855 367.964 378.713 362.451 385.637L362.157 386.006H362.157ZM237.912 323.84C223.372 323.84 211.543 336.856 211.543 352.853V354.825C211.543 370.823 223.372 383.838 237.912 383.838H361.259C366.273 377.366 369.029 369.167 369.029 360.696V323.84H237.911H237.912Z" fill="#0060FF"/>
<path d="M316.322 162.367H49.015C46.9706 162.367 45.3132 163.979 45.3132 165.967V167.958C45.3132 169.946 46.9706 171.558 49.015 171.558H316.322C318.367 171.558 320.024 169.946 320.024 167.958V165.967C320.024 163.979 318.367 162.367 316.322 162.367Z" fill="white"/>
<path d="M318.151 174.621H50.0186C47.4242 174.621 45.3132 172.365 45.3132 169.592V167.396C45.3132 164.623 47.4238 162.367 50.0186 162.367H318.151C320.745 162.367 322.856 164.623 322.856 167.396V169.592C322.856 172.365 320.745 174.621 318.151 174.621ZM50.0186 164.488C48.5181 164.488 47.2975 165.793 47.2975 167.397V169.593C47.2975 171.196 48.5181 172.501 50.0186 172.501H318.151C319.651 172.501 320.872 171.197 320.872 169.593V167.397C320.872 165.793 319.652 164.488 318.151 164.488H50.0186Z" fill="#0060FF"/>
<path d="M316.322 217.516H49.015C46.9706 217.516 45.3132 219.127 45.3132 221.115V223.107C45.3132 225.095 46.9706 226.706 49.015 226.706H316.322C318.367 226.706 320.024 225.095 320.024 223.107V221.115C320.024 219.127 318.367 217.516 316.322 217.516Z" fill="white"/>
<path d="M318.151 229.77H50.0186C47.4242 229.77 45.3132 227.514 45.3132 224.741V222.545C45.3132 219.772 47.4238 217.516 50.0186 217.516H318.151C320.745 217.516 322.856 219.772 322.856 222.545V224.741C322.856 227.514 320.745 229.77 318.151 229.77ZM50.0186 219.637C48.5182 219.637 47.2975 220.941 47.2975 222.545V224.741C47.2975 226.345 48.5182 227.649 50.0186 227.649H318.151C319.651 227.649 320.872 226.345 320.872 224.741V222.545C320.872 220.941 319.652 219.637 318.151 219.637H50.0186Z" fill="#0060FF"/>
<path d="M368.168 321.672V359.065C368.168 368.188 365.047 376.547 359.908 382.943H236.779C221.815 382.943 209.572 369.594 209.572 353.279V351.336C209.572 335.021 221.815 321.672 236.779 321.672H368.168Z" fill="white"/>
<path d="M362.157 386.006H237.912C222.285 386.006 209.572 372.018 209.572 354.825V352.853C209.572 335.66 222.285 321.672 237.912 321.672H371V360.696C371 369.855 367.964 378.713 362.451 385.637L362.157 386.006H362.157ZM237.912 323.84C223.372 323.84 211.543 336.856 211.543 352.853V354.825C211.543 370.823 223.372 383.838 237.912 383.838H361.259C366.273 377.366 369.029 369.167 369.029 360.696V323.84H237.911H237.912Z" fill="#0060FF"/>
<path d="M243.558 367.63C251.379 367.63 257.718 360.772 257.718 352.312C257.718 343.852 251.379 336.994 243.558 336.994C235.738 336.994 229.398 343.852 229.398 352.312C229.398 360.772 235.738 367.63 243.558 367.63Z" fill="white"/>
<path d="M244.974 370.693C236.385 370.693 229.398 363.135 229.398 353.844C229.398 344.553 236.385 336.994 244.974 336.994C253.563 336.994 260.55 344.553 260.55 353.844C260.55 363.135 253.563 370.693 244.974 370.693ZM244.974 339.147C237.483 339.147 231.388 345.74 231.388 353.844C231.388 361.948 237.483 368.54 244.974 368.54C252.466 368.54 258.56 361.947 258.56 353.844C258.56 345.74 252.466 339.147 244.974 339.147Z" fill="#0060FF"/>
</svg>
