<svg width="140" height="140" viewBox="0 0 140 140" fill="none" xmlns="http://www.w3.org/2000/svg">
<path d="M74.8999 130.7C80.0839 134.038 86.2543 135.501 92.3851 134.846C98.516 134.191 104.238 131.457 108.6 127.1L112.4 123.3C114.085 121.596 115.031 119.296 115.031 116.9C115.031 114.503 114.085 112.203 112.4 110.5L96.3999 94.5996C94.7132 92.9203 92.43 91.9775 90.0499 91.9775C87.6698 91.9775 85.3866 92.9203 83.6999 94.5996C81.9962 96.2851 79.6964 97.2304 77.2999 97.2304C74.9034 97.2304 72.6036 96.2851 70.8999 94.5996L45.3999 69.0996C43.7144 67.3959 42.7691 65.0961 42.7691 62.6996C42.7691 60.3031 43.7144 58.0033 45.3999 56.2996C47.0792 54.6129 48.022 52.3297 48.022 49.9496C48.022 47.5695 47.0792 45.2863 45.3999 43.5996L29.9999 27.5996C28.2962 25.9141 25.9964 24.9688 23.5999 24.9688C21.2034 24.9688 18.9036 25.9141 17.1999 27.5996L13.3999 31.3996C8.96398 35.7 6.13703 41.3916 5.39088 47.5246C4.64472 53.6576 6.0245 59.861 9.29992 65.0996C26.737 90.9876 49.0119 113.262 74.8999 130.7Z" stroke="#0060FF" stroke-width="4" stroke-linecap="round" stroke-linejoin="round"/>
<path d="M70 5C78.5359 5 86.9883 6.68127 94.8744 9.94783C102.761 13.2144 109.926 18.0023 115.962 24.0381C128.152 36.2279 135 52.7609 135 70" stroke="#FE0000" stroke-width="4" stroke-linecap="round" stroke-linejoin="round"/>
<path d="M70 30C80.6087 30 90.7828 34.2143 98.2843 41.7157C105.786 49.2172 110 59.3913 110 70" stroke="#FE0000" stroke-width="4" stroke-linecap="round" stroke-linejoin="round"/>
</svg>
